<?xml version="1.0" encoding="UTF-8"?>
<svg version="1.1" xmlns="http://www.w3.org/2000/svg" width="612" height="408">
<path d="M0 0 C201.96 0 403.92 0 612 0 C612 134.64 612 269.28 612 408 C410.04 408 208.08 408 0 408 C0 273.36 0 138.72 0 0 Z " fill="#F7DCB6" transform="translate(0,0)"/>
<path d="M0 0 C1.65 0 3.3 0 5 0 C5.33 6.6 5.66 13.2 6 20 C7.32 18.370625 8.64 16.74125 10 15.0625 C10.82371094 14.06734375 11.64742187 13.0721875 12.49609375 12.046875 C14.05987179 10.14399376 15.5985046 8.2198264 17.09765625 6.265625 C21.90192184 0.26745643 21.90192184 0.26745643 25.27734375 -0.5546875 C27.5 -0.5625 27.5 -0.5625 31 0 C31.33 0.99 31.66 1.98 32 3 C32.66 3 33.32 3 34 3 C34 2.01 34 1.02 34 0 C35.65 0 37.3 0 39 0 C42.60605385 11.26316395 45.8961747 22.58848911 49 34 C51.43139418 31.56860582 51.75715003 29.88579448 52.65625 26.58203125 C52.95660156 25.49212891 53.25695312 24.40222656 53.56640625 23.27929688 C53.87449219 22.13525391 54.18257813 20.99121094 54.5 19.8125 C55.1145514 17.56900167 55.72913391 15.32551186 56.34375 13.08203125 C56.77300781 11.50156006 56.77300781 11.50156006 57.2109375 9.88916016 C58.11348033 6.58449063 59.04758597 3.29059048 60 0 C61.98 0 63.96 0 66 0 C66.24121582 0.9429895 66.24121582 0.9429895 66.48730469 1.9050293 C69.42279958 13.35073743 72.37596115 24.75003283 76 36 C76.24121582 35.00371582 76.24121582 35.00371582 76.48730469 33.98730469 C82.40958851 9.63075082 82.40958851 9.63075082 86 0 C87.65 0 89.3 0 91 0 C89.64459813 7.20192488 87.9865545 14.28795671 86.125 21.375 C85.73127197 22.88139038 85.73127197 22.88139038 85.32958984 24.41821289 C83.48601529 31.38151238 81.47463959 38.23113288 79 45 C77.02 45 75.04 45 73 45 C70.56273592 37.86819033 68.402994 30.67785395 66.3125 23.4375 C65.99216797 22.33341797 65.67183594 21.22933594 65.34179688 20.09179688 C64.55960559 17.39498812 63.77904286 14.69771961 63 12 C61.08318896 15.44578483 60.08712167 18.9376816 59.0546875 22.734375 C58.87994904 23.37240051 58.70521057 24.01042603 58.525177 24.66778564 C57.9711777 26.69413997 57.4230119 28.72201918 56.875 30.75 C56.49908265 32.12901119 56.12278468 33.50791867 55.74609375 34.88671875 C54.82631894 38.25662303 53.91176707 41.62791916 53 45 C50.69 45 48.38 45 46 45 C45.95875 44.443125 45.9175 43.88625 45.875 43.3125 C44.53069626 39.75969726 41.99025811 38.29041047 39 36 C38.38125 36.309375 37.7625 36.61875 37.125 36.9375 C35.75 37.625 34.375 38.3125 33 39 C33 40.98 33 42.96 33 45 C31.515 45.495 31.515 45.495 30 46 C29.67 46.99 29.34 47.98 29 49 C28.34 49 27.68 49 27 49 C27 49.66 27 50.32 27 51 C26.34 51 25.68 51 25 51 C24.67 50.34 24.34 49.68 24 49 C23.01 49.66 22.02 50.32 21 51 C21.37125 49.906875 21.7425 48.81375 22.125 47.6875 C22.58238387 44.24187482 22.12329225 43.17073135 20.05078125 40.30078125 C18.34023996 38.46751054 16.5934563 36.66724366 14.80859375 34.90625 C11.56117909 31.54592106 8.80383746 27.73844995 6 24 C5.67 30.93 5.34 37.86 5 45 C3.35 45 1.7 45 0 45 C0 30.15 0 15.3 0 0 Z " fill="#F9E1A8" transform="translate(228,189)"/>
<path d="M0 0 C1.65 0 3.3 0 5 0 C8.60605385 11.26316395 11.8961747 22.58848911 15 34 C17.43139418 31.56860582 17.75715003 29.88579448 18.65625 26.58203125 C18.95660156 25.49212891 19.25695312 24.40222656 19.56640625 23.27929688 C19.87449219 22.13525391 20.18257813 20.99121094 20.5 19.8125 C21.1145514 17.56900167 21.72913391 15.32551186 22.34375 13.08203125 C22.77300781 11.50156006 22.77300781 11.50156006 23.2109375 9.88916016 C24.11348033 6.58449063 25.04758597 3.29059048 26 0 C27.98 0 29.96 0 32 0 C32.24121582 0.9429895 32.24121582 0.9429895 32.48730469 1.9050293 C35.42279958 13.35073743 38.37596115 24.75003283 42 36 C42.24121582 35.00371582 42.24121582 35.00371582 42.48730469 33.98730469 C48.40958851 9.63075082 48.40958851 9.63075082 52 0 C53.65 0 55.3 0 57 0 C55.64459813 7.20192488 53.9865545 14.28795671 52.125 21.375 C51.86251465 22.37926025 51.6000293 23.38352051 51.32958984 24.41821289 C49.48601529 31.38151238 47.47463959 38.23113288 45 45 C43.02 45 41.04 45 39 45 C36.56273592 37.86819033 34.402994 30.67785395 32.3125 23.4375 C31.99216797 22.33341797 31.67183594 21.22933594 31.34179688 20.09179688 C30.55960559 17.39498812 29.77904286 14.69771961 29 12 C27.08318896 15.44578483 26.08712167 18.9376816 25.0546875 22.734375 C24.87994904 23.37240051 24.70521057 24.01042603 24.525177 24.66778564 C23.9711777 26.69413997 23.4230119 28.72201918 22.875 30.75 C22.49908265 32.12901119 22.12278468 33.50791867 21.74609375 34.88671875 C20.82631894 38.25662303 19.91176707 41.62791916 19 45 C16.69 45 14.38 45 12 45 C10.28595876 39.07493325 8.57709648 33.14840707 6.87304688 27.22045898 C6.29244326 25.20344593 5.71041875 23.18684132 5.12695312 21.1706543 C4.28923924 18.27498513 3.45662206 15.37789247 2.625 12.48046875 C2.36251465 11.57725388 2.1000293 10.674039 1.82958984 9.74345398 C1.58934082 8.90280899 1.3490918 8.062164 1.1015625 7.19604492 C0.88838379 6.45658127 0.67520508 5.71711761 0.45556641 4.95524597 C0 3 0 3 0 0 Z " fill="#100A06" transform="translate(262,189)"/>
<path d="M0 0 C1.65 0 3.3 0 5 0 C5.33 6.6 5.66 13.2 6 20 C7.32 18.370625 8.64 16.74125 10 15.0625 C10.82113281 14.06734375 11.64226562 13.0721875 12.48828125 12.046875 C14.06533529 10.13380789 15.62763902 8.20838322 17.16796875 6.265625 C17.83441406 5.45609375 18.50085938 4.6465625 19.1875 3.8125 C20.07501953 2.70841797 20.07501953 2.70841797 20.98046875 1.58203125 C23.70979276 -0.55602721 25.62624792 -0.29108752 29 0 C25.47367187 5.7226268 21.08839411 10.23942213 16.33789062 14.96484375 C15.4803418 15.85236328 15.4803418 15.85236328 14.60546875 16.7578125 C14.08106201 17.2852002 13.55665527 17.81258789 13.01635742 18.35595703 C11.79017252 19.96871526 11.79017252 19.96871526 12.19604492 22.03173828 C13.47335147 25.15887019 15.81564221 27.35224574 18.125 29.75 C19.12433231 30.81320615 20.12302916 31.87700995 21.12109375 32.94140625 C21.61077637 33.45977051 22.10045898 33.97813477 22.60498047 34.51220703 C24.50400404 36.53752198 26.35266295 38.6039992 28.1875 40.6875 C28.73792969 41.31011719 29.28835938 41.93273437 29.85546875 42.57421875 C31 44 31 44 31 45 C27.71311651 45.6573767 26.15061206 45.92788408 23 45 C19.48212004 41.72599387 16.81068831 37.88235457 14 34 C12.48876938 32.0965032 10.96860244 30.20004957 9.4375 28.3125 C8.303125 26.889375 7.16875 25.46625 6 24 C5.67 30.93 5.34 37.86 5 45 C3.35 45 1.7 45 0 45 C0 30.15 0 15.3 0 0 Z " fill="#080402" transform="translate(228,189)"/>
<path d="M0 0 C2.6640625 -0.53125 2.6640625 -0.53125 6 0 C8.28999167 2.5475572 9.7861021 5.48061396 11.375 8.5 C12.04982422 9.71623047 12.04982422 9.71623047 12.73828125 10.95703125 C13.84640638 12.96108733 14.93203014 14.97434323 16 17 C18.84532443 13.55797398 21.3268643 10.03930676 23.6875 6.25 C26.90747331 1.09252669 26.90747331 1.09252669 28 0 C29.99958364 -0.04080783 32.00045254 -0.04254356 34 0 C33.56429687 0.67804688 33.12859375 1.35609375 32.6796875 2.0546875 C31.43382715 4.00168137 30.19603181 5.95385129 28.96484375 7.91015625 C27.7156875 9.87453517 26.43971054 11.82230374 25.12890625 13.74609375 C24.57074219 14.59300781 24.01257813 15.43992188 23.4375 16.3125 C22.92058594 17.07175781 22.40367187 17.83101562 21.87109375 18.61328125 C20.58723954 22.13092663 21.43745506 23.61516238 23 27 C24.7677545 30.0118757 26.67792758 32.9141295 28.625 35.8125 C29.63987226 37.33861416 30.65299512 38.86589366 31.6640625 40.39453125 C32.33622803 41.39770386 32.33622803 41.39770386 33.02197266 42.42114258 C34 44 34 44 34 45 C30.8359375 45.52734375 30.8359375 45.52734375 27 45 C24.63416278 42.51009118 23.18518418 39.60267197 21.625 36.5625 C20.7633596 34.98028422 19.90139746 33.39824359 19.0390625 31.81640625 C18.48532959 30.75595093 18.48532959 30.75595093 17.92041016 29.67407227 C17.11158606 28.01860094 17.11158606 28.01860094 16 27 C15.70343506 27.54527344 15.40687012 28.09054688 15.10131836 28.65234375 C13.74039963 31.11764263 12.33994099 33.55810274 10.9375 36 C10.47150391 36.85851562 10.00550781 37.71703125 9.52539062 38.6015625 C8.14890862 40.96124593 6.88626528 43.02156819 5 45 C1.12890625 45.5625 1.12890625 45.5625 -2 45 C-0.97916667 43.39583333 0.04166667 41.79166667 1.0625 40.1875 C2.00609375 38.68896484 2.00609375 38.68896484 2.96875 37.16015625 C4.30554583 35.08041044 5.68004183 33.02434298 7.09375 30.99609375 C8.06828125 29.57490234 8.06828125 29.57490234 9.0625 28.125 C9.67222656 27.26132813 10.28195312 26.39765625 10.91015625 25.5078125 C12.25260307 23.08462115 12.25260307 23.08462115 11.50390625 20.69140625 C9.00261441 16.21506838 6.24000617 11.92393516 3.45703125 7.61914062 C3.01488281 6.92626953 2.57273437 6.23339844 2.1171875 5.51953125 C1.71097168 4.89151611 1.30475586 4.26350098 0.88623047 3.61645508 C0 2 0 2 0 0 Z " fill="#100A07" transform="translate(340,189)"/>
<path d="M0 0 C1.65 0 3.3 0 5 0 C5 14.85 5 29.7 5 45 C3.35 45 1.7 45 0 45 C0 30.15 0 15.3 0 0 Z " fill="#040000" transform="translate(326,189)"/>
<path d="M0 0 C3.53191322 3.43153914 6.7137505 6.97375062 9.8125 10.8125 C10.60269531 11.78832031 11.39289063 12.76414063 12.20703125 13.76953125 C13.09455078 14.87361328 13.09455078 14.87361328 14 16 C12 19 12 19 9 21 C8.34 21 7.68 21 7 21 C6.34 21.66 5.68 22.32 5 23 C5.66 23.33 6.32 23.66 7 24 C6.34 25.32 5.68 26.64 5 28 C5 27.34 5 26.68 5 26 C3.02 26.33 1.04 26.66 -1 27 C-0.83701416 26.28432861 -0.67402832 25.56865723 -0.50610352 24.83129883 C-0.00807929 22.04519803 0.1141835 19.52537792 0.09765625 16.69921875 C0.09282227 15.23452148 0.09282227 15.23452148 0.08789062 13.74023438 C0.07951172 12.73283203 0.07113281 11.72542969 0.0625 10.6875 C0.05573242 9.14739258 0.05573242 9.14739258 0.04882812 7.57617188 C0.03708184 5.05072118 0.02065565 2.52539095 0 0 Z " fill="#F1D9A6" transform="translate(233,212)"/>
<path d="M0 0 C2 3 2 3 1.390625 6.25 C0.82601563 8.10625 0.82601563 8.10625 0.25 10 C-0.11609375 11.2375 -0.4821875 12.475 -0.859375 13.75 C-2 17 -2 17 -4 20 C-5.65 13.73 -7.3 7.46 -9 1 C-6.525 1.495 -6.525 1.495 -4 2 C-1.73142854 1.15922128 -1.73142854 1.15922128 0 0 Z " fill="#F2DAA5" transform="translate(281,206)"/>
<path d="M0 0 C-3.60974447 5.96392565 -8.27956824 10.89628532 -13 16 C-13.99 15.01 -14.98 14.02 -16 13 C-14.50197108 9.66764995 -12.60270777 7.04042084 -10.25 4.25 C-9.59515625 3.45078125 -8.9403125 2.6515625 -8.265625 1.828125 C-5.36745335 -0.51039971 -3.62886321 -0.35251814 0 0 Z " fill="#110D07" transform="translate(257,189)"/>
<path d="M0 0 C0.66 0.33 1.32 0.66 2 1 C1.67 2.65 1.34 4.3 1 6 C2.65 6 4.3 6 6 6 C6.1875 8.375 6.1875 8.375 6 11 C5.01 11.66 4.02 12.32 3 13 C2.01 12.34 1.02 11.68 0 11 C0 10.34 0 9.68 0 9 C-1.98 9.33 -3.96 9.66 -6 10 C-6 10.99 -6 11.98 -6 13 C-6.99 13 -7.98 13 -9 13 C-10.25 6.375 -10.25 6.375 -8 3 C-8 4.32 -8 5.64 -8 7 C-5.69 7 -3.38 7 -1 7 C-0.67 4.69 -0.34 2.38 0 0 Z " fill="#F5D599" transform="translate(282,227)"/>
<path d="M0 0 C1.65 0 3.3 0 5 0 C3.91103333 5.75762166 2.70663707 11.39247819 1 17 C-1.0625 16.0625 -1.0625 16.0625 -3 14 C-3.27358106 9.10384238 -2.12811469 4.3981037 0 0 Z " fill="#0C0604" transform="translate(314,189)"/>
<path d="M0 0 C3.125 0.375 3.125 0.375 6 1 C6 1.66 6 2.32 6 3 C6.66 3 7.32 3 8 3 C8 3.66 8 4.32 8 5 C8.66 5.66 9.32 6.32 10 7 C9.34 7.66 8.68 8.32 8 9 C7.78323592 12.39597063 7.91926148 14.75778445 9 18 C8.01 18.33 7.02 18.66 6 19 C6 14.38 6 9.76 6 5 C3.69 5 1.38 5 -1 5 C-1 5.66 -1 6.32 -1 7 C-1.99 7 -2.98 7 -4 7 C-2.92598892 4.08482708 -2.22189824 2.22189824 0 0 Z " fill="#FAEEC2" transform="translate(228,184)"/>
<path d="M0 0 C1.52593049 2.83202353 2.51690246 5.4936262 3.25 8.625 C3.44078125 9.40101563 3.6315625 10.17703125 3.828125 10.9765625 C3.91320312 11.97816406 3.91320312 11.97816406 4 13 C3.34 13.66 2.68 14.32 2 15 C1.34 14.67 0.68 14.34 0 14 C-0.66 15.32 -1.32 16.64 -2 18 C-2.66 18 -3.32 18 -4 18 C-2.83445193 11.9490696 -1.54656904 5.96533774 0 0 Z " fill="#D8C3A0" transform="translate(290,197)"/>
<path d="M0 0 C2.91622848 2.91622848 2 6.03964693 2 10 C1.34 9.67 0.68 9.34 0 9 C-0.33 9.99 -0.66 10.98 -1 12 C-2.65 12.33 -4.3 12.66 -6 13 C-4.66666667 9 -3.33333333 5 -2 1 C-1.34 0.67 -0.68 0.34 0 0 Z " fill="#FCDBA1" transform="translate(310,227)"/>
<path d="M0 0 C0.99 0.66 1.98 1.32 3 2 C3.53625 1.649375 4.0725 1.29875 4.625 0.9375 C7.73274763 -0.28924249 9.79431703 0.27143569 13 1 C12.34 2.32 11.68 3.64 11 5 C8.03 5 5.06 5 2 5 C1.67 5.99 1.34 6.98 1 8 C0.01 6.68 -0.98 5.36 -2 4 C-1.34 2.68 -0.68 1.36 0 0 Z " fill="#FBE6BE" transform="translate(337,184)"/>
<path d="M0 0 C1.9375 0.75 1.9375 0.75 4 2 C4.75 4.125 4.75 4.125 5 6 C6.65 6 8.3 6 10 6 C10 7.32 10 8.64 10 10 C9.34 10 8.68 10 8 10 C7.67 10.66 7.34 11.32 7 12 C6.67 11.01 6.34 10.02 6 9 C5.34 8.67 4.68 8.34 4 8 C4 7.34 4 6.68 4 6 C2.68 5.67 1.36 5.34 0 5 C0 3.35 0 1.7 0 0 Z " fill="#F1DAC1" transform="translate(362,228)"/>
<path d="M0 0 C0.12375 0.639375 0.2475 1.27875 0.375 1.9375 C0.684375 2.9584375 0.684375 2.9584375 1 4 C1.66 4.33 2.32 4.66 3 5 C2.54625 5.433125 2.0925 5.86625 1.625 6.3125 C-0.20024334 8.10798342 -0.20024334 8.10798342 -2 11 C-3.5625 9.75 -3.5625 9.75 -5 8 C-4.90311287 4.99649894 -3.98152289 3.97984316 -1.9375 1.75 C-1.298125 1.1725 -0.65875 0.595 0 0 Z " fill="#ECDCAE" transform="translate(244,204)"/>
<path d="M0 0 C0.66 0.66 1.32 1.32 2 2 C2.99 1.34 3.98 0.68 5 0 C5.66 2.31 6.32 4.62 7 7 C6.34 7 5.68 7 5 7 C4.67 6.34 4.34 5.68 4 5 C1.41394668 4.5316735 1.41394668 4.5316735 -1.5625 4.375 C-2.57441406 4.30023438 -3.58632812 4.22546875 -4.62890625 4.1484375 C-5.80259766 4.07496094 -5.80259766 4.07496094 -7 4 C-6.34 3.01 -5.68 2.02 -5 1 C-4.34 1 -3.68 1 -3 1 C-2.01 0.67 -1.02 0.34 0 0 Z " fill="#FAEBBB" transform="translate(255,185)"/>
<path d="M0 0 C0.66 0 1.32 0 2 0 C3.20577428 4.94367454 2.6290678 8.20862412 1 13 C0.67 13 0.34 13 0 13 C-0.39036513 11.39950296 -0.76178619 9.79437629 -1.125 8.1875 C-1.33382813 7.29417969 -1.54265625 6.40085938 -1.7578125 5.48046875 C-2 3 -2 3 0 0 Z " fill="#E4D0A5" transform="translate(303,214)"/>
<path d="M0 0 C1.42944945 2.35438733 2.08661261 3.48032433 1.625 6.25 C1.41875 6.8275 1.2125 7.405 1 8 C-0.32 8.33 -1.64 8.66 -3 9 C-3.66 7.68 -4.32 6.36 -5 5 C-3.35 3.35 -1.7 1.7 0 0 Z " fill="#050104" transform="translate(280,224)"/>
<path d="M0 0 C1.65 1.65 3.3 3.3 5 5 C4.34 6.65 3.68 8.3 3 10 C2.67 9.01 2.34 8.02 2 7 C-0.50447516 5.78130071 -0.50447516 5.78130071 -3 5 C-3 4.34 -3 3.68 -3 3 C-2.01 3 -1.02 3 0 3 C0 2.01 0 1.02 0 0 Z M0 4 C0.33 4.66 0.66 5.32 1 6 C1.33 5.34 1.66 4.68 2 4 C1.34 4 0.68 4 0 4 Z " fill="#F0D9B8" transform="translate(348,205)"/>
<path d="M0 0 C0.08333357 4.8333472 -0.04738513 9.23692563 -1 14 C-2.51171875 12.8203125 -2.51171875 12.8203125 -4 11 C-4.14453125 8.5546875 -4.14453125 8.5546875 -3.8125 5.875 C-3.71582031 4.98554688 -3.61914062 4.09609375 -3.51953125 3.1796875 C-3.34808594 2.46039063 -3.17664063 1.74109375 -3 1 C-1 0 -1 0 0 0 Z " fill="#FDE2AF" transform="translate(320,197)"/>
<path d="M0 0 C1.74627478 2.61941217 2.38722388 4.03824877 3 7 C2.01 7.33 1.02 7.66 0 8 C0.33 8.99 0.66 9.98 1 11 C0.34 11 -0.32 11 -1 11 C-1.66 8.03 -2.32 5.06 -3 2 C-2.01 2 -1.02 2 0 2 C0 1.34 0 0.68 0 0 Z " fill="#EDD7A9" transform="translate(298,193)"/>
<path d="M0 0 C2.31 0.66 4.62 1.32 7 2 C7 2.66 7 3.32 7 4 C6.34 4 5.68 4 5 4 C5 4.66 5 5.32 5 6 C4.34 6 3.68 6 3 6 C2.67 5.34 2.34 4.68 2 4 C1.01 4.66 0.02 5.32 -1 6 C-0.67 4.02 -0.34 2.04 0 0 Z " fill="#FADE9C" transform="translate(250,234)"/>
<path d="M0 0 C0.33 0.99 0.66 1.98 1 3 C3.31 2.34 5.62 1.68 8 1 C8.33 2.32 8.66 3.64 9 5 C6.36 5 3.72 5 1 5 C0.34 3.68 -0.32 2.36 -1 1 C-0.67 0.67 -0.34 0.34 0 0 Z " fill="#FAE7C8" transform="translate(366,184)"/>
<path d="M0 0 C2.97 0.495 2.97 0.495 6 1 C5.67 2.65 5.34 4.3 5 6 C2.69 5.67 0.38 5.34 -2 5 C-1.34 3.35 -0.68 1.7 0 0 Z " fill="#FBE9BA" transform="translate(265,184)"/>
<path d="M0 0 C1.32 0 2.64 0 4 0 C4 0.99 4 1.98 4 3 C3.34 3 2.68 3 2 3 C1.34 4.32 0.68 5.64 0 7 C-0.66 7 -1.32 7 -2 7 C-1.125 1.125 -1.125 1.125 0 0 Z " fill="#EBD4A1" transform="translate(288,208)"/>
<path d="M0 0 C0.433125 0.474375 0.86625 0.94875 1.3125 1.4375 C3.02309613 3.23686957 3.02309613 3.23686957 6 4 C6 4.66 6 5.32 6 6 C5.34 6 4.68 6 4 6 C3.67 6.66 3.34 7.32 3 8 C0.9375 6.25 0.9375 6.25 -1 4 C-0.75 1.75 -0.75 1.75 0 0 Z " fill="#EED8A6" transform="translate(246,215)"/>
<path d="M0 0 C1.32 0.99 2.64 1.98 4 3 C3.67 4.32 3.34 5.64 3 7 C2.34 6.67 1.68 6.34 1 6 C0.67 6.99 0.34 7.98 0 9 C0 6.03 0 3.06 0 0 Z " fill="#F5E5BA" transform="translate(234,214)"/>
<path d="M0 0 C0.99 0.33 1.98 0.66 3 1 C0.69 3.64 -1.62 6.28 -4 9 C-4.33 8.01 -4.66 7.02 -5 6 C-4.67 5.34 -4.34 4.68 -4 4 C-3.34 4 -2.68 4 -2 4 C-1.34 2.68 -0.68 1.36 0 0 Z " fill="#E7DAB4" transform="translate(248,189)"/>
<path d="M0 0 C0.66 0.66 1.32 1.32 2 2 C1.625 4.125 1.625 4.125 1 6 C0.34 6 -0.32 6 -1 6 C-1.33 6.66 -1.66 7.32 -2 8 C-2.93423645 4.98968256 -3.04449911 4.13349732 -2 1 C-1.34 0.67 -0.68 0.34 0 0 Z " fill="#E7CD9C" transform="translate(310,227)"/>
<path d="M0 0 C1.32 0.33 2.64 0.66 4 1 C1.525 4.465 1.525 4.465 -1 8 C-2 4 -2 4 -1.0625 1.75 C-0.711875 1.1725 -0.36125 0.595 0 0 Z " fill="#EBD6B9" transform="translate(346,216)"/>
<path d="M0 0 C0 3.60777515 -0.9904432 5.06295544 -3 8 C-3.99 8.495 -3.99 8.495 -5 9 C-5.33 8.01 -5.66 7.02 -6 6 C-4.02 4.02 -2.04 2.04 0 0 Z " fill="#E5D5A9" transform="translate(253,194)"/>
<path d="M0 0 C1.98 0 3.96 0 6 0 C6 1.32 6 2.64 6 4 C5.34 4 4.68 4 4 4 C3.67 4.66 3.34 5.32 3 6 C2.67 5.01 2.34 4.02 2 3 C1.34 2.67 0.68 2.34 0 2 C0 1.34 0 0.68 0 0 Z " fill="#F8E2C6" transform="translate(366,234)"/>
<path d="M0 0 C1.125 1.75 1.125 1.75 2 4 C1.125 6.25 1.125 6.25 0 8 C-0.99 7.34 -1.98 6.68 -3 6 C-2.67 4.68 -2.34 3.36 -2 2 C-1.34 2 -0.68 2 0 2 C0 1.34 0 0.68 0 0 Z " fill="#EACF97" transform="translate(299,229)"/>
<path d="M0 0 C1.65 1.65 3.3 3.3 5 5 C2.36 5 -0.28 5 -3 5 C-3 4.34 -3 3.68 -3 3 C-2.01 2.67 -1.02 2.34 0 2 C0 1.34 0 0.68 0 0 Z " fill="#1E1006" transform="translate(254,229)"/>
<path d="M0 0 C0.99 0.33 1.98 0.66 3 1 C3.33 2.98 3.66 4.96 4 7 C3.01 7 2.02 7 1 7 C0.34 6.01 -0.32 5.02 -1 4 C-0.34 4 0.32 4 1 4 C0.67 2.68 0.34 1.36 0 0 Z " fill="#EAD49D" transform="translate(253,222)"/>
<path d="M0 0 C0.66 1.32 1.32 2.64 2 4 C1.34 4 0.68 4 0 4 C-0.33 4.99 -0.66 5.98 -1 7 C-1.99 6.67 -2.98 6.34 -4 6 C-2.68 4.02 -1.36 2.04 0 0 Z " fill="#E4D1B6" transform="translate(356,215)"/>
<path d="M0 0 C2.12508244 3.18762365 2.5020163 5.26512223 3 9 C2.34 9 1.68 9 1 9 C-0.61949011 6.42786866 -1.04408751 5.32330841 -0.625 2.25 C-0.41875 1.5075 -0.2125 0.765 0 0 Z " fill="#DAC594" transform="translate(270,220)"/>
<path d="M0 0 C0.66 0.33 1.32 0.66 2 1 C1.50168276 4.68754757 0.89932357 6.60490662 -2 9 C-2 5.61976483 -1.12544378 3.16531063 0 0 Z " fill="#E7D4B6" transform="translate(361,194)"/>
<path d="M0 0 C2 4 2 4 1.125 6.75 C0.75375 7.4925 0.3825 8.235 0 9 C-0.66 9 -1.32 9 -2 9 C-1.34 6.03 -0.68 3.06 0 0 Z " fill="#D7C191" transform="translate(285,216)"/>
</svg>
