<?xml version="1.0" encoding="UTF-8"?>
<!DOCTYPE svg PUBLIC "-//W3C//DTD SVG 1.1//EN" "http://www.w3.org/Graphics/SVG/1.1/DTD/svg11.dtd">
<svg xmlns="http://www.w3.org/2000/svg" version="1.1" width="360px" height="360px" style="shape-rendering:geometricPrecision; text-rendering:geometricPrecision; image-rendering:optimizeQuality; fill-rule:evenodd; clip-rule:evenodd" xmlns:xlink="http://www.w3.org/1999/xlink">
<g><path style="opacity:1" fill="#b6b6b6" d="M -0.5,-0.5 C 73.8333,-0.5 148.167,-0.5 222.5,-0.5C 222.5,-0.166667 222.5,0.166667 222.5,0.5C 213.167,0.5 203.833,0.5 194.5,0.5C 185.167,0.5 175.833,0.5 166.5,0.5C 157.167,0.5 147.833,0.5 138.5,0.5C 129.167,0.5 119.833,0.5 110.5,0.5C 101.167,0.5 91.8333,0.5 82.5,0.5C 73.1667,0.5 63.8333,0.5 54.5,0.5C 45.1667,0.5 35.8333,0.5 26.5,0.5C 17.8333,0.5 9.16667,0.5 0.5,0.5C 0.5,9.5 0.5,18.5 0.5,27.5C 0.5,36.8333 0.5,46.1667 0.5,55.5C 0.5,64.8333 0.5,74.1667 0.5,83.5C 0.5,92.8333 0.5,102.167 0.5,111.5C 0.5,120.833 0.5,130.167 0.5,139.5C 0.5,148.833 0.5,158.167 0.5,167.5C 0.5,176.833 0.5,186.167 0.5,195.5C 0.5,204.833 0.5,214.167 0.5,223.5C 0.5,232.833 0.5,242.167 0.5,251.5C 0.5,260.833 0.5,270.167 0.5,279.5C 0.5,288.833 0.5,298.167 0.5,307.5C 0.5,316.833 0.5,326.167 0.5,335.5C 0.5,343.167 0.5,350.833 0.5,358.5C 10.8333,358.5 21.1667,358.5 31.5,358.5C 39.1667,358.5 46.8333,358.5 54.5,358.5C 63.8333,358.5 73.1667,358.5 82.5,358.5C 91.8333,358.5 101.167,358.5 110.5,358.5C 119.833,358.5 129.167,358.5 138.5,358.5C 147.833,358.5 157.167,358.5 166.5,358.5C 175.833,358.5 185.167,358.5 194.5,358.5C 203.833,358.5 213.167,358.5 222.5,358.5C 231.833,358.5 241.167,358.5 250.5,358.5C 259.833,358.5 269.167,358.5 278.5,358.5C 287.833,358.5 297.167,358.5 306.5,358.5C 315.833,358.5 325.167,358.5 334.5,358.5C 334.5,358.833 334.5,359.167 334.5,359.5C 222.833,359.5 111.167,359.5 -0.5,359.5C -0.5,239.5 -0.5,119.5 -0.5,-0.5 Z"/></g>
<g><path style="opacity:1" fill="#b5b5b5" d="M 222.5,0.5 C 222.5,0.166667 222.5,-0.166667 222.5,-0.5C 268.167,-0.5 313.833,-0.5 359.5,-0.5C 359.5,119.5 359.5,239.5 359.5,359.5C 351.167,359.5 342.833,359.5 334.5,359.5C 334.5,359.167 334.5,358.833 334.5,358.5C 342.5,358.5 350.5,358.5 358.5,358.5C 358.5,350.833 358.5,343.167 358.5,335.5C 358.5,326.167 358.5,316.833 358.5,307.5C 358.5,298.167 358.5,288.833 358.5,279.5C 358.5,270.167 358.5,260.833 358.5,251.5C 358.5,242.167 358.5,232.833 358.5,223.5C 358.5,214.167 358.5,204.833 358.5,195.5C 358.5,186.167 358.5,176.833 358.5,167.5C 358.5,158.167 358.5,148.833 358.5,139.5C 358.5,130.167 358.5,120.833 358.5,111.5C 358.5,102.167 358.5,92.8333 358.5,83.5C 358.5,74.1667 358.5,64.8333 358.5,55.5C 358.5,46.1667 358.5,36.8333 358.5,27.5C 358.5,18.5 358.5,9.5 358.5,0.5C 350.5,0.5 342.5,0.5 334.5,0.5C 325.167,0.5 315.833,0.5 306.5,0.5C 297.167,0.5 287.833,0.5 278.5,0.5C 269.167,0.5 259.833,0.5 250.5,0.5C 241.167,0.5 231.833,0.5 222.5,0.5 Z"/></g>
<g><path style="opacity:1" fill="#fefefe" d="M 26.5,0.5 C 35.8333,0.5 45.1667,0.5 54.5,0.5C 54.6664,9.17307 54.4998,17.8397 54,26.5C 44.8339,27.1795 35.6673,27.8461 26.5,28.5C 26.5,28.1667 26.5,27.8333 26.5,27.5C 26.5,18.5 26.5,9.5 26.5,0.5 Z"/></g>
<g><path style="opacity:1" fill="#fefefe" d="M 82.5,0.5 C 91.8333,0.5 101.167,0.5 110.5,0.5C 110.49,9.01161 110.323,17.6783 110,26.5C 100.834,27.1795 91.6673,27.8461 82.5,28.5C 82.5,28.1667 82.5,27.8333 82.5,27.5C 82.5,18.5 82.5,9.5 82.5,0.5 Z"/></g>
<g><path style="opacity:1" fill="#fefefe" d="M 138.5,0.5 C 147.833,0.5 157.167,0.5 166.5,0.5C 166.666,9.17307 166.5,17.8397 166,26.5C 156.834,27.1795 147.667,27.8461 138.5,28.5C 138.5,28.1667 138.5,27.8333 138.5,27.5C 138.5,18.5 138.5,9.5 138.5,0.5 Z"/></g>
<g><path style="opacity:1" fill="#fefefe" d="M 194.5,0.5 C 203.833,0.5 213.167,0.5 222.5,0.5C 222.49,9.01161 222.323,17.6783 222,26.5C 212.834,27.1795 203.667,27.8461 194.5,28.5C 194.5,28.1667 194.5,27.8333 194.5,27.5C 194.5,18.5 194.5,9.5 194.5,0.5 Z"/></g>
<g><path style="opacity:1" fill="#fefefe" d="M 250.5,0.5 C 259.833,0.5 269.167,0.5 278.5,0.5C 278.666,9.17307 278.5,17.8397 278,26.5C 268.834,27.1795 259.667,27.8461 250.5,28.5C 250.5,28.1667 250.5,27.8333 250.5,27.5C 250.5,18.5 250.5,9.5 250.5,0.5 Z"/></g>
<g><path style="opacity:1" fill="#fefefe" d="M 306.5,0.5 C 315.833,0.5 325.167,0.5 334.5,0.5C 334.49,9.01161 334.323,17.6783 334,26.5C 324.834,27.1795 315.667,27.8461 306.5,28.5C 306.5,28.1667 306.5,27.8333 306.5,27.5C 306.5,18.5 306.5,9.5 306.5,0.5 Z"/></g>
<g><path style="opacity:1" fill="#eeeeee" d="M 54.5,0.5 C 63.8333,0.5 73.1667,0.5 82.5,0.5C 82.5,9.5 82.5,18.5 82.5,27.5C 73.1667,27.5 63.8333,27.5 54.5,27.5C 54.5,36.8333 54.5,46.1667 54.5,55.5C 52.8333,55.5 51.1667,55.5 49.5,55.5C 49.8315,46.4754 49.4982,37.4754 48.5,28.5C 42.1898,29.1297 35.8565,29.7963 29.5,30.5C 30.4699,38.778 30.8032,47.1114 30.5,55.5C 29.1667,55.5 27.8333,55.5 26.5,55.5C 26.5,46.5 26.5,37.5 26.5,28.5C 35.6673,27.8461 44.8339,27.1795 54,26.5C 54.4998,17.8397 54.6664,9.17307 54.5,0.5 Z"/></g>
<g><path style="opacity:1" fill="#eeeeee" d="M 166.5,0.5 C 175.833,0.5 185.167,0.5 194.5,0.5C 194.5,9.5 194.5,18.5 194.5,27.5C 185.167,27.5 175.833,27.5 166.5,27.5C 166.5,36.8333 166.5,46.1667 166.5,55.5C 164.833,55.5 163.167,55.5 161.5,55.5C 161.832,46.4754 161.498,37.4754 160.5,28.5C 154.19,29.1297 147.856,29.7963 141.5,30.5C 142.47,38.778 142.803,47.1114 142.5,55.5C 141.167,55.5 139.833,55.5 138.5,55.5C 138.5,46.5 138.5,37.5 138.5,28.5C 147.667,27.8461 156.834,27.1795 166,26.5C 166.5,17.8397 166.666,9.17307 166.5,0.5 Z"/></g>
<g><path style="opacity:1" fill="#eeeeee" d="M 278.5,0.5 C 287.833,0.5 297.167,0.5 306.5,0.5C 306.5,9.5 306.5,18.5 306.5,27.5C 297.167,27.5 287.833,27.5 278.5,27.5C 278.5,36.8333 278.5,46.1667 278.5,55.5C 276.833,55.5 275.167,55.5 273.5,55.5C 273.832,46.4754 273.498,37.4754 272.5,28.5C 266.19,29.1297 259.856,29.7963 253.5,30.5C 254.47,38.778 254.803,47.1114 254.5,55.5C 253.167,55.5 251.833,55.5 250.5,55.5C 250.5,46.5 250.5,37.5 250.5,28.5C 259.667,27.8461 268.834,27.1795 278,26.5C 278.5,17.8397 278.666,9.17307 278.5,0.5 Z"/></g>
<g><path style="opacity:1" fill="#eeeeee" d="M 26.5,0.5 C 26.5,9.5 26.5,18.5 26.5,27.5C 17.8333,27.5 9.16667,27.5 0.5,27.5C 0.5,18.5 0.5,9.5 0.5,0.5C 9.16667,0.5 17.8333,0.5 26.5,0.5 Z"/></g>
<g><path style="opacity:1" fill="#eeeeee" d="M 110.5,0.5 C 119.833,0.5 129.167,0.5 138.5,0.5C 138.5,9.5 138.5,18.5 138.5,27.5C 129.167,27.5 119.833,27.5 110.5,27.5C 110.5,36.8333 110.5,46.1667 110.5,55.5C 108.833,55.5 107.167,55.5 105.5,55.5C 105.832,46.4754 105.498,37.4754 104.5,28.5C 98.1898,29.1297 91.8565,29.7963 85.5,30.5C 86.4699,38.778 86.8032,47.1114 86.5,55.5C 85.1667,55.5 83.8333,55.5 82.5,55.5C 82.5,46.5 82.5,37.5 82.5,28.5C 91.6673,27.8461 100.834,27.1795 110,26.5C 110.323,17.6783 110.49,9.01161 110.5,0.5 Z"/></g>
<g><path style="opacity:1" fill="#eeeeee" d="M 222.5,0.5 C 231.833,0.5 241.167,0.5 250.5,0.5C 250.5,9.5 250.5,18.5 250.5,27.5C 241.167,27.5 231.833,27.5 222.5,27.5C 222.5,36.8333 222.5,46.1667 222.5,55.5C 220.833,55.5 219.167,55.5 217.5,55.5C 217.832,46.4754 217.498,37.4754 216.5,28.5C 210.19,29.1297 203.856,29.7963 197.5,30.5C 198.47,38.778 198.803,47.1114 198.5,55.5C 197.167,55.5 195.833,55.5 194.5,55.5C 194.5,46.5 194.5,37.5 194.5,28.5C 203.667,27.8461 212.834,27.1795 222,26.5C 222.323,17.6783 222.49,9.01161 222.5,0.5 Z"/></g>
<g><path style="opacity:1" fill="#eeeeee" d="M 334.5,0.5 C 342.5,0.5 350.5,0.5 358.5,0.5C 358.5,9.5 358.5,18.5 358.5,27.5C 350.5,27.5 342.5,27.5 334.5,27.5C 334.5,36.8333 334.5,46.1667 334.5,55.5C 332.833,55.5 331.167,55.5 329.5,55.5C 329.832,46.4754 329.498,37.4754 328.5,28.5C 322.19,29.1297 315.856,29.7963 309.5,30.5C 310.47,38.778 310.803,47.1114 310.5,55.5C 309.167,55.5 307.833,55.5 306.5,55.5C 306.5,46.5 306.5,37.5 306.5,28.5C 315.667,27.8461 324.834,27.1795 334,26.5C 334.323,17.6783 334.49,9.01161 334.5,0.5 Z"/></g>
<g><path style="opacity:1" fill="#fefefe" d="M 0.5,27.5 C 9.16667,27.5 17.8333,27.5 26.5,27.5C 26.5,27.8333 26.5,28.1667 26.5,28.5C 26.5,37.5 26.5,46.5 26.5,55.5C 17.8333,55.5 9.16667,55.5 0.5,55.5C 0.5,46.1667 0.5,36.8333 0.5,27.5 Z"/></g>
<g><path style="opacity:1" fill="#fefefe" d="M 82.5,27.5 C 82.5,27.8333 82.5,28.1667 82.5,28.5C 82.5,37.5 82.5,46.5 82.5,55.5C 73.1667,55.5 63.8333,55.5 54.5,55.5C 54.5,46.1667 54.5,36.8333 54.5,27.5C 63.8333,27.5 73.1667,27.5 82.5,27.5 Z"/></g>
<g><path style="opacity:1" fill="#fefefe" d="M 138.5,27.5 C 138.5,27.8333 138.5,28.1667 138.5,28.5C 138.5,37.5 138.5,46.5 138.5,55.5C 129.167,55.5 119.833,55.5 110.5,55.5C 110.5,46.1667 110.5,36.8333 110.5,27.5C 119.833,27.5 129.167,27.5 138.5,27.5 Z"/></g>
<g><path style="opacity:1" fill="#fefefe" d="M 194.5,27.5 C 194.5,27.8333 194.5,28.1667 194.5,28.5C 194.5,37.5 194.5,46.5 194.5,55.5C 185.167,55.5 175.833,55.5 166.5,55.5C 166.5,46.1667 166.5,36.8333 166.5,27.5C 175.833,27.5 185.167,27.5 194.5,27.5 Z"/></g>
<g><path style="opacity:1" fill="#fefefe" d="M 250.5,27.5 C 250.5,27.8333 250.5,28.1667 250.5,28.5C 250.5,37.5 250.5,46.5 250.5,55.5C 241.167,55.5 231.833,55.5 222.5,55.5C 222.5,46.1667 222.5,36.8333 222.5,27.5C 231.833,27.5 241.167,27.5 250.5,27.5 Z"/></g>
<g><path style="opacity:1" fill="#fefefe" d="M 306.5,27.5 C 306.5,27.8333 306.5,28.1667 306.5,28.5C 306.5,37.5 306.5,46.5 306.5,55.5C 297.167,55.5 287.833,55.5 278.5,55.5C 278.5,46.1667 278.5,36.8333 278.5,27.5C 287.833,27.5 297.167,27.5 306.5,27.5 Z"/></g>
<g><path style="opacity:1" fill="#fefefe" d="M 358.5,27.5 C 358.5,36.8333 358.5,46.1667 358.5,55.5C 350.5,55.5 342.5,55.5 334.5,55.5C 334.5,46.1667 334.5,36.8333 334.5,27.5C 342.5,27.5 350.5,27.5 358.5,27.5 Z"/></g>
<g><path style="opacity:1" fill="#ededed" d="M 49.5,55.5 C 43.1667,55.5 36.8333,55.5 30.5,55.5C 30.8032,47.1114 30.4699,38.778 29.5,30.5C 35.8565,29.7963 42.1898,29.1297 48.5,28.5C 49.4982,37.4754 49.8315,46.4754 49.5,55.5 Z"/></g>
<g><path style="opacity:1" fill="#ededed" d="M 105.5,55.5 C 99.1667,55.5 92.8333,55.5 86.5,55.5C 86.8032,47.1114 86.4699,38.778 85.5,30.5C 91.8565,29.7963 98.1898,29.1297 104.5,28.5C 105.498,37.4754 105.832,46.4754 105.5,55.5 Z"/></g>
<g><path style="opacity:1" fill="#ededed" d="M 161.5,55.5 C 155.167,55.5 148.833,55.5 142.5,55.5C 142.803,47.1114 142.47,38.778 141.5,30.5C 147.856,29.7963 154.19,29.1297 160.5,28.5C 161.498,37.4754 161.832,46.4754 161.5,55.5 Z"/></g>
<g><path style="opacity:1" fill="#ededed" d="M 217.5,55.5 C 211.167,55.5 204.833,55.5 198.5,55.5C 198.803,47.1114 198.47,38.778 197.5,30.5C 203.856,29.7963 210.19,29.1297 216.5,28.5C 217.498,37.4754 217.832,46.4754 217.5,55.5 Z"/></g>
<g><path style="opacity:1" fill="#ededed" d="M 273.5,55.5 C 267.167,55.5 260.833,55.5 254.5,55.5C 254.803,47.1114 254.47,38.778 253.5,30.5C 259.856,29.7963 266.19,29.1297 272.5,28.5C 273.498,37.4754 273.832,46.4754 273.5,55.5 Z"/></g>
<g><path style="opacity:1" fill="#ededed" d="M 329.5,55.5 C 323.167,55.5 316.833,55.5 310.5,55.5C 310.803,47.1114 310.47,38.778 309.5,30.5C 315.856,29.7963 322.19,29.1297 328.5,28.5C 329.498,37.4754 329.832,46.4754 329.5,55.5 Z"/></g>
<g><path style="opacity:1" fill="#eeeeee" d="M 0.5,55.5 C 9.16667,55.5 17.8333,55.5 26.5,55.5C 26.5,64.5 26.5,73.5 26.5,82.5C 18.0161,83.493 9.34945,83.8264 0.5,83.5C 0.5,74.1667 0.5,64.8333 0.5,55.5 Z"/></g>
<g><path style="opacity:1" fill="#fefefe" d="M 26.5,55.5 C 27.8333,55.5 29.1667,55.5 30.5,55.5C 36.8333,55.5 43.1667,55.5 49.5,55.5C 51.1667,55.5 52.8333,55.5 54.5,55.5C 54.6664,64.5062 54.4998,73.5062 54,82.5C 45.2511,83.4839 36.4178,83.8172 27.5,83.5C 27.5,82.8333 27.1667,82.5 26.5,82.5C 26.5,73.5 26.5,64.5 26.5,55.5 Z"/></g>
<g><path style="opacity:1" fill="#eeeeee" d="M 54.5,55.5 C 63.8333,55.5 73.1667,55.5 82.5,55.5C 82.5,64.8333 82.5,74.1667 82.5,83.5C 73.1667,83.5 63.8333,83.5 54.5,83.5C 54.5,92.8333 54.5,102.167 54.5,111.5C 52.8333,111.5 51.1667,111.5 49.5,111.5C 49.8315,102.475 49.4982,93.4754 48.5,84.5C 42.1898,85.1297 35.8565,85.7963 29.5,86.5C 30.4699,94.778 30.8032,103.111 30.5,111.5C 29.1667,111.5 27.8333,111.5 26.5,111.5C 26.1945,102.083 26.5279,92.75 27.5,83.5C 36.4178,83.8172 45.2511,83.4839 54,82.5C 54.4998,73.5062 54.6664,64.5062 54.5,55.5 Z"/></g>
<g><path style="opacity:1" fill="#fefefe" d="M 82.5,55.5 C 83.8333,55.5 85.1667,55.5 86.5,55.5C 92.8333,55.5 99.1667,55.5 105.5,55.5C 107.167,55.5 108.833,55.5 110.5,55.5C 110.5,64.5 110.5,73.5 110.5,82.5C 101.167,83.1667 91.8333,83.8333 82.5,84.5C 82.5,84.1667 82.5,83.8333 82.5,83.5C 82.5,74.1667 82.5,64.8333 82.5,55.5 Z"/></g>
<g><path style="opacity:1" fill="#eeedee" d="M 110.5,55.5 C 119.833,55.5 129.167,55.5 138.5,55.5C 138.5,64.5 138.5,73.5 138.5,82.5C 129.348,83.4936 120.015,83.8269 110.5,83.5C 110.5,83.1667 110.5,82.8333 110.5,82.5C 110.5,73.5 110.5,64.5 110.5,55.5 Z"/></g>
<g><path style="opacity:1" fill="#fefefe" d="M 138.5,55.5 C 139.833,55.5 141.167,55.5 142.5,55.5C 148.833,55.5 155.167,55.5 161.5,55.5C 163.167,55.5 164.833,55.5 166.5,55.5C 166.182,64.7506 166.515,73.9172 167.5,83C 158.148,82.6386 148.814,82.8053 139.5,83.5C 139.5,82.8333 139.167,82.5 138.5,82.5C 138.5,73.5 138.5,64.5 138.5,55.5 Z"/></g>
<g><path style="opacity:1" fill="#eeeeef" d="M 166.5,55.5 C 175.833,55.5 185.167,55.5 194.5,55.5C 194.5,64.5 194.5,73.5 194.5,82.5C 191.201,81.6239 187.868,81.4572 184.5,82C 183.833,82.6667 183.167,83.3333 182.5,84C 185.553,84.1786 188.553,84.6786 191.5,85.5C 190.5,85.8333 189.5,86.1667 188.5,86.5C 178.679,85.2317 169.013,85.2317 159.5,86.5C 154.804,86.9033 150.137,87.57 145.5,88.5C 143.513,90.3274 141.179,91.3274 138.5,91.5C 138.119,90.0689 137.119,89.2355 135.5,89C 136.448,88.5172 137.448,88.3505 138.5,88.5C 138.366,86.7085 138.699,85.0418 139.5,83.5C 148.814,82.8053 158.148,82.6386 167.5,83C 166.515,73.9172 166.182,64.7506 166.5,55.5 Z"/></g>
<g><path style="opacity:1" fill="#fefefe" d="M 194.5,55.5 C 195.833,55.5 197.167,55.5 198.5,55.5C 204.833,55.5 211.167,55.5 217.5,55.5C 219.167,55.5 220.833,55.5 222.5,55.5C 222.666,64.5062 222.5,73.5062 222,82.5C 213.251,83.4839 204.418,83.8172 195.5,83.5C 195.5,82.8333 195.167,82.5 194.5,82.5C 194.5,73.5 194.5,64.5 194.5,55.5 Z"/></g>
<g><path style="opacity:1" fill="#edeeee" d="M 222.5,55.5 C 231.833,55.5 241.167,55.5 250.5,55.5C 250.5,64.5 250.5,73.5 250.5,82.5C 241.348,83.4936 232.015,83.8269 222.5,83.5C 222.935,91.21 222.935,98.5434 222.5,105.5C 218.754,102.415 214.754,99.7485 210.5,97.5C 207.5,95.5 204.5,93.5 201.5,91.5C 199.824,89.1663 197.491,88.1663 194.5,88.5C 194.366,86.7085 194.699,85.0418 195.5,83.5C 204.418,83.8172 213.251,83.4839 222,82.5C 222.5,73.5062 222.666,64.5062 222.5,55.5 Z"/></g>
<g><path style="opacity:1" fill="#fefefe" d="M 250.5,55.5 C 251.833,55.5 253.167,55.5 254.5,55.5C 260.833,55.5 267.167,55.5 273.5,55.5C 275.167,55.5 276.833,55.5 278.5,55.5C 278.666,64.5062 278.5,73.5062 278,82.5C 269.251,83.4839 260.418,83.8172 251.5,83.5C 251.5,82.8333 251.167,82.5 250.5,82.5C 250.5,73.5 250.5,64.5 250.5,55.5 Z"/></g>
<g><path style="opacity:1" fill="#eeeeee" d="M 278.5,55.5 C 287.833,55.5 297.167,55.5 306.5,55.5C 306.5,64.8333 306.5,74.1667 306.5,83.5C 297.167,83.5 287.833,83.5 278.5,83.5C 278.5,92.8333 278.5,102.167 278.5,111.5C 276.833,111.5 275.167,111.5 273.5,111.5C 273.832,102.475 273.498,93.4754 272.5,84.5C 266.19,85.1297 259.856,85.7963 253.5,86.5C 254.47,94.778 254.803,103.111 254.5,111.5C 253.167,111.5 251.833,111.5 250.5,111.5C 250.195,102.083 250.528,92.75 251.5,83.5C 260.418,83.8172 269.251,83.4839 278,82.5C 278.5,73.5062 278.666,64.5062 278.5,55.5 Z"/></g>
<g><path style="opacity:1" fill="#fefefe" d="M 306.5,55.5 C 307.833,55.5 309.167,55.5 310.5,55.5C 316.833,55.5 323.167,55.5 329.5,55.5C 331.167,55.5 332.833,55.5 334.5,55.5C 334.666,64.5062 334.5,73.5062 334,82.5C 324.834,83.1795 315.667,83.8461 306.5,84.5C 306.5,84.1667 306.5,83.8333 306.5,83.5C 306.5,74.1667 306.5,64.8333 306.5,55.5 Z"/></g>
<g><path style="opacity:1" fill="#eeeeee" d="M 334.5,55.5 C 342.5,55.5 350.5,55.5 358.5,55.5C 358.5,64.8333 358.5,74.1667 358.5,83.5C 350.5,83.5 342.5,83.5 334.5,83.5C 334.5,92.8333 334.5,102.167 334.5,111.5C 332.833,111.5 331.167,111.5 329.5,111.5C 329.832,102.475 329.498,93.4754 328.5,84.5C 322.19,85.1297 315.856,85.7963 309.5,86.5C 310.47,94.778 310.803,103.111 310.5,111.5C 309.167,111.5 307.833,111.5 306.5,111.5C 306.5,102.5 306.5,93.5 306.5,84.5C 315.667,83.8461 324.834,83.1795 334,82.5C 334.5,73.5062 334.666,64.5062 334.5,55.5 Z"/></g>
<g><path style="opacity:1" fill="#fefefe" d="M 26.5,82.5 C 27.1667,82.5 27.5,82.8333 27.5,83.5C 26.5279,92.75 26.1945,102.083 26.5,111.5C 17.8333,111.5 9.16667,111.5 0.5,111.5C 0.5,102.167 0.5,92.8333 0.5,83.5C 9.34945,83.8264 18.0161,83.493 26.5,82.5 Z"/></g>
<g><path style="opacity:1" fill="#fefefe" d="M 82.5,83.5 C 82.5,83.8333 82.5,84.1667 82.5,84.5C 82.5,93.5 82.5,102.5 82.5,111.5C 73.1667,111.5 63.8333,111.5 54.5,111.5C 54.5,102.167 54.5,92.8333 54.5,83.5C 63.8333,83.5 73.1667,83.5 82.5,83.5 Z"/></g>
<g><path style="opacity:1" fill="#f7fdfc" d="M 138.5,82.5 C 139.167,82.5 139.5,82.8333 139.5,83.5C 138.699,85.0418 138.366,86.7085 138.5,88.5C 137.448,88.3505 136.448,88.5172 135.5,89C 137.119,89.2355 138.119,90.0689 138.5,91.5C 137.5,91.5 136.5,91.5 135.5,91.5C 135.5,92.8333 135.5,94.1667 135.5,95.5C 132.196,97.1398 129.529,99.4731 127.5,102.5C 123.472,104.868 120.139,107.868 117.5,111.5C 114.37,113.299 112.37,115.966 111.5,119.5C 107.423,122.37 105.09,126.37 104.5,131.5C 103.833,132.167 103.167,132.833 102.5,133.5C 100.51,135.163 98.843,137.163 97.5,139.5C 96.5712,140.55 95.9046,140.55 95.5,139.5C 95.907,135.742 95.907,132.076 95.5,128.5C 96.2739,127.289 97.1072,127.289 98,128.5C 98.2414,125.711 98.908,123.044 100,120.5C 101.252,122.001 102.252,123.668 103,125.5C 104.721,122.703 106.887,120.369 109.5,118.5C 110.474,116.257 110.808,113.924 110.5,111.5C 110.5,102.167 110.5,92.8333 110.5,83.5C 120.015,83.8269 129.348,83.4936 138.5,82.5 Z"/></g>
<g><path style="opacity:1" fill="#dff7f3" d="M 194.5,82.5 C 195.167,82.5 195.5,82.8333 195.5,83.5C 194.699,85.0418 194.366,86.7085 194.5,88.5C 197.491,88.1663 199.824,89.1663 201.5,91.5C 198.097,91.1489 194.763,90.4822 191.5,89.5C 188.058,88.2521 184.392,87.4188 180.5,87C 173.508,86.5004 166.508,86.3337 159.5,86.5C 169.013,85.2317 178.679,85.2317 188.5,86.5C 189.5,86.1667 190.5,85.8333 191.5,85.5C 188.553,84.6786 185.553,84.1786 182.5,84C 183.167,83.3333 183.833,82.6667 184.5,82C 187.868,81.4572 191.201,81.6239 194.5,82.5 Z"/></g>
<g><path style="opacity:1" fill="#fdfdfd" d="M 250.5,82.5 C 251.167,82.5 251.5,82.8333 251.5,83.5C 250.528,92.75 250.195,102.083 250.5,111.5C 243.5,111.5 236.5,111.5 229.5,111.5C 226.573,110.243 224.239,108.243 222.5,105.5C 222.935,98.5434 222.935,91.21 222.5,83.5C 232.015,83.8269 241.348,83.4936 250.5,82.5 Z"/></g>
<g><path style="opacity:1" fill="#fefefe" d="M 306.5,83.5 C 306.5,83.8333 306.5,84.1667 306.5,84.5C 306.5,93.5 306.5,102.5 306.5,111.5C 297.167,111.5 287.833,111.5 278.5,111.5C 278.5,102.167 278.5,92.8333 278.5,83.5C 287.833,83.5 297.167,83.5 306.5,83.5 Z"/></g>
<g><path style="opacity:1" fill="#fefefe" d="M 358.5,83.5 C 358.5,92.8333 358.5,102.167 358.5,111.5C 350.5,111.5 342.5,111.5 334.5,111.5C 334.5,102.167 334.5,92.8333 334.5,83.5C 342.5,83.5 350.5,83.5 358.5,83.5 Z"/></g>
<g><path style="opacity:1" fill="#ededed" d="M 49.5,111.5 C 43.1667,111.5 36.8333,111.5 30.5,111.5C 30.8032,103.111 30.4699,94.778 29.5,86.5C 35.8565,85.7963 42.1898,85.1297 48.5,84.5C 49.4982,93.4754 49.8315,102.475 49.5,111.5 Z"/></g>
<g><path style="opacity:1" fill="#ededed" d="M 110.5,82.5 C 110.5,82.8333 110.5,83.1667 110.5,83.5C 110.5,92.8333 110.5,102.167 110.5,111.5C 101.167,111.5 91.8333,111.5 82.5,111.5C 82.5,102.5 82.5,93.5 82.5,84.5C 91.8333,83.8333 101.167,83.1667 110.5,82.5 Z"/></g>
<g><path style="opacity:1" fill="#ededed" d="M 273.5,111.5 C 267.167,111.5 260.833,111.5 254.5,111.5C 254.803,103.111 254.47,94.778 253.5,86.5C 259.856,85.7963 266.19,85.1297 272.5,84.5C 273.498,93.4754 273.832,102.475 273.5,111.5 Z"/></g>
<g><path style="opacity:1" fill="#ededed" d="M 329.5,111.5 C 323.167,111.5 316.833,111.5 310.5,111.5C 310.803,103.111 310.47,94.778 309.5,86.5C 315.856,85.7963 322.19,85.1297 328.5,84.5C 329.498,93.4754 329.832,102.475 329.5,111.5 Z"/></g>
<g><path style="opacity:1" fill="#d7f9f6" d="M 159.5,86.5 C 151.233,88.7014 143.233,91.7014 135.5,95.5C 135.5,94.1667 135.5,92.8333 135.5,91.5C 136.5,91.5 137.5,91.5 138.5,91.5C 141.179,91.3274 143.513,90.3274 145.5,88.5C 150.137,87.57 154.804,86.9033 159.5,86.5 Z"/></g>
<g><path style="opacity:1" fill="#12a58f" d="M 159.5,86.5 C 166.508,86.3337 173.508,86.5004 180.5,87C 184.392,87.4188 188.058,88.2521 191.5,89.5C 192.903,90.9312 194.569,92.0978 196.5,93C 198.952,93.2895 201.285,93.9562 203.5,95C 197.437,94.5004 193.437,94.6671 191.5,95.5C 191.826,99.8839 191.492,104.217 190.5,108.5C 189.833,107.833 189.167,107.167 188.5,106.5C 177.775,106.231 167.108,106.564 156.5,107.5C 153.482,107.335 150.482,107.502 147.5,108C 144.252,109.46 140.919,110.626 137.5,111.5C 134.31,107.023 135.31,105.69 140.5,107.5C 145.941,107.069 151.108,105.736 156,103.5C 156.236,101.236 156.736,99.0693 157.5,97C 165.089,95.7695 172.756,95.1028 180.5,95C 173.482,94.624 166.482,94.124 159.5,93.5C 159.5,92.5 159.5,91.5 159.5,90.5C 164.511,90.6659 169.511,90.4993 174.5,90C 174.833,89.6667 175.167,89.3333 175.5,89C 167.738,88.1309 160.072,88.6309 152.5,90.5C 143.581,93.5786 135.248,97.5786 127.5,102.5C 129.529,99.4731 132.196,97.1398 135.5,95.5C 143.233,91.7014 151.233,88.7014 159.5,86.5 Z"/></g>
<g><path style="opacity:1" fill="#10948a" d="M 191.5,89.5 C 194.763,90.4822 198.097,91.1489 201.5,91.5C 204.5,93.5 207.5,95.5 210.5,97.5C 209.957,97.56 209.624,97.8933 209.5,98.5C 210.908,99.2432 212.241,100.077 213.5,101C 213.167,101.333 212.833,101.667 212.5,102C 215.2,102.767 217.7,103.933 220,105.5C 219.237,107.391 218.403,109.391 217.5,111.5C 215.167,111.5 212.833,111.5 210.5,111.5C 210.5,110.5 210.5,109.5 210.5,108.5C 213.5,108.833 214.833,107.5 214.5,104.5C 211.675,104.162 209.508,105.162 208,107.5C 206.555,111.486 206.055,115.486 206.5,119.5C 204.102,116.801 201.102,115.467 197.5,115.5C 193.277,114.716 189.277,113.383 185.5,111.5C 182.443,109.905 179.11,108.738 175.5,108C 169.175,107.5 162.842,107.334 156.5,107.5C 167.108,106.564 177.775,106.231 188.5,106.5C 189.167,107.167 189.833,107.833 190.5,108.5C 191.492,104.217 191.826,99.8839 191.5,95.5C 193.437,94.6671 197.437,94.5004 203.5,95C 201.285,93.9562 198.952,93.2895 196.5,93C 194.569,92.0978 192.903,90.9312 191.5,89.5 Z"/></g>
<g><path style="opacity:1" fill="#12b595" d="M 137.5,111.5 C 133.267,114.448 128.6,116.615 123.5,118C 122.238,120.276 120.571,122.109 118.5,123.5C 115.969,124.03 113.969,125.364 112.5,127.5C 110.06,131.401 107.393,135.068 104.5,138.5C 104.135,136.412 104.135,134.079 104.5,131.5C 105.09,126.37 107.423,122.37 111.5,119.5C 111.178,123.439 112.511,124.272 115.5,122C 117.79,119.921 119.457,117.421 120.5,114.5C 123.974,113.989 127.307,113.156 130.5,112C 122.7,110.769 122.7,109.603 130.5,108.5C 130.5,107.167 130.5,105.833 130.5,104.5C 125.965,104.346 122.631,106.346 120.5,110.5C 119.675,111.386 118.675,111.719 117.5,111.5C 120.139,107.868 123.472,104.868 127.5,102.5C 135.248,97.5786 143.581,93.5786 152.5,90.5C 160.072,88.6309 167.738,88.1309 175.5,89C 175.167,89.3333 174.833,89.6667 174.5,90C 169.511,90.4993 164.511,90.6659 159.5,90.5C 159.5,91.5 159.5,92.5 159.5,93.5C 166.482,94.124 173.482,94.624 180.5,95C 172.756,95.1028 165.089,95.7695 157.5,97C 156.736,99.0693 156.236,101.236 156,103.5C 151.108,105.736 145.941,107.069 140.5,107.5C 135.31,105.69 134.31,107.023 137.5,111.5 Z"/></g>
<g><path style="opacity:1" fill="#eeeeee" d="M 0.5,111.5 C 9.16667,111.5 17.8333,111.5 26.5,111.5C 26.5,120.5 26.5,129.5 26.5,138.5C 18.0161,139.493 9.34945,139.826 0.5,139.5C 0.5,130.167 0.5,120.833 0.5,111.5 Z"/></g>
<g><path style="opacity:1" fill="#fefefe" d="M 26.5,111.5 C 27.8333,111.5 29.1667,111.5 30.5,111.5C 36.8333,111.5 43.1667,111.5 49.5,111.5C 51.1667,111.5 52.8333,111.5 54.5,111.5C 54.6664,120.506 54.4998,129.506 54,138.5C 45.2511,139.484 36.4178,139.817 27.5,139.5C 27.5,138.833 27.1667,138.5 26.5,138.5C 26.5,129.5 26.5,120.5 26.5,111.5 Z"/></g>
<g><path style="opacity:1" fill="#eeeeee" d="M 54.5,111.5 C 63.8333,111.5 73.1667,111.5 82.5,111.5C 82.5,120.833 82.5,130.167 82.5,139.5C 73.1667,139.5 63.8333,139.5 54.5,139.5C 54.5,148.833 54.5,158.167 54.5,167.5C 52.8333,167.5 51.1667,167.5 49.5,167.5C 49.8315,158.475 49.4982,149.475 48.5,140.5C 42.1898,141.13 35.8565,141.796 29.5,142.5C 30.4699,150.778 30.8032,159.111 30.5,167.5C 29.1667,167.5 27.8333,167.5 26.5,167.5C 26.1945,158.083 26.5279,148.75 27.5,139.5C 36.4178,139.817 45.2511,139.484 54,138.5C 54.4998,129.506 54.6664,120.506 54.5,111.5 Z"/></g>
<g><path style="opacity:1" fill="#fdfefe" d="M 82.5,111.5 C 91.8333,111.5 101.167,111.5 110.5,111.5C 110.808,113.924 110.474,116.257 109.5,118.5C 106.887,120.369 104.721,122.703 103,125.5C 102.252,123.668 101.252,122.001 100,120.5C 98.908,123.044 98.2414,125.711 98,128.5C 97.1072,127.289 96.2739,127.289 95.5,128.5C 95.907,132.076 95.907,135.742 95.5,139.5C 91.0685,139.231 86.7352,139.564 82.5,140.5C 82.5,140.167 82.5,139.833 82.5,139.5C 82.5,130.167 82.5,120.833 82.5,111.5 Z"/></g>
<g><path style="opacity:1" fill="#168887" d="M 210.5,97.5 C 214.754,99.7485 218.754,102.415 222.5,105.5C 224.239,108.243 226.573,110.243 229.5,111.5C 229.5,112.167 229.5,112.833 229.5,113.5C 228.761,113.369 228.094,113.536 227.5,114C 228.576,115.726 228.743,117.559 228,119.5C 227.46,116.639 226.46,113.972 225,111.5C 223.009,115.257 223.176,118.757 225.5,122C 223.961,124.878 222.961,128.045 222.5,131.5C 220.388,132.199 218.388,131.699 216.5,130C 217.167,129.333 217.833,128.667 218.5,128C 216.288,127.211 214.288,127.378 212.5,128.5C 207.811,123.811 202.811,119.478 197.5,115.5C 201.102,115.467 204.102,116.801 206.5,119.5C 206.055,115.486 206.555,111.486 208,107.5C 209.508,105.162 211.675,104.162 214.5,104.5C 214.833,107.5 213.5,108.833 210.5,108.5C 210.5,109.5 210.5,110.5 210.5,111.5C 212.833,111.5 215.167,111.5 217.5,111.5C 218.403,109.391 219.237,107.391 220,105.5C 217.7,103.933 215.2,102.767 212.5,102C 212.833,101.667 213.167,101.333 213.5,101C 212.241,100.077 210.908,99.2432 209.5,98.5C 209.624,97.8933 209.957,97.56 210.5,97.5 Z"/></g>
<g><path style="opacity:1" fill="#ebeeef" d="M 229.5,111.5 C 236.5,111.5 243.5,111.5 250.5,111.5C 250.5,120.833 250.5,130.167 250.5,139.5C 248.833,139.5 247.167,139.5 245.5,139.5C 245.044,134.587 243.044,130.587 239.5,127.5C 238.5,126.167 237.5,124.833 236.5,123.5C 234.656,119.808 232.323,116.475 229.5,113.5C 229.5,112.833 229.5,112.167 229.5,111.5 Z"/></g>
<g><path style="opacity:1" fill="#fefefe" d="M 250.5,111.5 C 251.833,111.5 253.167,111.5 254.5,111.5C 260.833,111.5 267.167,111.5 273.5,111.5C 275.167,111.5 276.833,111.5 278.5,111.5C 278.5,119.833 278.5,128.167 278.5,136.5C 278.586,137.496 278.252,138.329 277.5,139C 268.589,139.181 259.755,139.681 251,140.5C 250.627,142.698 250.127,144.865 249.5,147C 250.445,153.788 250.778,160.621 250.5,167.5C 249.683,169.969 249.183,172.635 249,175.5C 248.503,172.854 248.336,170.187 248.5,167.5C 248.599,158.006 247.599,148.673 245.5,139.5C 247.167,139.5 248.833,139.5 250.5,139.5C 250.5,130.167 250.5,120.833 250.5,111.5 Z"/></g>
<g><path style="opacity:1" fill="#eeeeee" d="M 278.5,111.5 C 287.833,111.5 297.167,111.5 306.5,111.5C 306.5,120.5 306.5,129.5 306.5,138.5C 297.494,138.666 288.494,138.5 279.5,138C 287.833,137.667 296.167,137.333 304.5,137C 295.84,136.5 287.173,136.334 278.5,136.5C 278.5,128.167 278.5,119.833 278.5,111.5 Z"/></g>
<g><path style="opacity:1" fill="#fefefe" d="M 306.5,111.5 C 307.833,111.5 309.167,111.5 310.5,111.5C 316.833,111.5 323.167,111.5 329.5,111.5C 331.167,111.5 332.833,111.5 334.5,111.5C 334.666,120.506 334.5,129.506 334,138.5C 324.834,139.179 315.667,139.846 306.5,140.5C 306.5,140.167 306.5,139.833 306.5,139.5C 306.5,139.167 306.5,138.833 306.5,138.5C 306.5,129.5 306.5,120.5 306.5,111.5 Z"/></g>
<g><path style="opacity:1" fill="#eeeeee" d="M 334.5,111.5 C 342.5,111.5 350.5,111.5 358.5,111.5C 358.5,120.833 358.5,130.167 358.5,139.5C 350.5,139.5 342.5,139.5 334.5,139.5C 334.5,148.833 334.5,158.167 334.5,167.5C 332.833,167.5 331.167,167.5 329.5,167.5C 329.832,158.475 329.498,149.475 328.5,140.5C 322.19,141.13 315.856,141.796 309.5,142.5C 310.47,150.778 310.803,159.111 310.5,167.5C 309.167,167.5 307.833,167.5 306.5,167.5C 306.5,158.5 306.5,149.5 306.5,140.5C 315.667,139.846 324.834,139.179 334,138.5C 334.5,129.506 334.666,120.506 334.5,111.5 Z"/></g>
<g><path style="opacity:1" fill="#1a6e76" d="M 185.5,111.5 C 189.277,113.383 193.277,114.716 197.5,115.5C 202.811,119.478 207.811,123.811 212.5,128.5C 216.965,134.549 220.631,140.549 223.5,146.5C 224.915,150.084 226.082,153.751 227,157.5C 228.666,156.66 228.833,157.16 227.5,159C 229.179,161.565 229.846,164.398 229.5,167.5C 229.167,167.5 228.833,167.5 228.5,167.5C 227.113,163.725 225.446,160.058 223.5,156.5C 223.5,156.167 223.5,155.833 223.5,155.5C 213.633,135.529 197.633,123.196 175.5,118.5C 175.227,116.549 175.893,115.049 177.5,114C 173.245,113.204 169.079,113.371 165,114.5C 163.667,113.833 162.333,113.167 161,112.5C 155.162,113.882 149.329,113.716 143.5,112C 157.493,110.417 171.493,110.25 185.5,111.5 Z"/></g>
<g><path style="opacity:1" fill="#197274" d="M 156.5,107.5 C 162.842,107.334 169.175,107.5 175.5,108C 179.11,108.738 182.443,109.905 185.5,111.5C 171.493,110.25 157.493,110.417 143.5,112C 149.329,113.716 155.162,113.882 161,112.5C 162.333,113.167 163.667,113.833 165,114.5C 169.079,113.371 173.245,113.204 177.5,114C 175.893,115.049 175.227,116.549 175.5,118.5C 166.359,117.238 157.359,117.238 148.5,118.5C 148.167,118.5 147.833,118.5 147.5,118.5C 139.757,119.77 132.424,122.27 125.5,126C 119.774,130.185 114.108,134.352 108.5,138.5C 108.892,136.821 109.392,135.154 110,133.5C 112.865,133.294 115.365,131.794 117.5,129C 116.243,126.924 116.576,125.09 118.5,123.5C 120.571,122.109 122.238,120.276 123.5,118C 128.6,116.615 133.267,114.448 137.5,111.5C 140.919,110.626 144.252,109.46 147.5,108C 150.482,107.502 153.482,107.335 156.5,107.5 Z"/></g>
<g><path style="opacity:1" fill="#15bd94" d="M 111.5,119.5 C 112.37,115.966 114.37,113.299 117.5,111.5C 118.675,111.719 119.675,111.386 120.5,110.5C 122.631,106.346 125.965,104.346 130.5,104.5C 130.5,105.833 130.5,107.167 130.5,108.5C 122.7,109.603 122.7,110.769 130.5,112C 127.307,113.156 123.974,113.989 120.5,114.5C 119.457,117.421 117.79,119.921 115.5,122C 112.511,124.272 111.178,123.439 111.5,119.5 Z"/></g>
<g><path style="opacity:1" fill="#fbfdfc" d="M 147.5,118.5 C 147.833,118.5 148.167,118.5 148.5,118.5C 154.176,118.334 159.843,118.501 165.5,119C 166.056,119.383 166.389,119.883 166.5,120.5C 166.5,123.833 166.5,127.167 166.5,130.5C 157.154,130.538 147.82,130.871 138.5,131.5C 139.263,130.732 140.263,130.232 141.5,130C 138.456,129.641 138.122,128.974 140.5,128C 137.999,126.582 138.332,125.582 141.5,125C 137.755,125.035 137.088,124.035 139.5,122C 142.471,121.206 145.471,120.539 148.5,120C 147.944,119.617 147.611,119.117 147.5,118.5 Z"/></g>
<g><path style="opacity:1" fill="#167f86" d="M 229.5,113.5 C 232.323,116.475 234.656,119.808 236.5,123.5C 235.883,123.389 235.383,123.056 235,122.5C 234.627,124.698 234.127,126.865 233.5,129C 234.022,129.95 234.689,130.784 235.5,131.5C 231.808,134.862 228.141,138.195 224.5,141.5C 223.548,143.045 223.215,144.712 223.5,146.5C 220.631,140.549 216.965,134.549 212.5,128.5C 214.288,127.378 216.288,127.211 218.5,128C 217.833,128.667 217.167,129.333 216.5,130C 218.388,131.699 220.388,132.199 222.5,131.5C 222.961,128.045 223.961,124.878 225.5,122C 223.176,118.757 223.009,115.257 225,111.5C 226.46,113.972 227.46,116.639 228,119.5C 228.743,117.559 228.576,115.726 227.5,114C 228.094,113.536 228.761,113.369 229.5,113.5 Z"/></g>
<g><path style="opacity:1" fill="#eeeeed" d="M 166.5,120.5 C 171.179,120.334 175.845,120.501 180.5,121C 184.838,122.942 189.171,124.775 193.5,126.5C 194.204,129.704 194.87,132.871 195.5,136C 191.49,136.357 187.49,136.19 183.5,135.5C 183.167,135.5 182.833,135.5 182.5,135.5C 183.728,133.99 183.728,132.49 182.5,131C 177.177,130.501 171.844,130.334 166.5,130.5C 166.5,127.167 166.5,123.833 166.5,120.5 Z"/></g>
<g><path style="opacity:1" fill="#e9f5f5" d="M 148.5,118.5 C 157.359,117.238 166.359,117.238 175.5,118.5C 197.633,123.196 213.633,135.529 223.5,155.5C 222.5,155.5 221.5,155.5 220.5,155.5C 219.313,153.095 217.813,150.761 216,148.5C 215.506,146.866 215.34,145.199 215.5,143.5C 212.52,143.759 210.687,142.426 210,139.5C 207.031,139.519 203.865,139.686 200.5,140C 201.614,141.57 202.947,142.903 204.5,144C 203.584,144.278 202.918,144.778 202.5,145.5C 196.099,142.051 189.765,138.718 183.5,135.5C 187.49,136.19 191.49,136.357 195.5,136C 194.87,132.871 194.204,129.704 193.5,126.5C 189.171,124.775 184.838,122.942 180.5,121C 175.845,120.501 171.179,120.334 166.5,120.5C 166.389,119.883 166.056,119.383 165.5,119C 159.843,118.501 154.176,118.334 148.5,118.5 Z"/></g>
<g><path style="opacity:1" fill="#d6ecf0" d="M 166.5,130.5 C 171.844,130.334 177.177,130.501 182.5,131C 183.728,132.49 183.728,133.99 182.5,135.5C 166.785,131.595 151.119,131.595 135.5,135.5C 130.197,137.816 124.864,140.149 119.5,142.5C 119.062,142.565 118.728,142.399 118.5,142C 121.06,140.227 123.393,138.227 125.5,136C 130.405,135.519 134.739,134.019 138.5,131.5C 147.82,130.871 157.154,130.538 166.5,130.5 Z"/></g>
<g><path style="opacity:1" fill="#27687e" d="M 182.5,135.5 C 182.833,135.5 183.167,135.5 183.5,135.5C 189.765,138.718 196.099,142.051 202.5,145.5C 202.265,146.097 201.765,146.43 201,146.5C 198.846,145.726 196.679,145.059 194.5,144.5C 186.876,143.602 179.209,143.269 171.5,143.5C 169.139,143.674 166.806,144.007 164.5,144.5C 160.919,143.74 157.252,143.24 153.5,143C 154.167,142.667 154.833,142.333 155.5,142C 153.337,141.755 151.67,140.755 150.5,139C 143.902,139.919 137.569,139.585 131.5,138C 133.32,137.8 134.653,136.966 135.5,135.5C 151.119,131.595 166.785,131.595 182.5,135.5 Z"/></g>
<g><path style="opacity:1" fill="#42ae9d" d="M 104.5,131.5 C 104.135,134.079 104.135,136.412 104.5,138.5C 103.331,141.511 101.664,144.178 99.5,146.5C 100.656,142.207 101.656,137.874 102.5,133.5C 103.167,132.833 103.833,132.167 104.5,131.5 Z"/></g>
<g><path style="opacity:1" fill="#fefefe" d="M 26.5,138.5 C 27.1667,138.5 27.5,138.833 27.5,139.5C 26.5279,148.75 26.1945,158.083 26.5,167.5C 17.8333,167.5 9.16667,167.5 0.5,167.5C 0.5,158.167 0.5,148.833 0.5,139.5C 9.34945,139.826 18.0161,139.493 26.5,138.5 Z"/></g>
<g><path style="opacity:1" fill="#fefefe" d="M 82.5,139.5 C 82.5,139.833 82.5,140.167 82.5,140.5C 82.5,149.5 82.5,158.5 82.5,167.5C 73.1667,167.5 63.8333,167.5 54.5,167.5C 54.5,158.167 54.5,148.833 54.5,139.5C 63.8333,139.5 73.1667,139.5 82.5,139.5 Z"/></g>
<g><path style="opacity:1" fill="#eeedee" d="M 278.5,136.5 C 287.173,136.334 295.84,136.5 304.5,137C 296.167,137.333 287.833,137.667 279.5,138C 288.494,138.5 297.494,138.666 306.5,138.5C 306.5,138.833 306.5,139.167 306.5,139.5C 297.167,139.5 287.833,139.5 278.5,139.5C 278.5,148.833 278.5,158.167 278.5,167.5C 269.443,168.281 267.109,164.615 271.5,156.5C 270.5,156.5 269.5,156.5 268.5,156.5C 268.719,157.675 268.386,158.675 267.5,159.5C 266.682,157.892 266.015,156.225 265.5,154.5C 267.093,153.17 268.76,151.836 270.5,150.5C 271.452,148.955 271.785,147.288 271.5,145.5C 269.5,145.833 267.5,146.167 265.5,146.5C 265.5,145.5 265.5,144.5 265.5,143.5C 263.5,143.5 261.5,143.5 259.5,143.5C 259.5,144.5 259.5,145.5 259.5,146.5C 258.167,146.5 256.833,146.5 255.5,146.5C 255.349,143.282 254.516,142.949 253,145.5C 252.667,145.167 252.333,144.833 252,144.5C 251.195,147.696 251.362,150.696 252.5,153.5C 252.343,154.873 252.51,156.207 253,157.5C 253.414,157.043 253.914,156.709 254.5,156.5C 255.489,160.107 255.823,163.774 255.5,167.5C 253.833,167.5 252.167,167.5 250.5,167.5C 250.778,160.621 250.445,153.788 249.5,147C 250.127,144.865 250.627,142.698 251,140.5C 259.755,139.681 268.589,139.181 277.5,139C 278.252,138.329 278.586,137.496 278.5,136.5 Z"/></g>
<g><path style="opacity:1" fill="#fefefe" d="M 306.5,139.5 C 306.5,139.833 306.5,140.167 306.5,140.5C 306.5,149.5 306.5,158.5 306.5,167.5C 297.167,167.5 287.833,167.5 278.5,167.5C 278.5,158.167 278.5,148.833 278.5,139.5C 287.833,139.5 297.167,139.5 306.5,139.5 Z"/></g>
<g><path style="opacity:1" fill="#fefefe" d="M 358.5,139.5 C 358.5,148.833 358.5,158.167 358.5,167.5C 350.5,167.5 342.5,167.5 334.5,167.5C 334.5,158.167 334.5,148.833 334.5,139.5C 342.5,139.5 350.5,139.5 358.5,139.5 Z"/></g>
<g><path style="opacity:1" fill="#206e7e" d="M 135.5,135.5 C 134.653,136.966 133.32,137.8 131.5,138C 137.569,139.585 143.902,139.919 150.5,139C 151.67,140.755 153.337,141.755 155.5,142C 154.833,142.333 154.167,142.667 153.5,143C 157.252,143.24 160.919,143.74 164.5,144.5C 157.18,146.992 150.18,150.325 143.5,154.5C 144.06,151.725 145.727,149.892 148.5,149C 147.737,148.056 146.737,147.556 145.5,147.5C 141.583,149.708 137.75,152.041 134,154.5C 132.878,151.924 131.878,149.257 131,146.5C 126.465,147.628 121.299,147.628 115.5,146.5C 116.527,144.806 117.861,143.473 119.5,142.5C 124.864,140.149 130.197,137.816 135.5,135.5 Z"/></g>
<g><path style="opacity:1" fill="#ededed" d="M 49.5,167.5 C 43.1667,167.5 36.8333,167.5 30.5,167.5C 30.8032,159.111 30.4699,150.778 29.5,142.5C 35.8565,141.796 42.1898,141.13 48.5,140.5C 49.4982,149.475 49.8315,158.475 49.5,167.5 Z"/></g>
<g><path style="opacity:1" fill="#ededed" d="M 329.5,167.5 C 323.167,167.5 316.833,167.5 310.5,167.5C 310.803,159.111 310.47,150.778 309.5,142.5C 315.856,141.796 322.19,141.13 328.5,140.5C 329.498,149.475 329.832,158.475 329.5,167.5 Z"/></g>
<g><path style="opacity:1" fill="#eaeeef" d="M 147.5,118.5 C 147.611,119.117 147.944,119.617 148.5,120C 145.471,120.539 142.471,121.206 139.5,122C 137.088,124.035 137.755,125.035 141.5,125C 138.332,125.582 137.999,126.582 140.5,128C 138.122,128.974 138.456,129.641 141.5,130C 140.263,130.232 139.263,130.732 138.5,131.5C 134.739,134.019 130.405,135.519 125.5,136C 123.393,138.227 121.06,140.227 118.5,142C 118.728,142.399 119.062,142.565 119.5,142.5C 117.861,143.473 116.527,144.806 115.5,146.5C 109.6,149.459 104.933,153.793 101.5,159.5C 98.7846,162.214 96.4512,165.214 94.5,168.5C 90.7016,167.517 86.7016,167.183 82.5,167.5C 82.5,158.5 82.5,149.5 82.5,140.5C 86.7352,139.564 91.0685,139.231 95.5,139.5C 95.9046,140.55 96.5712,140.55 97.5,139.5C 98.843,137.163 100.51,135.163 102.5,133.5C 101.656,137.874 100.656,142.207 99.5,146.5C 98.6765,148.455 98.5099,150.455 99,152.5C 101.939,147.603 105.106,142.936 108.5,138.5C 114.108,134.352 119.774,130.185 125.5,126C 132.424,122.27 139.757,119.77 147.5,118.5 Z"/></g>
<g><path style="opacity:1" fill="#2e7d74" d="M 118.5,123.5 C 116.576,125.09 116.243,126.924 117.5,129C 115.365,131.794 112.865,133.294 110,133.5C 109.392,135.154 108.892,136.821 108.5,138.5C 105.106,142.936 101.939,147.603 99,152.5C 98.5099,150.455 98.6765,148.455 99.5,146.5C 101.664,144.178 103.331,141.511 104.5,138.5C 107.393,135.068 110.06,131.401 112.5,127.5C 113.969,125.364 115.969,124.03 118.5,123.5 Z"/></g>
<g><path style="opacity:1" fill="#fdfefd" d="M 171.5,143.5 C 179.209,143.269 186.876,143.602 194.5,144.5C 194.5,152.167 194.5,159.833 194.5,167.5C 185.167,167.5 175.833,167.5 166.5,167.5C 166.193,161.907 166.527,156.407 167.5,151C 164.833,150.333 164.833,149.667 167.5,149C 166.549,148.282 166.383,147.449 167,146.5C 168.652,145.601 170.152,144.601 171.5,143.5 Z"/></g>
<g><path style="opacity:1" fill="#1c7481" d="M 236.5,123.5 C 237.5,124.833 238.5,126.167 239.5,127.5C 243.873,137.699 246.207,148.365 246.5,159.5C 245.5,159.5 244.5,159.5 243.5,159.5C 243.663,157.143 243.497,154.81 243,152.5C 240.104,155.454 238.771,159.121 239,163.5C 237.451,160.181 236.785,156.847 237,153.5C 235.488,154.257 234.154,155.257 233,156.5C 232.667,160.167 232.333,163.833 232,167.5C 231.667,166.5 231.333,165.5 231,164.5C 230.667,166.167 230.333,167.833 230,169.5C 229.536,168.906 229.369,168.239 229.5,167.5C 229.846,164.398 229.179,161.565 227.5,159C 228.833,157.16 228.666,156.66 227,157.5C 226.082,153.751 224.915,150.084 223.5,146.5C 223.215,144.712 223.548,143.045 224.5,141.5C 228.141,138.195 231.808,134.862 235.5,131.5C 234.689,130.784 234.022,129.95 233.5,129C 234.127,126.865 234.627,124.698 235,122.5C 235.383,123.056 235.883,123.389 236.5,123.5 Z"/></g>
<g><path style="opacity:1" fill="#eeeeee" d="M 223.5,155.5 C 223.5,155.833 223.5,156.167 223.5,156.5C 226.39,168.968 227.223,181.634 226,194.5C 224.217,198.298 223.384,202.298 223.5,206.5C 223.5,206.833 223.5,207.167 223.5,207.5C 221.833,207.5 220.167,207.5 218.5,207.5C 219.114,202.958 218.114,198.958 215.5,195.5C 217.792,195.756 219.959,195.423 222,194.5C 222.5,185.506 222.666,176.506 222.5,167.5C 213.167,167.5 203.833,167.5 194.5,167.5C 194.5,159.833 194.5,152.167 194.5,144.5C 196.679,145.059 198.846,145.726 201,146.5C 201.765,146.43 202.265,146.097 202.5,145.5C 202.918,144.778 203.584,144.278 204.5,144C 202.947,142.903 201.614,141.57 200.5,140C 203.865,139.686 207.031,139.519 210,139.5C 210.687,142.426 212.52,143.759 215.5,143.5C 215.34,145.199 215.506,146.866 216,148.5C 217.813,150.761 219.313,153.095 220.5,155.5C 221.5,155.5 222.5,155.5 223.5,155.5 Z"/></g>
<g><path style="opacity:1" fill="#197781" d="M 143.5,154.5 C 143.5,155.167 143.167,155.5 142.5,155.5C 140.738,155.643 139.071,155.309 137.5,154.5C 135.786,157.213 133.453,159.213 130.5,160.5C 128.821,159.06 126.821,158.06 124.5,157.5C 119.081,157.014 113.747,157.514 108.5,159C 111.768,157.089 112.101,154.922 109.5,152.5C 107.677,155.822 105.177,158.489 102,160.5C 101.601,160.272 101.435,159.938 101.5,159.5C 104.933,153.793 109.6,149.459 115.5,146.5C 121.299,147.628 126.465,147.628 131,146.5C 131.878,149.257 132.878,151.924 134,154.5C 137.75,152.041 141.583,149.708 145.5,147.5C 146.737,147.556 147.737,148.056 148.5,149C 145.727,149.892 144.06,151.725 143.5,154.5 Z"/></g>
<g><path style="opacity:1" fill="#bff7ee" d="M 255.5,149.5 C 260.788,150.726 263.788,154.059 264.5,159.5C 262.167,156.833 259.833,154.167 257.5,151.5C 256.5,151.167 255.833,150.5 255.5,149.5 Z"/></g>
<g><path style="opacity:1" fill="#167f84" d="M 130.5,160.5 C 127.144,165.192 123.478,168.859 119.5,171.5C 117.172,168.698 114.672,169.031 112,172.5C 111.506,170.866 111.34,169.199 111.5,167.5C 110.5,167.5 109.5,167.5 108.5,167.5C 107.908,170.127 107.575,172.794 107.5,175.5C 105.712,175.785 104.045,175.452 102.5,174.5C 106.03,171.15 106.196,167.817 103,164.5C 99.8974,168.113 96.3974,171.113 92.5,173.5C 92.8925,171.716 93.5592,170.05 94.5,168.5C 96.4512,165.214 98.7846,162.214 101.5,159.5C 101.435,159.938 101.601,160.272 102,160.5C 105.177,158.489 107.677,155.822 109.5,152.5C 112.101,154.922 111.768,157.089 108.5,159C 113.747,157.514 119.081,157.014 124.5,157.5C 126.821,158.06 128.821,159.06 130.5,160.5 Z"/></g>
<g><path style="opacity:1" fill="#24ad95" d="M 257.5,151.5 C 259.833,154.167 262.167,156.833 264.5,159.5C 265.5,161.5 266.5,163.5 267.5,165.5C 266.603,164.402 265.77,164.402 265,165.5C 264.57,168.192 264.737,170.859 265.5,173.5C 265.666,182.173 265.5,190.84 265,199.5C 264.362,202.601 263.195,205.268 261.5,207.5C 264.247,196.327 265.08,184.993 264,173.5C 262.513,165.881 260.346,158.548 257.5,151.5 Z"/></g>
<g><path style="opacity:1" fill="#c5e4e6" d="M 253.5,148.5 C 256.875,157.147 258.541,166.147 258.5,175.5C 258.806,178.385 258.473,181.052 257.5,183.5C 257.666,178.821 257.499,174.155 257,169.5C 256.722,168.584 256.222,167.918 255.5,167.5C 255.823,163.774 255.489,160.107 254.5,156.5C 253.914,156.709 253.414,157.043 253,157.5C 252.51,156.207 252.343,154.873 252.5,153.5C 252.216,151.585 252.549,149.919 253.5,148.5 Z"/></g>
<g><path style="opacity:1" fill="#d7f4f7" d="M 239.5,127.5 C 243.044,130.587 245.044,134.587 245.5,139.5C 247.599,148.673 248.599,158.006 248.5,167.5C 248.098,170.477 247.098,173.143 245.5,175.5C 246.098,170.187 246.431,164.854 246.5,159.5C 246.207,148.365 243.873,137.699 239.5,127.5 Z"/></g>
<g><path style="opacity:1" fill="#eeeeee" d="M 0.5,167.5 C 9.16667,167.5 17.8333,167.5 26.5,167.5C 26.5,176.5 26.5,185.5 26.5,194.5C 18.0161,195.493 9.34945,195.826 0.5,195.5C 0.5,186.167 0.5,176.833 0.5,167.5 Z"/></g>
<g><path style="opacity:1" fill="#fefefe" d="M 26.5,167.5 C 27.8333,167.5 29.1667,167.5 30.5,167.5C 36.8333,167.5 43.1667,167.5 49.5,167.5C 51.1667,167.5 52.8333,167.5 54.5,167.5C 54.5,175.833 54.5,184.167 54.5,192.5C 54.5858,193.496 54.2524,194.329 53.5,195C 44.8397,195.5 36.1731,195.666 27.5,195.5C 27.5,194.833 27.1667,194.5 26.5,194.5C 26.5,185.5 26.5,176.5 26.5,167.5 Z"/></g>
<g><path style="opacity:1" fill="#eeeeee" d="M 54.5,167.5 C 63.8333,167.5 73.1667,167.5 82.5,167.5C 82.5,174.167 82.5,180.833 82.5,187.5C 81.8337,183.647 81.167,179.647 80.5,175.5C 79.5046,181.128 79.1712,186.794 79.5,192.5C 71.1667,192.5 62.8333,192.5 54.5,192.5C 54.5,184.167 54.5,175.833 54.5,167.5 Z"/></g>
<g><path style="opacity:1" fill="#fefefe" d="M 166.5,167.5 C 166.666,176.506 166.5,185.506 166,194.5C 163.959,195.423 161.792,195.756 159.5,195.5C 152.833,195.5 146.167,195.5 139.5,195.5C 139.5,194.833 139.167,194.5 138.5,194.5C 138.5,185.5 138.5,176.5 138.5,167.5C 147.833,167.5 157.167,167.5 166.5,167.5 Z"/></g>
<g><path style="opacity:1" fill="#eeeeee" d="M 166.5,167.5 C 175.833,167.5 185.167,167.5 194.5,167.5C 194.5,176.833 194.5,186.167 194.5,195.5C 185.167,195.5 175.833,195.5 166.5,195.5C 166.5,204.833 166.5,214.167 166.5,223.5C 164.833,223.5 163.167,223.5 161.5,223.5C 162.097,213.903 161.431,204.57 159.5,195.5C 161.792,195.756 163.959,195.423 166,194.5C 166.5,185.506 166.666,176.506 166.5,167.5 Z"/></g>
<g><path style="opacity:1" fill="#fefefe" d="M 194.5,167.5 C 203.833,167.5 213.167,167.5 222.5,167.5C 222.666,176.506 222.5,185.506 222,194.5C 219.959,195.423 217.792,195.756 215.5,195.5C 208.412,195.205 201.412,195.538 194.5,196.5C 194.5,196.167 194.5,195.833 194.5,195.5C 194.5,186.167 194.5,176.833 194.5,167.5 Z"/></g>
<g><path style="opacity:1" fill="#ecf6f5" d="M 278.5,167.5 C 279.087,175.829 280.42,183.829 282.5,191.5C 281.5,191.5 280.5,191.5 279.5,191.5C 279.5,192.5 279.5,193.5 279.5,194.5C 278.506,203.986 278.173,213.652 278.5,223.5C 277.5,223.5 276.5,223.5 275.5,223.5C 276.861,216.585 277.527,209.585 277.5,202.5C 277.499,198.651 277.165,194.984 276.5,191.5C 275.892,186.311 274.559,181.311 272.5,176.5C 271.644,172.456 269.978,168.789 267.5,165.5C 266.5,163.5 265.5,161.5 264.5,159.5C 263.788,154.059 260.788,150.726 255.5,149.5C 254.994,147.895 254.327,147.561 253.5,148.5C 252.549,149.919 252.216,151.585 252.5,153.5C 251.362,150.696 251.195,147.696 252,144.5C 252.333,144.833 252.667,145.167 253,145.5C 254.516,142.949 255.349,143.282 255.5,146.5C 256.833,146.5 258.167,146.5 259.5,146.5C 259.5,145.5 259.5,144.5 259.5,143.5C 261.5,143.5 263.5,143.5 265.5,143.5C 265.5,144.5 265.5,145.5 265.5,146.5C 267.5,146.167 269.5,145.833 271.5,145.5C 271.785,147.288 271.452,148.955 270.5,150.5C 268.76,151.836 267.093,153.17 265.5,154.5C 266.015,156.225 266.682,157.892 267.5,159.5C 268.386,158.675 268.719,157.675 268.5,156.5C 269.5,156.5 270.5,156.5 271.5,156.5C 267.109,164.615 269.443,168.281 278.5,167.5 Z"/></g>
<g><path style="opacity:1" fill="#eeeded" d="M 278.5,167.5 C 287.833,167.5 297.167,167.5 306.5,167.5C 306.5,176.5 306.5,185.5 306.5,194.5C 297.5,195.833 288.5,195.833 279.5,194.5C 279.5,193.5 279.5,192.5 279.5,191.5C 280.5,191.5 281.5,191.5 282.5,191.5C 280.42,183.829 279.087,175.829 278.5,167.5 Z"/></g>
<g><path style="opacity:1" fill="#fefefe" d="M 306.5,167.5 C 307.833,167.5 309.167,167.5 310.5,167.5C 316.833,167.5 323.167,167.5 329.5,167.5C 331.167,167.5 332.833,167.5 334.5,167.5C 334.666,176.506 334.5,185.506 334,194.5C 325.251,195.484 316.418,195.817 307.5,195.5C 307.5,194.833 307.167,194.5 306.5,194.5C 306.5,185.5 306.5,176.5 306.5,167.5 Z"/></g>
<g><path style="opacity:1" fill="#eeeeee" d="M 334.5,167.5 C 342.5,167.5 350.5,167.5 358.5,167.5C 358.5,176.833 358.5,186.167 358.5,195.5C 350.5,195.5 342.5,195.5 334.5,195.5C 334.5,204.833 334.5,214.167 334.5,223.5C 332.833,223.5 331.167,223.5 329.5,223.5C 329.832,214.475 329.498,205.475 328.5,196.5C 322.19,197.13 315.856,197.796 309.5,198.5C 310.47,206.778 310.803,215.111 310.5,223.5C 309.167,223.5 307.833,223.5 306.5,223.5C 306.195,214.083 306.528,204.75 307.5,195.5C 316.418,195.817 325.251,195.484 334,194.5C 334.5,185.506 334.666,176.506 334.5,167.5 Z"/></g>
<g><path style="opacity:1" fill="#23677c" d="M 246.5,159.5 C 246.431,164.854 246.098,170.187 245.5,175.5C 243.012,184.62 239.345,193.287 234.5,201.5C 232.674,203.147 231.34,205.147 230.5,207.5C 226.187,211.478 221.854,215.478 217.5,219.5C 219.333,215.834 221.333,211.834 223.5,207.5C 223.5,207.167 223.5,206.833 223.5,206.5C 226.842,200.391 228.676,193.725 229,186.5C 229.594,180.144 229.427,173.811 228.5,167.5C 228.833,167.5 229.167,167.5 229.5,167.5C 229.369,168.239 229.536,168.906 230,169.5C 230.333,167.833 230.667,166.167 231,164.5C 231.333,165.5 231.667,166.5 232,167.5C 232.333,163.833 232.667,160.167 233,156.5C 234.154,155.257 235.488,154.257 237,153.5C 236.785,156.847 237.451,160.181 239,163.5C 238.771,159.121 240.104,155.454 243,152.5C 243.497,154.81 243.663,157.143 243.5,159.5C 244.5,159.5 245.5,159.5 246.5,159.5 Z"/></g>
<g><path style="opacity:1" fill="#ebeeee" d="M 171.5,143.5 C 170.152,144.601 168.652,145.601 167,146.5C 166.383,147.449 166.549,148.282 167.5,149C 164.833,149.667 164.833,150.333 167.5,151C 166.527,156.407 166.193,161.907 166.5,167.5C 157.167,167.5 147.833,167.5 138.5,167.5C 138.5,176.5 138.5,185.5 138.5,194.5C 133.025,195.489 127.358,195.822 121.5,195.5C 120.882,189.514 122.715,184.514 127,180.5C 127.497,178.19 127.663,175.857 127.5,173.5C 131.089,166.251 136.089,160.251 142.5,155.5C 143.167,155.5 143.5,155.167 143.5,154.5C 150.18,150.325 157.18,146.992 164.5,144.5C 166.806,144.007 169.139,143.674 171.5,143.5 Z"/></g>
<g><path style="opacity:1" fill="#158a87" d="M 119.5,171.5 C 119.5,172.833 119.5,174.167 119.5,175.5C 118.167,175.5 116.833,175.5 115.5,175.5C 114.454,179.924 113.121,184.257 111.5,188.5C 108.111,191.124 107.778,190.624 110.5,187C 109.101,186.405 107.768,186.572 106.5,187.5C 105.667,186.5 104.833,185.5 104,184.5C 103.667,185.167 103.333,185.833 103,186.5C 100.978,185.214 98.8111,184.214 96.5,183.5C 95.1936,182.088 94.3603,180.421 94,178.5C 92.8978,179.949 91.7311,181.282 90.5,182.5C 88.9696,188.304 87.3029,193.971 85.5,199.5C 85.9683,191.237 87.6349,183.237 90.5,175.5C 91.1667,174.833 91.8333,174.167 92.5,173.5C 96.3974,171.113 99.8974,168.113 103,164.5C 106.196,167.817 106.03,171.15 102.5,174.5C 104.045,175.452 105.712,175.785 107.5,175.5C 107.575,172.794 107.908,170.127 108.5,167.5C 109.5,167.5 110.5,167.5 111.5,167.5C 111.34,169.199 111.506,170.866 112,172.5C 114.672,169.031 117.172,168.698 119.5,171.5 Z"/></g>
<g><path style="opacity:1" fill="#daf0f4" d="M 223.5,156.5 C 225.446,160.058 227.113,163.725 228.5,167.5C 229.427,173.811 229.594,180.144 229,186.5C 228.676,193.725 226.842,200.391 223.5,206.5C 223.384,202.298 224.217,198.298 226,194.5C 227.223,181.634 226.39,168.968 223.5,156.5 Z"/></g>
<g><path style="opacity:1" fill="#0f9289" d="M 111.5,188.5 C 110.69,190.798 109.856,193.132 109,195.5C 108.027,207.591 108.527,219.591 110.5,231.5C 108.745,229.197 107.578,226.53 107,223.5C 106.501,218.177 106.334,212.844 106.5,207.5C 106.048,203.837 105.548,200.17 105,196.5C 104.667,197.5 104.333,198.5 104,199.5C 103.667,196.833 103.333,194.167 103,191.5C 102.517,192.448 102.351,193.448 102.5,194.5C 101.5,194.5 100.5,194.5 99.5,194.5C 99.5,193.5 99.5,192.5 99.5,191.5C 98.1667,191.5 96.8333,191.5 95.5,191.5C 95.9783,194.278 94.9783,196.278 92.5,197.5C 92.1667,196.5 91.8333,195.5 91.5,194.5C 93.0636,191.292 93.5636,187.959 93,184.5C 92.2917,183.619 91.4584,182.953 90.5,182.5C 91.7311,181.282 92.8978,179.949 94,178.5C 94.3603,180.421 95.1936,182.088 96.5,183.5C 98.8111,184.214 100.978,185.214 103,186.5C 103.333,185.833 103.667,185.167 104,184.5C 104.833,185.5 105.667,186.5 106.5,187.5C 107.768,186.572 109.101,186.405 110.5,187C 107.778,190.624 108.111,191.124 111.5,188.5 Z"/></g>
<g><path style="opacity:1" fill="#1a6e75" d="M 142.5,155.5 C 136.089,160.251 131.089,166.251 127.5,173.5C 125.479,175.032 123.979,177.032 123,179.5C 117.358,193.956 116.192,208.622 119.5,223.5C 122.446,235.724 127.78,246.724 135.5,256.5C 141.247,262.585 147.581,267.918 154.5,272.5C 150.881,271.756 147.215,271.423 143.5,271.5C 143.677,269.019 142.677,267.186 140.5,266C 138.236,265.764 136.069,265.264 134,264.5C 133.667,261.833 133.333,259.167 133,256.5C 132.196,257.804 131.029,258.471 129.5,258.5C 127.816,257.473 126.149,256.473 124.5,255.5C 121.531,252.358 118.698,249.025 116,245.5C 115.187,243.564 114.687,241.564 114.5,239.5C 113.5,239.5 112.5,239.5 111.5,239.5C 111.5,238.167 111.5,236.833 111.5,235.5C 111.768,233.901 111.434,232.568 110.5,231.5C 108.527,219.591 108.027,207.591 109,195.5C 109.856,193.132 110.69,190.798 111.5,188.5C 113.121,184.257 114.454,179.924 115.5,175.5C 116.833,175.5 118.167,175.5 119.5,175.5C 119.5,174.167 119.5,172.833 119.5,171.5C 123.478,168.859 127.144,165.192 130.5,160.5C 133.453,159.213 135.786,157.213 137.5,154.5C 139.071,155.309 140.738,155.643 142.5,155.5 Z"/></g>
<g><path style="opacity:1" fill="#0f7272" d="M 255.5,149.5 C 255.833,150.5 256.5,151.167 257.5,151.5C 260.346,158.548 262.513,165.881 264,173.5C 265.08,184.993 264.247,196.327 261.5,207.5C 259.641,210.529 257.641,213.529 255.5,216.5C 256.986,209.373 258.653,202.207 260.5,195C 259.199,189.497 259.199,183.997 260.5,178.5C 260.36,176.97 259.693,175.97 258.5,175.5C 258.541,166.147 256.875,157.147 253.5,148.5C 254.327,147.561 254.994,147.895 255.5,149.5 Z"/></g>
<g><path style="opacity:1" fill="#0bb993" d="M 267.5,165.5 C 269.978,168.789 271.644,172.456 272.5,176.5C 274.323,185.319 274.823,194.319 274,203.5C 273.781,204.938 273.281,206.271 272.5,207.5C 271.833,205.833 271.167,204.167 270.5,202.5C 270.167,202.667 269.833,202.833 269.5,203C 268.958,205.255 267.791,207.088 266,208.5C 265.13,207.892 264.63,207.059 264.5,206C 265.446,202.49 266.78,199.157 268.5,196C 267.006,188.473 266.006,180.973 265.5,173.5C 264.737,170.859 264.57,168.192 265,165.5C 265.77,164.402 266.603,164.402 267.5,165.5 Z"/></g>
<g><path style="opacity:1" fill="#fefefe" d="M 26.5,194.5 C 27.1667,194.5 27.5,194.833 27.5,195.5C 26.5279,204.75 26.1945,214.083 26.5,223.5C 17.8333,223.5 9.16667,223.5 0.5,223.5C 0.5,214.167 0.5,204.833 0.5,195.5C 9.34945,195.826 18.0161,195.493 26.5,194.5 Z"/></g>
<g><path style="opacity:1" fill="#fdfdfd" d="M 82.5,167.5 C 86.7016,167.183 90.7016,167.517 94.5,168.5C 93.5592,170.05 92.8925,171.716 92.5,173.5C 91.8333,174.167 91.1667,174.833 90.5,175.5C 87.7768,177.772 85.9435,180.772 85,184.5C 84.523,192.398 83.6897,200.231 82.5,208C 83.579,216.158 84.7457,224.325 86,232.5C 88.6836,236.195 90.5169,240.195 91.5,244.5C 92.9587,244.433 94.2921,244.766 95.5,245.5C 95.3253,247.621 95.6586,249.621 96.5,251.5C 91.737,251.226 87.0704,251.559 82.5,252.5C 82.5,252.167 82.5,251.833 82.5,251.5C 82.6665,242.161 82.4998,232.827 82,223.5C 81.1822,228.794 80.6822,228.794 80.5,223.5C 71.8333,223.5 63.1667,223.5 54.5,223.5C 54.5,214.167 54.5,204.833 54.5,195.5C 63.1731,195.666 71.8397,195.5 80.5,195C 81.2202,192.509 81.8869,190.009 82.5,187.5C 82.5,180.833 82.5,174.167 82.5,167.5 Z"/></g>
<g><path style="opacity:1" fill="#f8fcfc" d="M 138.5,194.5 C 139.167,194.5 139.5,194.833 139.5,195.5C 138.863,203.266 138.196,210.933 137.5,218.5C 133.917,213.673 131.084,208.339 129,202.5C 128.502,205.482 128.335,208.482 128.5,211.5C 128.5,215.5 128.5,219.5 128.5,223.5C 125.5,223.5 122.5,223.5 119.5,223.5C 118.404,215.159 118.404,206.826 119.5,198.5C 119.64,196.97 120.307,195.97 121.5,195.5C 127.358,195.822 133.025,195.489 138.5,194.5 Z"/></g>
<g><path style="opacity:1" fill="#fefefe" d="M 194.5,195.5 C 194.5,195.833 194.5,196.167 194.5,196.5C 194.5,205.5 194.5,214.5 194.5,223.5C 185.167,223.5 175.833,223.5 166.5,223.5C 166.5,214.167 166.5,204.833 166.5,195.5C 175.833,195.5 185.167,195.5 194.5,195.5 Z"/></g>
<g><path style="opacity:1" fill="#fdfefe" d="M 279.5,194.5 C 288.5,195.833 297.5,195.833 306.5,194.5C 307.167,194.5 307.5,194.833 307.5,195.5C 306.528,204.75 306.195,214.083 306.5,223.5C 297.167,223.5 287.833,223.5 278.5,223.5C 278.173,213.652 278.506,203.986 279.5,194.5 Z"/></g>
<g><path style="opacity:1" fill="#fefefe" d="M 358.5,195.5 C 358.5,204.833 358.5,214.167 358.5,223.5C 350.5,223.5 342.5,223.5 334.5,223.5C 334.5,214.167 334.5,204.833 334.5,195.5C 342.5,195.5 350.5,195.5 358.5,195.5 Z"/></g>
<g><path style="opacity:1" fill="#ededed" d="M 82.5,187.5 C 81.8869,190.009 81.2202,192.509 80.5,195C 71.8397,195.5 63.1731,195.666 54.5,195.5C 54.5,204.833 54.5,214.167 54.5,223.5C 45.1667,223.5 35.8333,223.5 26.5,223.5C 26.1945,214.083 26.5279,204.75 27.5,195.5C 36.1731,195.666 44.8397,195.5 53.5,195C 54.2524,194.329 54.5858,193.496 54.5,192.5C 62.8333,192.5 71.1667,192.5 79.5,192.5C 79.1712,186.794 79.5046,181.128 80.5,175.5C 81.167,179.647 81.8337,183.647 82.5,187.5 Z"/></g>
<g><path style="opacity:1" fill="#199a8d" d="M 90.5,182.5 C 91.4584,182.953 92.2917,183.619 93,184.5C 93.5636,187.959 93.0636,191.292 91.5,194.5C 91.8333,195.5 92.1667,196.5 92.5,197.5C 94.9783,196.278 95.9783,194.278 95.5,191.5C 96.8333,191.5 98.1667,191.5 99.5,191.5C 99.5,192.5 99.5,193.5 99.5,194.5C 100.5,194.5 101.5,194.5 102.5,194.5C 102.351,193.448 102.517,192.448 103,191.5C 103.333,194.167 103.667,196.833 104,199.5C 104.333,198.5 104.667,197.5 105,196.5C 105.548,200.17 106.048,203.837 106.5,207.5C 105.732,208.263 105.232,209.263 105,210.5C 103.691,208.314 103.524,206.147 104.5,204C 101.51,203.153 100.176,204.32 100.5,207.5C 99.1667,207.5 97.8333,207.5 96.5,207.5C 96.067,204.834 95.567,202.168 95,199.5C 93.3305,203.346 92.1639,207.346 91.5,211.5C 90.3453,207.573 89.512,203.573 89,199.5C 88.3333,200.833 87.6667,202.167 87,203.5C 86.8255,208.351 86.3255,213.018 85.5,217.5C 84.2338,211.37 84.2338,205.37 85.5,199.5C 87.3029,193.971 88.9696,188.304 90.5,182.5 Z"/></g>
<g><path style="opacity:1" fill="#ededee" d="M 139.5,195.5 C 146.167,195.5 152.833,195.5 159.5,195.5C 161.431,204.57 162.097,213.903 161.5,223.5C 154.833,223.5 148.167,223.5 141.5,223.5C 139.937,222.055 138.604,220.389 137.5,218.5C 138.196,210.933 138.863,203.266 139.5,195.5 Z"/></g>
<g><path style="opacity:1" fill="#eceeee" d="M 215.5,195.5 C 218.114,198.958 219.114,202.958 218.5,207.5C 220.167,207.5 221.833,207.5 223.5,207.5C 221.333,211.834 219.333,215.834 217.5,219.5C 221.854,215.478 226.187,211.478 230.5,207.5C 231.507,209.57 231.174,211.57 229.5,213.5C 227.795,215.303 225.962,215.969 224,215.5C 223.605,218.207 223.105,220.873 222.5,223.5C 213.167,223.5 203.833,223.5 194.5,223.5C 194.5,214.5 194.5,205.5 194.5,196.5C 201.412,195.538 208.412,195.205 215.5,195.5 Z"/></g>
<g><path style="opacity:1" fill="#ededed" d="M 329.5,223.5 C 323.167,223.5 316.833,223.5 310.5,223.5C 310.803,215.111 310.47,206.778 309.5,198.5C 315.856,197.796 322.19,197.13 328.5,196.5C 329.498,205.475 329.832,214.475 329.5,223.5 Z"/></g>
<g><path style="opacity:1" fill="#d4e7eb" d="M 245.5,175.5 C 245.75,180.58 245.25,185.58 244,190.5C 240.84,192.083 241.007,193.583 244.5,195C 243.101,195.595 241.768,195.428 240.5,194.5C 239.548,197.781 237.548,200.115 234.5,201.5C 239.345,193.287 243.012,184.62 245.5,175.5 Z"/></g>
<g><path style="opacity:1" fill="#d6f2f4" d="M 127.5,173.5 C 127.663,175.857 127.497,178.19 127,180.5C 122.715,184.514 120.882,189.514 121.5,195.5C 120.307,195.97 119.64,196.97 119.5,198.5C 118.404,206.826 118.404,215.159 119.5,223.5C 116.192,208.622 117.358,193.956 123,179.5C 123.979,177.032 125.479,175.032 127.5,173.5 Z"/></g>
<g><path style="opacity:1" fill="#f6fafa" d="M 248.5,167.5 C 248.336,170.187 248.503,172.854 249,175.5C 249.183,172.635 249.683,169.969 250.5,167.5C 252.167,167.5 253.833,167.5 255.5,167.5C 256.222,167.918 256.722,168.584 257,169.5C 257.499,174.155 257.666,178.821 257.5,183.5C 255.445,198.94 249.112,212.274 238.5,223.5C 233.319,223.931 227.986,223.931 222.5,223.5C 223.105,220.873 223.605,218.207 224,215.5C 225.962,215.969 227.795,215.303 229.5,213.5C 231.174,211.57 231.507,209.57 230.5,207.5C 231.34,205.147 232.674,203.147 234.5,201.5C 237.548,200.115 239.548,197.781 240.5,194.5C 241.768,195.428 243.101,195.595 244.5,195C 241.007,193.583 240.84,192.083 244,190.5C 245.25,185.58 245.75,180.58 245.5,175.5C 247.098,173.143 248.098,170.477 248.5,167.5 Z"/></g>
<g><path style="opacity:1" fill="#13b192" d="M 265.5,173.5 C 266.006,180.973 267.006,188.473 268.5,196C 266.78,199.157 265.446,202.49 264.5,206C 264.63,207.059 265.13,207.892 266,208.5C 267.791,207.088 268.958,205.255 269.5,203C 269.833,202.833 270.167,202.667 270.5,202.5C 271.167,204.167 271.833,205.833 272.5,207.5C 273.281,206.271 273.781,204.938 274,203.5C 274.823,194.319 274.323,185.319 272.5,176.5C 274.559,181.311 275.892,186.311 276.5,191.5C 277.345,204.454 275.345,216.788 270.5,228.5C 268.335,230.971 266.168,233.638 264,236.5C 262.684,233.312 262.184,229.978 262.5,226.5C 261.448,226.351 260.448,226.517 259.5,227C 257.826,228.506 256.826,230.339 256.5,232.5C 254.088,232.244 252.421,233.244 251.5,235.5C 250.692,235.192 250.025,234.692 249.5,234C 250.67,232.245 252.337,231.245 254.5,231C 253.833,230.667 253.167,230.333 252.5,230C 253.423,227.959 253.756,225.792 253.5,223.5C 254.833,223.5 256.167,223.5 257.5,223.5C 259.957,218.581 261.29,213.247 261.5,207.5C 263.195,205.268 264.362,202.601 265,199.5C 265.5,190.84 265.666,182.173 265.5,173.5 Z"/></g>
<g><path style="opacity:1" fill="#11a38e" d="M 106.5,207.5 C 106.334,212.844 106.501,218.177 107,223.5C 107.578,226.53 108.745,229.197 110.5,231.5C 111.434,232.568 111.768,233.901 111.5,235.5C 109.299,232.979 106.966,230.479 104.5,228C 99.8011,228.279 95.8011,226.945 92.5,224C 91.552,223.517 90.552,223.351 89.5,223.5C 92.2962,229.493 94.4629,235.826 96,242.5C 98.2841,244.736 99.7841,247.402 100.5,250.5C 98.6053,249.027 96.9387,247.36 95.5,245.5C 93.635,240.766 91.4683,236.099 89,231.5C 87.9297,226.793 86.763,222.126 85.5,217.5C 86.3255,213.018 86.8255,208.351 87,203.5C 87.6667,202.167 88.3333,200.833 89,199.5C 89.512,203.573 90.3453,207.573 91.5,211.5C 92.1639,207.346 93.3305,203.346 95,199.5C 95.567,202.168 96.067,204.834 96.5,207.5C 97.8333,207.5 99.1667,207.5 100.5,207.5C 100.176,204.32 101.51,203.153 104.5,204C 103.524,206.147 103.691,208.314 105,210.5C 105.232,209.263 105.732,208.263 106.5,207.5 Z"/></g>
<g><path style="opacity:1" fill="#eeeeee" d="M 0.5,223.5 C 9.16667,223.5 17.8333,223.5 26.5,223.5C 26.5,232.5 26.5,241.5 26.5,250.5C 18.0161,251.493 9.34945,251.826 0.5,251.5C 0.5,242.167 0.5,232.833 0.5,223.5 Z"/></g>
<g><path style="opacity:1" fill="#fefefe" d="M 26.5,223.5 C 35.8333,223.5 45.1667,223.5 54.5,223.5C 54.6664,232.506 54.4998,241.506 54,250.5C 45.2511,251.484 36.4178,251.817 27.5,251.5C 27.5,250.833 27.1667,250.5 26.5,250.5C 26.5,241.5 26.5,232.5 26.5,223.5 Z"/></g>
<g><path style="opacity:1" fill="#eeeeee" d="M 54.5,223.5 C 63.1667,223.5 71.8333,223.5 80.5,223.5C 80.6822,228.794 81.1822,228.794 82,223.5C 82.4998,232.827 82.6665,242.161 82.5,251.5C 73.1667,251.5 63.8333,251.5 54.5,251.5C 54.5,260.833 54.5,270.167 54.5,279.5C 52.8333,279.5 51.1667,279.5 49.5,279.5C 49.8315,270.475 49.4982,261.475 48.5,252.5C 42.1898,253.13 35.8565,253.796 29.5,254.5C 30.4699,262.778 30.8032,271.111 30.5,279.5C 29.1667,279.5 27.8333,279.5 26.5,279.5C 26.1945,270.083 26.5279,260.75 27.5,251.5C 36.4178,251.817 45.2511,251.484 54,250.5C 54.4998,241.506 54.6664,232.506 54.5,223.5 Z"/></g>
<g><path style="opacity:1" fill="#f6fafa" d="M 141.5,223.5 C 148.167,223.5 154.833,223.5 161.5,223.5C 163.167,223.5 164.833,223.5 166.5,223.5C 166.5,228.833 166.5,234.167 166.5,239.5C 164.833,239.5 163.167,239.5 161.5,239.5C 156.915,237.569 152.581,235.235 148.5,232.5C 145.785,229.786 143.451,226.786 141.5,223.5 Z"/></g>
<g><path style="opacity:1" fill="#ebeded" d="M 166.5,223.5 C 175.833,223.5 185.167,223.5 194.5,223.5C 194.5,230.5 194.5,237.5 194.5,244.5C 196.167,244.5 197.833,244.5 199.5,244.5C 196.45,245.935 193.117,246.602 189.5,246.5C 184.841,246.001 180.174,245.667 175.5,245.5C 170.492,244.36 165.826,242.36 161.5,239.5C 163.167,239.5 164.833,239.5 166.5,239.5C 166.5,234.167 166.5,228.833 166.5,223.5 Z"/></g>
<g><path style="opacity:1" fill="#fcfdfd" d="M 194.5,223.5 C 203.833,223.5 213.167,223.5 222.5,223.5C 222.833,227.999 222.833,232.332 222.5,236.5C 215.365,240.767 207.698,243.434 199.5,244.5C 197.833,244.5 196.167,244.5 194.5,244.5C 194.5,237.5 194.5,230.5 194.5,223.5 Z"/></g>
<g><path style="opacity:1" fill="#186d73" d="M 258.5,175.5 C 259.693,175.97 260.36,176.97 260.5,178.5C 259.199,183.997 259.199,189.497 260.5,195C 258.653,202.207 256.986,209.373 255.5,216.5C 254.416,219.004 253.083,221.337 251.5,223.5C 248.5,226.833 245.5,230.167 242.5,233.5C 240.906,233.92 239.406,234.586 238,235.5C 236.376,233.681 234.21,232.347 231.5,231.5C 233.833,228.833 236.167,226.167 238.5,223.5C 249.112,212.274 255.445,198.94 257.5,183.5C 258.473,181.052 258.806,178.385 258.5,175.5 Z"/></g>
<g><path style="opacity:1" fill="#edeeee" d="M 278.5,223.5 C 287.833,223.5 297.167,223.5 306.5,223.5C 306.5,232.833 306.5,242.167 306.5,251.5C 297.167,251.5 287.833,251.5 278.5,251.5C 278.224,242.073 278.224,232.74 278.5,223.5 Z"/></g>
<g><path style="opacity:1" fill="#fefefe" d="M 306.5,223.5 C 307.833,223.5 309.167,223.5 310.5,223.5C 316.833,223.5 323.167,223.5 329.5,223.5C 331.167,223.5 332.833,223.5 334.5,223.5C 334.5,232.5 334.5,241.5 334.5,250.5C 325.167,251.167 315.833,251.833 306.5,252.5C 306.5,252.167 306.5,251.833 306.5,251.5C 306.5,242.167 306.5,232.833 306.5,223.5 Z"/></g>
<g><path style="opacity:1" fill="#ededed" d="M 334.5,223.5 C 342.5,223.5 350.5,223.5 358.5,223.5C 358.5,232.833 358.5,242.167 358.5,251.5C 350.5,251.5 342.5,251.5 334.5,251.5C 334.5,251.167 334.5,250.833 334.5,250.5C 334.5,241.5 334.5,232.5 334.5,223.5 Z"/></g>
<g><path style="opacity:1" fill="#cbfaf1" d="M 276.5,191.5 C 277.165,194.984 277.499,198.651 277.5,202.5C 277.527,209.585 276.861,216.585 275.5,223.5C 275.657,224.873 275.49,226.207 275,227.5C 272.788,229.254 270.955,231.254 269.5,233.5C 270.038,231.883 270.371,230.216 270.5,228.5C 275.345,216.788 277.345,204.454 276.5,191.5 Z"/></g>
<g><path style="opacity:1" fill="#e8eeef" d="M 222.5,223.5 C 227.986,223.931 233.319,223.931 238.5,223.5C 236.167,226.167 233.833,228.833 231.5,231.5C 228.688,233.408 225.688,235.075 222.5,236.5C 222.833,232.332 222.833,227.999 222.5,223.5 Z"/></g>
<g><path style="opacity:1" fill="#10a68f" d="M 261.5,207.5 C 261.29,213.247 259.957,218.581 257.5,223.5C 256.167,223.5 254.833,223.5 253.5,223.5C 253.756,225.792 253.423,227.959 252.5,230C 253.167,230.333 253.833,230.667 254.5,231C 252.337,231.245 250.67,232.245 249.5,234C 250.025,234.692 250.692,235.192 251.5,235.5C 252.421,233.244 254.088,232.244 256.5,232.5C 256.826,230.339 257.826,228.506 259.5,227C 260.448,226.517 261.448,226.351 262.5,226.5C 262.184,229.978 262.684,233.312 264,236.5C 266.168,233.638 268.335,230.971 270.5,228.5C 270.371,230.216 270.038,231.883 269.5,233.5C 266.109,237.928 262.942,242.594 260,247.5C 258.629,249.041 257.129,250.375 255.5,251.5C 250.849,250.99 248.016,252.99 247,257.5C 245.701,256.91 244.868,255.91 244.5,254.5C 245.156,252.547 245.489,250.547 245.5,248.5C 248.548,246.707 251.882,245.707 255.5,245.5C 255.5,244.5 255.5,243.5 255.5,242.5C 253.08,242.292 250.747,242.626 248.5,243.5C 246.639,242.472 245.305,240.972 244.5,239C 244.964,233.936 247.131,229.77 251,226.5C 251.483,225.552 251.649,224.552 251.5,223.5C 253.083,221.337 254.416,219.004 255.5,216.5C 257.641,213.529 259.641,210.529 261.5,207.5 Z"/></g>
<g><path style="opacity:1" fill="#d8f8f6" d="M 90.5,175.5 C 87.6349,183.237 85.9683,191.237 85.5,199.5C 84.2338,205.37 84.2338,211.37 85.5,217.5C 86.763,222.126 87.9297,226.793 89,231.5C 91.4683,236.099 93.635,240.766 95.5,245.5C 94.2921,244.766 92.9587,244.433 91.5,244.5C 90.5169,240.195 88.6836,236.195 86,232.5C 84.7457,224.325 83.579,216.158 82.5,208C 83.6897,200.231 84.523,192.398 85,184.5C 85.9435,180.772 87.7768,177.772 90.5,175.5 Z"/></g>
<g><path style="opacity:1" fill="#10b092" d="M 111.5,235.5 C 111.5,236.833 111.5,238.167 111.5,239.5C 112.5,239.5 113.5,239.5 114.5,239.5C 114.687,241.564 115.187,243.564 116,245.5C 118.698,249.025 121.531,252.358 124.5,255.5C 127.519,259.533 130.852,263.366 134.5,267C 137.684,267.754 140.351,269.254 142.5,271.5C 139.319,270.666 136.152,269.666 133,268.5C 130.715,269.296 128.881,270.629 127.5,272.5C 125.02,271.758 122.687,270.758 120.5,269.5C 119.833,269.5 119.5,269.167 119.5,268.5C 114.238,265.244 109.238,261.578 104.5,257.5C 103.139,255.15 101.806,252.816 100.5,250.5C 99.7841,247.402 98.2841,244.736 96,242.5C 94.4629,235.826 92.2962,229.493 89.5,223.5C 90.552,223.351 91.552,223.517 92.5,224C 95.8011,226.945 99.8011,228.279 104.5,228C 106.966,230.479 109.299,232.979 111.5,235.5 Z"/></g>
<g><path style="opacity:1" fill="#27657a" d="M 137.5,218.5 C 138.604,220.389 139.937,222.055 141.5,223.5C 143.451,226.786 145.785,229.786 148.5,232.5C 147.957,232.56 147.624,232.893 147.5,233.5C 149.401,234.545 151.067,235.878 152.5,237.5C 151.833,238.167 151.167,238.833 150.5,239.5C 154.102,241.322 154.102,242.322 150.5,242.5C 150.587,245.598 150.087,245.932 149,243.5C 147.965,246.649 148.632,249.316 151,251.5C 151.667,248.833 152.333,248.833 153,251.5C 154.587,250.273 155.921,250.606 157,252.5C 159.144,255.475 160.311,258.475 160.5,261.5C 154.247,257.916 148.914,253.249 144.5,247.5C 136.625,236.51 131.292,224.51 128.5,211.5C 128.335,208.482 128.502,205.482 129,202.5C 131.084,208.339 133.917,213.673 137.5,218.5 Z"/></g>
<g><path style="opacity:1" fill="#1b7175" d="M 231.5,231.5 C 234.21,232.347 236.376,233.681 238,235.5C 239.406,234.586 240.906,233.92 242.5,233.5C 241.547,235.61 239.881,236.777 237.5,237C 236.748,237.671 236.414,238.504 236.5,239.5C 232.317,241.757 227.984,243.757 223.5,245.5C 223.5,246.5 223.5,247.5 223.5,248.5C 218.263,249.797 212.93,250.464 207.5,250.5C 205.107,249.79 202.607,249.123 200,248.5C 197.646,250.637 194.812,251.637 191.5,251.5C 191.5,250.5 191.5,249.5 191.5,248.5C 186.167,248.5 180.833,248.5 175.5,248.5C 175.5,247.5 175.5,246.5 175.5,245.5C 180.174,245.667 184.841,246.001 189.5,246.5C 193.117,246.602 196.45,245.935 199.5,244.5C 207.698,243.434 215.365,240.767 222.5,236.5C 225.688,235.075 228.688,233.408 231.5,231.5 Z"/></g>
<g><path style="opacity:1" fill="#daf7f5" d="M 269.5,233.5 C 269.196,236.522 268.696,239.522 268,242.5C 264.971,245.031 262.471,248.031 260.5,251.5C 259.145,254.518 256.812,255.851 253.5,255.5C 253.798,259.653 251.798,261.653 247.5,261.5C 246.833,261.5 246.167,261.5 245.5,261.5C 249.14,258.527 252.473,255.194 255.5,251.5C 257.129,250.375 258.629,249.041 260,247.5C 262.942,242.594 266.109,237.928 269.5,233.5 Z"/></g>
<g><path style="opacity:1" fill="#ebf0f0" d="M 128.5,211.5 C 131.292,224.51 136.625,236.51 144.5,247.5C 145.008,249.865 145.675,252.199 146.5,254.5C 145.675,255.386 144.675,255.719 143.5,255.5C 143.5,256.5 143.5,257.5 143.5,258.5C 140.673,258.416 138.006,257.75 135.5,256.5C 127.78,246.724 122.446,235.724 119.5,223.5C 122.5,223.5 125.5,223.5 128.5,223.5C 128.5,219.5 128.5,215.5 128.5,211.5 Z"/></g>
<g><path style="opacity:1" fill="#1b6d7f" d="M 148.5,232.5 C 152.581,235.235 156.915,237.569 161.5,239.5C 165.826,242.36 170.492,244.36 175.5,245.5C 175.5,246.5 175.5,247.5 175.5,248.5C 175.44,249.043 175.107,249.376 174.5,249.5C 172.999,248.248 171.332,247.248 169.5,246.5C 167.584,247.248 165.584,247.248 163.5,246.5C 163.215,248.288 163.548,249.955 164.5,251.5C 167.788,252.477 170.788,253.977 173.5,256C 171.167,257.667 168.833,259.333 166.5,261C 164.527,261.495 162.527,261.662 160.5,261.5C 160.311,258.475 159.144,255.475 157,252.5C 155.921,250.606 154.587,250.273 153,251.5C 152.333,248.833 151.667,248.833 151,251.5C 148.632,249.316 147.965,246.649 149,243.5C 150.087,245.932 150.587,245.598 150.5,242.5C 154.102,242.322 154.102,241.322 150.5,239.5C 151.167,238.833 151.833,238.167 152.5,237.5C 151.067,235.878 149.401,234.545 147.5,233.5C 147.624,232.893 147.957,232.56 148.5,232.5 Z"/></g>
<g><path style="opacity:1" fill="#fefefe" d="M 26.5,250.5 C 27.1667,250.5 27.5,250.833 27.5,251.5C 26.5279,260.75 26.1945,270.083 26.5,279.5C 17.8333,279.5 9.16667,279.5 0.5,279.5C 0.5,270.167 0.5,260.833 0.5,251.5C 9.34945,251.826 18.0161,251.493 26.5,250.5 Z"/></g>
<g><path style="opacity:1" fill="#fefefe" d="M 82.5,251.5 C 82.5,251.833 82.5,252.167 82.5,252.5C 82.5,261.5 82.5,270.5 82.5,279.5C 73.1667,279.5 63.8333,279.5 54.5,279.5C 54.5,270.167 54.5,260.833 54.5,251.5C 63.8333,251.5 73.1667,251.5 82.5,251.5 Z"/></g>
<g><path style="opacity:1" fill="#04b891" d="M 119.5,268.5 C 116.324,265.665 113.824,262.332 112,258.5C 111.667,259.167 111.333,259.833 111,260.5C 108.778,258.615 106.944,256.449 105.5,254C 106.497,252.404 107.663,250.904 109,249.5C 109.346,247.782 109.846,246.115 110.5,244.5C 109.106,243.313 109.273,242.646 111,242.5C 112.813,245.564 114.813,248.564 117,251.5C 118.011,252.337 119.178,252.67 120.5,252.5C 120.626,254.2 121.293,255.7 122.5,257C 121.713,259.099 121.38,261.266 121.5,263.5C 123.484,263.617 125.15,262.95 126.5,261.5C 127.474,263.743 127.808,266.076 127.5,268.5C 124.833,268.5 122.167,268.5 119.5,268.5 Z"/></g>
<g><path style="opacity:1" fill="#fefefe" d="M 275.5,223.5 C 276.5,223.5 277.5,223.5 278.5,223.5C 278.224,232.74 278.224,242.073 278.5,251.5C 287.833,251.5 297.167,251.5 306.5,251.5C 306.5,251.833 306.5,252.167 306.5,252.5C 306.5,261.5 306.5,270.5 306.5,279.5C 297.167,279.5 287.833,279.5 278.5,279.5C 278.666,270.494 278.5,261.494 278,252.5C 272.259,251.525 266.425,251.192 260.5,251.5C 262.471,248.031 264.971,245.031 268,242.5C 268.696,239.522 269.196,236.522 269.5,233.5C 270.955,231.254 272.788,229.254 275,227.5C 275.49,226.207 275.657,224.873 275.5,223.5 Z"/></g>
<g><path style="opacity:1" fill="#fefefe" d="M 334.5,251.5 C 342.5,251.5 350.5,251.5 358.5,251.5C 358.5,260.833 358.5,270.167 358.5,279.5C 350.5,279.5 342.5,279.5 334.5,279.5C 334.5,270.167 334.5,260.833 334.5,251.5 Z"/></g>
<g><path style="opacity:1" fill="#ededed" d="M 49.5,279.5 C 43.1667,279.5 36.8333,279.5 30.5,279.5C 30.8032,271.111 30.4699,262.778 29.5,254.5C 35.8565,253.796 42.1898,253.13 48.5,252.5C 49.4982,261.475 49.8315,270.475 49.5,279.5 Z"/></g>
<g><path style="opacity:1" fill="#c9f8f0" d="M 95.5,245.5 C 96.9387,247.36 98.6053,249.027 100.5,250.5C 101.806,252.816 103.139,255.15 104.5,257.5C 101.38,256.088 98.7137,254.088 96.5,251.5C 95.6586,249.621 95.3253,247.621 95.5,245.5 Z"/></g>
<g><path style="opacity:1" fill="#eeeeee" d="M 260.5,251.5 C 266.425,251.192 272.259,251.525 278,252.5C 278.5,261.494 278.666,270.494 278.5,279.5C 269.167,279.5 259.833,279.5 250.5,279.5C 250.666,274.489 250.499,269.489 250,264.5C 249.302,263.309 248.469,262.309 247.5,261.5C 251.798,261.653 253.798,259.653 253.5,255.5C 256.812,255.851 259.145,254.518 260.5,251.5 Z"/></g>
<g><path style="opacity:1" fill="#ededed" d="M 334.5,250.5 C 334.5,250.833 334.5,251.167 334.5,251.5C 334.5,260.833 334.5,270.167 334.5,279.5C 325.167,279.5 315.833,279.5 306.5,279.5C 306.5,270.5 306.5,261.5 306.5,252.5C 315.833,251.833 325.167,251.167 334.5,250.5 Z"/></g>
<g><path style="opacity:1" fill="#eeedee" d="M 96.5,251.5 C 98.7137,254.088 101.38,256.088 104.5,257.5C 104.92,259.094 105.586,260.594 106.5,262C 105.297,263.368 104.297,264.868 103.5,266.5C 104.167,266.833 104.833,267.167 105.5,267.5C 107.003,266.477 108.503,265.477 110,264.5C 112.375,264.818 113.542,266.151 113.5,268.5C 111.641,268.461 110.308,269.294 109.5,271C 110.444,273.719 110.777,276.552 110.5,279.5C 101.167,279.5 91.8333,279.5 82.5,279.5C 82.5,270.5 82.5,261.5 82.5,252.5C 87.0704,251.559 91.737,251.226 96.5,251.5 Z"/></g>
<g><path style="opacity:1" fill="#dceef0" d="M 144.5,247.5 C 148.914,253.249 154.247,257.916 160.5,261.5C 160.5,261.833 160.5,262.167 160.5,262.5C 156.315,261.714 152.482,260.047 149,257.5C 147.286,258.076 146.119,259.243 145.5,261C 148.09,264.259 151.256,266.759 155,268.5C 155.483,269.448 155.649,270.448 155.5,271.5C 157.483,271.157 158.817,271.824 159.5,273.5C 157.784,273.371 156.117,273.038 154.5,272.5C 147.581,267.918 141.247,262.585 135.5,256.5C 138.006,257.75 140.673,258.416 143.5,258.5C 143.5,257.5 143.5,256.5 143.5,255.5C 144.675,255.719 145.675,255.386 146.5,254.5C 145.675,252.199 145.008,249.865 144.5,247.5 Z"/></g>
<g><path style="opacity:1" fill="#197682" d="M 175.5,248.5 C 180.833,248.5 186.167,248.5 191.5,248.5C 191.5,249.5 191.5,250.5 191.5,251.5C 194.812,251.637 197.646,250.637 200,248.5C 202.607,249.123 205.107,249.79 207.5,250.5C 207.5,250.833 207.5,251.167 207.5,251.5C 197.685,251.629 188.018,252.795 178.5,255C 182.821,255.499 187.154,255.666 191.5,255.5C 191.5,260.833 191.5,266.167 191.5,271.5C 195.841,271.553 199.841,272.553 203.5,274.5C 196.41,274.659 189.41,273.993 182.5,272.5C 174.629,270.229 167.296,266.896 160.5,262.5C 160.5,262.167 160.5,261.833 160.5,261.5C 162.527,261.662 164.527,261.495 166.5,261C 168.833,259.333 171.167,257.667 173.5,256C 170.788,253.977 167.788,252.477 164.5,251.5C 163.548,249.955 163.215,248.288 163.5,246.5C 165.584,247.248 167.584,247.248 169.5,246.5C 171.332,247.248 172.999,248.248 174.5,249.5C 175.107,249.376 175.44,249.043 175.5,248.5 Z"/></g>
<g><path style="opacity:1" fill="#148285" d="M 207.5,251.5 C 207.53,252.497 207.03,253.164 206,253.5C 204.189,254.078 202.355,254.578 200.5,255C 206.353,255.681 212.019,255.181 217.5,253.5C 219.5,253.833 221.5,254.167 223.5,254.5C 219.893,255.489 216.226,255.823 212.5,255.5C 212.942,260.972 213.942,266.306 215.5,271.5C 217.5,271.5 219.5,271.5 221.5,271.5C 215.835,273.762 209.835,274.762 203.5,274.5C 199.841,272.553 195.841,271.553 191.5,271.5C 191.5,266.167 191.5,260.833 191.5,255.5C 187.154,255.666 182.821,255.499 178.5,255C 188.018,252.795 197.685,251.629 207.5,251.5 Z"/></g>
<g><path style="opacity:1" fill="#138e88" d="M 236.5,239.5 C 234.045,241.14 232.545,243.473 232,246.5C 229.594,247.565 227.427,248.898 225.5,250.5C 227.872,251.347 229.872,252.681 231.5,254.5C 229.838,255.327 228.505,256.493 227.5,258C 226.207,258.49 224.873,258.657 223.5,258.5C 223.351,259.552 223.517,260.552 224,261.5C 228.363,258.628 232.863,258.128 237.5,260C 233.586,261.908 229.92,264.241 226.5,267C 228.167,267.667 229.833,267.667 231.5,267C 234.971,264.928 238.638,263.428 242.5,262.5C 236.904,266.795 230.571,269.795 223.5,271.5C 222.833,271.5 222.167,271.5 221.5,271.5C 219.5,271.5 217.5,271.5 215.5,271.5C 213.942,266.306 212.942,260.972 212.5,255.5C 216.226,255.823 219.893,255.489 223.5,254.5C 221.5,254.167 219.5,253.833 217.5,253.5C 212.019,255.181 206.353,255.681 200.5,255C 202.355,254.578 204.189,254.078 206,253.5C 207.03,253.164 207.53,252.497 207.5,251.5C 207.5,251.167 207.5,250.833 207.5,250.5C 212.93,250.464 218.263,249.797 223.5,248.5C 223.5,247.5 223.5,246.5 223.5,245.5C 227.984,243.757 232.317,241.757 236.5,239.5 Z"/></g>
<g><path style="opacity:1" fill="#087a77" d="M 124.5,255.5 C 126.149,256.473 127.816,257.473 129.5,258.5C 131.029,258.471 132.196,257.804 133,256.5C 133.333,259.167 133.667,261.833 134,264.5C 136.069,265.264 138.236,265.764 140.5,266C 142.677,267.186 143.677,269.019 143.5,271.5C 143.167,271.5 142.833,271.5 142.5,271.5C 140.351,269.254 137.684,267.754 134.5,267C 130.852,263.366 127.519,259.533 124.5,255.5 Z"/></g>
<g><path style="opacity:1" fill="#109a8a" d="M 251.5,223.5 C 251.649,224.552 251.483,225.552 251,226.5C 247.131,229.77 244.964,233.936 244.5,239C 245.305,240.972 246.639,242.472 248.5,243.5C 250.747,242.626 253.08,242.292 255.5,242.5C 255.5,243.5 255.5,244.5 255.5,245.5C 251.882,245.707 248.548,246.707 245.5,248.5C 245.489,250.547 245.156,252.547 244.5,254.5C 244.868,255.91 245.701,256.91 247,257.5C 248.016,252.99 250.849,250.99 255.5,251.5C 252.473,255.194 249.14,258.527 245.5,261.5C 244.609,262.11 243.609,262.443 242.5,262.5C 238.638,263.428 234.971,264.928 231.5,267C 229.833,267.667 228.167,267.667 226.5,267C 229.92,264.241 233.586,261.908 237.5,260C 232.863,258.128 228.363,258.628 224,261.5C 223.517,260.552 223.351,259.552 223.5,258.5C 224.873,258.657 226.207,258.49 227.5,258C 228.505,256.493 229.838,255.327 231.5,254.5C 229.872,252.681 227.872,251.347 225.5,250.5C 227.427,248.898 229.594,247.565 232,246.5C 232.545,243.473 234.045,241.14 236.5,239.5C 236.414,238.504 236.748,237.671 237.5,237C 239.881,236.777 241.547,235.61 242.5,233.5C 245.5,230.167 248.5,226.833 251.5,223.5 Z"/></g>
<g><path style="opacity:1" fill="#a3ead8" d="M 120.5,269.5 C 122.687,270.758 125.02,271.758 127.5,272.5C 128.209,273.404 129.209,273.737 130.5,273.5C 130.5,273.833 130.5,274.167 130.5,274.5C 126.269,274.596 122.935,272.93 120.5,269.5 Z"/></g>
<g><path style="opacity:1" fill="#06bd92" d="M 142.5,271.5 C 142.833,271.5 143.167,271.5 143.5,271.5C 143.5,271.833 143.5,272.167 143.5,272.5C 141.952,272.821 141.285,273.821 141.5,275.5C 137.585,275.753 133.919,275.087 130.5,273.5C 129.209,273.737 128.209,273.404 127.5,272.5C 128.881,270.629 130.715,269.296 133,268.5C 136.152,269.666 139.319,270.666 142.5,271.5 Z"/></g>
<g><path style="opacity:1" fill="#247471" d="M 143.5,272.5 C 143.5,272.167 143.5,271.833 143.5,271.5C 147.215,271.423 150.881,271.756 154.5,272.5C 156.117,273.038 157.784,273.371 159.5,273.5C 162.994,276.177 166.994,278.01 171.5,279C 169.19,279.497 166.857,279.663 164.5,279.5C 164.389,278.883 164.056,278.383 163.5,278C 158.217,277.276 153.217,275.776 148.5,273.5C 146.883,272.962 145.216,272.629 143.5,272.5 Z"/></g>
<g><path style="opacity:1" fill="#2cb898" d="M 143.5,272.5 C 145.216,272.629 146.883,272.962 148.5,273.5C 148.511,275.017 149.177,276.184 150.5,277C 161.496,277.967 161.829,278.8 151.5,279.5C 148.833,279.5 146.167,279.5 143.5,279.5C 139,278.291 134.667,276.624 130.5,274.5C 130.5,274.167 130.5,273.833 130.5,273.5C 133.919,275.087 137.585,275.753 141.5,275.5C 141.285,273.821 141.952,272.821 143.5,272.5 Z"/></g>
<g><path style="opacity:1" fill="#35ae9e" d="M 148.5,273.5 C 153.217,275.776 158.217,277.276 163.5,278C 164.056,278.383 164.389,278.883 164.5,279.5C 160.167,280.833 155.833,280.833 151.5,279.5C 161.829,278.8 161.496,277.967 150.5,277C 149.177,276.184 148.511,275.017 148.5,273.5 Z"/></g>
<g><path style="opacity:1" fill="#f4f8f6" d="M 160.5,262.5 C 167.296,266.896 174.629,270.229 182.5,272.5C 182.611,273.117 182.944,273.617 183.5,274C 186.289,274.241 188.956,274.908 191.5,276C 202.21,276.496 212.877,275.996 223.5,274.5C 223.5,273.5 223.5,272.5 223.5,271.5C 230.571,269.795 236.904,266.795 242.5,262.5C 243.609,262.443 244.609,262.11 245.5,261.5C 246.167,261.5 246.833,261.5 247.5,261.5C 248.469,262.309 249.302,263.309 250,264.5C 250.499,269.489 250.666,274.489 250.5,279.5C 241.167,279.5 231.833,279.5 222.5,279.5C 213.167,279.5 203.833,279.5 194.5,279.5C 185.077,279.154 175.743,279.82 166.5,281.5C 166.5,282.833 166.5,284.167 166.5,285.5C 164.108,284.287 161.441,283.621 158.5,283.5C 152.451,283.84 146.451,284.506 140.5,285.5C 140.5,284.5 140.5,283.5 140.5,282.5C 144.182,282.665 147.848,282.499 151.5,282C 148.749,281.057 146.083,280.224 143.5,279.5C 146.167,279.5 148.833,279.5 151.5,279.5C 155.833,280.833 160.167,280.833 164.5,279.5C 166.857,279.663 169.19,279.497 171.5,279C 166.994,278.01 162.994,276.177 159.5,273.5C 158.817,271.824 157.483,271.157 155.5,271.5C 155.649,270.448 155.483,269.448 155,268.5C 151.256,266.759 148.09,264.259 145.5,261C 146.119,259.243 147.286,258.076 149,257.5C 152.482,260.047 156.315,261.714 160.5,262.5 Z"/></g>
<g><path style="opacity:1" fill="#cff2f3" d="M 221.5,271.5 C 222.167,271.5 222.833,271.5 223.5,271.5C 223.5,272.5 223.5,273.5 223.5,274.5C 212.877,275.996 202.21,276.496 191.5,276C 188.956,274.908 186.289,274.241 183.5,274C 182.944,273.617 182.611,273.117 182.5,272.5C 189.41,273.993 196.41,274.659 203.5,274.5C 209.835,274.762 215.835,273.762 221.5,271.5 Z"/></g>
<g><path style="opacity:1" fill="#eeeeee" d="M 0.5,279.5 C 9.16667,279.5 17.8333,279.5 26.5,279.5C 26.5,288.5 26.5,297.5 26.5,306.5C 18.0161,307.493 9.34945,307.826 0.5,307.5C 0.5,298.167 0.5,288.833 0.5,279.5 Z"/></g>
<g><path style="opacity:1" fill="#fefefe" d="M 26.5,279.5 C 27.8333,279.5 29.1667,279.5 30.5,279.5C 36.8333,279.5 43.1667,279.5 49.5,279.5C 51.1667,279.5 52.8333,279.5 54.5,279.5C 54.6664,288.506 54.4998,297.506 54,306.5C 45.2511,307.484 36.4178,307.817 27.5,307.5C 27.5,306.833 27.1667,306.5 26.5,306.5C 26.5,297.5 26.5,288.5 26.5,279.5 Z"/></g>
<g><path style="opacity:1" fill="#eeeeee" d="M 54.5,279.5 C 63.8333,279.5 73.1667,279.5 82.5,279.5C 82.5,288.833 82.5,298.167 82.5,307.5C 73.1667,307.5 63.8333,307.5 54.5,307.5C 54.5,316.833 54.5,326.167 54.5,335.5C 52.8333,335.5 51.1667,335.5 49.5,335.5C 49.8315,326.475 49.4982,317.475 48.5,308.5C 42.1898,309.13 35.8565,309.796 29.5,310.5C 30.4699,318.778 30.8032,327.111 30.5,335.5C 29.1667,335.5 27.8333,335.5 26.5,335.5C 26.1945,326.083 26.5279,316.75 27.5,307.5C 36.4178,307.817 45.2511,307.484 54,306.5C 54.4998,297.506 54.6664,288.506 54.5,279.5 Z"/></g>
<g><path style="opacity:1" fill="#fefefe" d="M 82.5,279.5 C 91.8333,279.5 101.167,279.5 110.5,279.5C 110.5,288.5 110.5,297.5 110.5,306.5C 101.167,307.167 91.8333,307.833 82.5,308.5C 82.5,308.167 82.5,307.833 82.5,307.5C 82.5,298.167 82.5,288.833 82.5,279.5 Z"/></g>
<g><path style="opacity:1" fill="#eeedee" d="M 138.5,307.5 C 129.167,307.5 119.833,307.5 110.5,307.5C 110.5,307.167 110.5,306.833 110.5,306.5C 110.5,297.5 110.5,288.5 110.5,279.5C 113.55,278.923 115.55,280.09 116.5,283C 121.14,284.637 125.807,285.137 130.5,284.5C 128.543,282.515 126.21,281.015 123.5,280C 126.943,279.779 127.276,278.779 124.5,277C 125.448,276.517 126.448,276.351 127.5,276.5C 127.5,277.833 127.5,279.167 127.5,280.5C 130.919,282.087 134.585,282.753 138.5,282.5C 138.5,290.833 138.5,299.167 138.5,307.5 Z"/></g>
<g><path style="opacity:1" fill="#fefefe" d="M 194.5,279.5 C 203.833,279.5 213.167,279.5 222.5,279.5C 222.791,288.407 222.791,297.407 222.5,306.5C 213.167,307.167 203.833,307.833 194.5,308.5C 194.5,308.167 194.5,307.833 194.5,307.5C 194.5,298.167 194.5,288.833 194.5,279.5 Z"/></g>
<g><path style="opacity:1" fill="#eeedee" d="M 222.5,279.5 C 231.833,279.5 241.167,279.5 250.5,279.5C 250.5,288.833 250.5,298.167 250.5,307.5C 241.167,307.5 231.833,307.5 222.5,307.5C 222.5,307.167 222.5,306.833 222.5,306.5C 222.791,297.407 222.791,288.407 222.5,279.5 Z"/></g>
<g><path style="opacity:1" fill="#fefefe" d="M 250.5,279.5 C 259.833,279.5 269.167,279.5 278.5,279.5C 278.666,288.506 278.5,297.506 278,306.5C 268.834,307.179 259.667,307.846 250.5,308.5C 250.5,308.167 250.5,307.833 250.5,307.5C 250.5,298.167 250.5,288.833 250.5,279.5 Z"/></g>
<g><path style="opacity:1" fill="#eeeeee" d="M 278.5,279.5 C 287.833,279.5 297.167,279.5 306.5,279.5C 306.5,288.833 306.5,298.167 306.5,307.5C 297.167,307.5 287.833,307.5 278.5,307.5C 278.5,316.833 278.5,326.167 278.5,335.5C 276.833,335.5 275.167,335.5 273.5,335.5C 273.832,326.475 273.498,317.475 272.5,308.5C 266.19,309.13 259.856,309.796 253.5,310.5C 254.47,318.778 254.803,327.111 254.5,335.5C 253.167,335.5 251.833,335.5 250.5,335.5C 250.5,326.5 250.5,317.5 250.5,308.5C 259.667,307.846 268.834,307.179 278,306.5C 278.5,297.506 278.666,288.506 278.5,279.5 Z"/></g>
<g><path style="opacity:1" fill="#fefefe" d="M 306.5,279.5 C 315.833,279.5 325.167,279.5 334.5,279.5C 334.666,288.506 334.5,297.506 334,306.5C 324.834,307.179 315.667,307.846 306.5,308.5C 306.5,308.167 306.5,307.833 306.5,307.5C 306.5,298.167 306.5,288.833 306.5,279.5 Z"/></g>
<g><path style="opacity:1" fill="#eeeeee" d="M 334.5,279.5 C 342.5,279.5 350.5,279.5 358.5,279.5C 358.5,288.833 358.5,298.167 358.5,307.5C 350.5,307.5 342.5,307.5 334.5,307.5C 334.5,316.833 334.5,326.167 334.5,335.5C 332.833,335.5 331.167,335.5 329.5,335.5C 329.832,326.475 329.498,317.475 328.5,308.5C 322.19,309.13 315.856,309.796 309.5,310.5C 310.47,318.778 310.803,327.111 310.5,335.5C 309.167,335.5 307.833,335.5 306.5,335.5C 306.5,326.5 306.5,317.5 306.5,308.5C 315.667,307.846 324.834,307.179 334,306.5C 334.5,297.506 334.666,288.506 334.5,279.5 Z"/></g>
<g><path style="opacity:1" fill="#fbfcfc" d="M 104.5,257.5 C 109.238,261.578 114.238,265.244 119.5,268.5C 119.5,269.167 119.833,269.5 120.5,269.5C 122.935,272.93 126.269,274.596 130.5,274.5C 134.667,276.624 139,278.291 143.5,279.5C 146.083,280.224 148.749,281.057 151.5,282C 147.848,282.499 144.182,282.665 140.5,282.5C 140.5,283.5 140.5,284.5 140.5,285.5C 146.451,284.506 152.451,283.84 158.5,283.5C 161.441,283.621 164.108,284.287 166.5,285.5C 166.813,292.755 166.48,299.921 165.5,307C 156.423,307.194 147.423,307.694 138.5,308.5C 138.5,308.167 138.5,307.833 138.5,307.5C 138.5,299.167 138.5,290.833 138.5,282.5C 134.585,282.753 130.919,282.087 127.5,280.5C 127.5,279.167 127.5,277.833 127.5,276.5C 126.448,276.351 125.448,276.517 124.5,277C 127.276,278.779 126.943,279.779 123.5,280C 126.21,281.015 128.543,282.515 130.5,284.5C 125.807,285.137 121.14,284.637 116.5,283C 115.55,280.09 113.55,278.923 110.5,279.5C 110.777,276.552 110.444,273.719 109.5,271C 110.308,269.294 111.641,268.461 113.5,268.5C 113.542,266.151 112.375,264.818 110,264.5C 108.503,265.477 107.003,266.477 105.5,267.5C 104.833,267.167 104.167,266.833 103.5,266.5C 104.297,264.868 105.297,263.368 106.5,262C 105.586,260.594 104.92,259.094 104.5,257.5 Z"/></g>
<g><path style="opacity:1" fill="#eeeeee" d="M 194.5,279.5 C 194.5,288.833 194.5,298.167 194.5,307.5C 185.167,307.5 175.833,307.5 166.5,307.5C 166.5,316.833 166.5,326.167 166.5,335.5C 164.833,335.5 163.167,335.5 161.5,335.5C 161.832,326.475 161.498,317.475 160.5,308.5C 154.19,309.13 147.856,309.796 141.5,310.5C 142.47,318.778 142.803,327.111 142.5,335.5C 141.167,335.5 139.833,335.5 138.5,335.5C 138.5,326.5 138.5,317.5 138.5,308.5C 147.423,307.694 156.423,307.194 165.5,307C 166.48,299.921 166.813,292.755 166.5,285.5C 166.5,284.167 166.5,282.833 166.5,281.5C 175.743,279.82 185.077,279.154 194.5,279.5 Z"/></g>
<g><path style="opacity:1" fill="#fefefe" d="M 26.5,306.5 C 27.1667,306.5 27.5,306.833 27.5,307.5C 26.5279,316.75 26.1945,326.083 26.5,335.5C 17.8333,335.5 9.16667,335.5 0.5,335.5C 0.5,326.167 0.5,316.833 0.5,307.5C 9.34945,307.826 18.0161,307.493 26.5,306.5 Z"/></g>
<g><path style="opacity:1" fill="#fefefe" d="M 82.5,307.5 C 82.5,307.833 82.5,308.167 82.5,308.5C 82.5,317.5 82.5,326.5 82.5,335.5C 73.1667,335.5 63.8333,335.5 54.5,335.5C 54.5,326.167 54.5,316.833 54.5,307.5C 63.8333,307.5 73.1667,307.5 82.5,307.5 Z"/></g>
<g><path style="opacity:1" fill="#fefefe" d="M 110.5,307.5 C 119.833,307.5 129.167,307.5 138.5,307.5C 138.5,307.833 138.5,308.167 138.5,308.5C 138.5,317.5 138.5,326.5 138.5,335.5C 129.167,335.5 119.833,335.5 110.5,335.5C 110.5,326.167 110.5,316.833 110.5,307.5 Z"/></g>
<g><path style="opacity:1" fill="#fefefe" d="M 194.5,307.5 C 194.5,307.833 194.5,308.167 194.5,308.5C 194.5,317.5 194.5,326.5 194.5,335.5C 185.167,335.5 175.833,335.5 166.5,335.5C 166.5,326.167 166.5,316.833 166.5,307.5C 175.833,307.5 185.167,307.5 194.5,307.5 Z"/></g>
<g><path style="opacity:1" fill="#fefefe" d="M 222.5,307.5 C 231.833,307.5 241.167,307.5 250.5,307.5C 250.5,307.833 250.5,308.167 250.5,308.5C 250.5,317.5 250.5,326.5 250.5,335.5C 241.167,335.5 231.833,335.5 222.5,335.5C 222.5,326.167 222.5,316.833 222.5,307.5 Z"/></g>
<g><path style="opacity:1" fill="#fefefe" d="M 306.5,307.5 C 306.5,307.833 306.5,308.167 306.5,308.5C 306.5,317.5 306.5,326.5 306.5,335.5C 297.167,335.5 287.833,335.5 278.5,335.5C 278.5,326.167 278.5,316.833 278.5,307.5C 287.833,307.5 297.167,307.5 306.5,307.5 Z"/></g>
<g><path style="opacity:1" fill="#fefefe" d="M 358.5,307.5 C 358.5,316.833 358.5,326.167 358.5,335.5C 350.5,335.5 342.5,335.5 334.5,335.5C 334.5,326.167 334.5,316.833 334.5,307.5C 342.5,307.5 350.5,307.5 358.5,307.5 Z"/></g>
<g><path style="opacity:1" fill="#ededed" d="M 49.5,335.5 C 43.1667,335.5 36.8333,335.5 30.5,335.5C 30.8032,327.111 30.4699,318.778 29.5,310.5C 35.8565,309.796 42.1898,309.13 48.5,308.5C 49.4982,317.475 49.8315,326.475 49.5,335.5 Z"/></g>
<g><path style="opacity:1" fill="#ededed" d="M 110.5,306.5 C 110.5,306.833 110.5,307.167 110.5,307.5C 110.5,316.833 110.5,326.167 110.5,335.5C 101.167,335.5 91.8333,335.5 82.5,335.5C 82.5,326.5 82.5,317.5 82.5,308.5C 91.8333,307.833 101.167,307.167 110.5,306.5 Z"/></g>
<g><path style="opacity:1" fill="#ededed" d="M 161.5,335.5 C 155.167,335.5 148.833,335.5 142.5,335.5C 142.803,327.111 142.47,318.778 141.5,310.5C 147.856,309.796 154.19,309.13 160.5,308.5C 161.498,317.475 161.832,326.475 161.5,335.5 Z"/></g>
<g><path style="opacity:1" fill="#ededed" d="M 222.5,306.5 C 222.5,306.833 222.5,307.167 222.5,307.5C 222.5,316.833 222.5,326.167 222.5,335.5C 213.167,335.5 203.833,335.5 194.5,335.5C 194.5,326.5 194.5,317.5 194.5,308.5C 203.833,307.833 213.167,307.167 222.5,306.5 Z"/></g>
<g><path style="opacity:1" fill="#ededed" d="M 273.5,335.5 C 267.167,335.5 260.833,335.5 254.5,335.5C 254.803,327.111 254.47,318.778 253.5,310.5C 259.856,309.796 266.19,309.13 272.5,308.5C 273.498,317.475 273.832,326.475 273.5,335.5 Z"/></g>
<g><path style="opacity:1" fill="#ededed" d="M 329.5,335.5 C 323.167,335.5 316.833,335.5 310.5,335.5C 310.803,327.111 310.47,318.778 309.5,310.5C 315.856,309.796 322.19,309.13 328.5,308.5C 329.498,317.475 329.832,326.475 329.5,335.5 Z"/></g>
<g><path style="opacity:1" fill="#eeeeee" d="M 0.5,335.5 C 9.16667,335.5 17.8333,335.5 26.5,335.5C 26.8132,342.755 26.4799,349.921 25.5,357C 27.7078,357.191 29.7078,357.691 31.5,358.5C 21.1667,358.5 10.8333,358.5 0.5,358.5C 0.5,350.833 0.5,343.167 0.5,335.5 Z"/></g>
<g><path style="opacity:1" fill="#fefefe" d="M 26.5,335.5 C 27.8333,335.5 29.1667,335.5 30.5,335.5C 36.8333,335.5 43.1667,335.5 49.5,335.5C 51.1667,335.5 52.8333,335.5 54.5,335.5C 54.5,343.167 54.5,350.833 54.5,358.5C 46.8333,358.5 39.1667,358.5 31.5,358.5C 29.7078,357.691 27.7078,357.191 25.5,357C 26.4799,349.921 26.8132,342.755 26.5,335.5 Z"/></g>
<g><path style="opacity:1" fill="#ededed" d="M 54.5,335.5 C 63.8333,335.5 73.1667,335.5 82.5,335.5C 82.5,343.167 82.5,350.833 82.5,358.5C 73.1667,358.5 63.8333,358.5 54.5,358.5C 54.5,350.833 54.5,343.167 54.5,335.5 Z"/></g>
<g><path style="opacity:1" fill="#fefefe" d="M 82.5,335.5 C 91.8333,335.5 101.167,335.5 110.5,335.5C 110.382,343.347 110.382,351.013 110.5,358.5C 101.167,358.5 91.8333,358.5 82.5,358.5C 82.5,350.833 82.5,343.167 82.5,335.5 Z"/></g>
<g><path style="opacity:1" fill="#ededed" d="M 110.5,335.5 C 119.833,335.5 129.167,335.5 138.5,335.5C 138.5,343.167 138.5,350.833 138.5,358.5C 129.167,358.5 119.833,358.5 110.5,358.5C 110.382,351.013 110.382,343.347 110.5,335.5 Z"/></g>
<g><path style="opacity:1" fill="#fefefe" d="M 138.5,335.5 C 139.833,335.5 141.167,335.5 142.5,335.5C 148.833,335.5 155.167,335.5 161.5,335.5C 163.167,335.5 164.833,335.5 166.5,335.5C 166.382,343.347 166.382,351.013 166.5,358.5C 157.167,358.5 147.833,358.5 138.5,358.5C 138.5,350.833 138.5,343.167 138.5,335.5 Z"/></g>
<g><path style="opacity:1" fill="#eeeeee" d="M 166.5,335.5 C 175.833,335.5 185.167,335.5 194.5,335.5C 194.196,343.262 194.196,350.929 194.5,358.5C 185.167,358.5 175.833,358.5 166.5,358.5C 166.382,351.013 166.382,343.347 166.5,335.5 Z"/></g>
<g><path style="opacity:1" fill="#fefefe" d="M 194.5,335.5 C 203.833,335.5 213.167,335.5 222.5,335.5C 222.264,343.622 222.264,351.288 222.5,358.5C 213.167,358.5 203.833,358.5 194.5,358.5C 194.196,350.929 194.196,343.262 194.5,335.5 Z"/></g>
<g><path style="opacity:1" fill="#ededed" d="M 222.5,335.5 C 231.833,335.5 241.167,335.5 250.5,335.5C 250.5,343.167 250.5,350.833 250.5,358.5C 241.167,358.5 231.833,358.5 222.5,358.5C 222.264,351.288 222.264,343.622 222.5,335.5 Z"/></g>
<g><path style="opacity:1" fill="#fefefe" d="M 250.5,335.5 C 251.833,335.5 253.167,335.5 254.5,335.5C 260.833,335.5 267.167,335.5 273.5,335.5C 275.167,335.5 276.833,335.5 278.5,335.5C 278.264,343.622 278.264,351.288 278.5,358.5C 269.167,358.5 259.833,358.5 250.5,358.5C 250.5,350.833 250.5,343.167 250.5,335.5 Z"/></g>
<g><path style="opacity:1" fill="#ededed" d="M 278.5,335.5 C 287.833,335.5 297.167,335.5 306.5,335.5C 306.5,343.167 306.5,350.833 306.5,358.5C 297.167,358.5 287.833,358.5 278.5,358.5C 278.264,351.288 278.264,343.622 278.5,335.5 Z"/></g>
<g><path style="opacity:1" fill="#fefefe" d="M 306.5,335.5 C 307.833,335.5 309.167,335.5 310.5,335.5C 316.833,335.5 323.167,335.5 329.5,335.5C 331.167,335.5 332.833,335.5 334.5,335.5C 334.5,343.167 334.5,350.833 334.5,358.5C 325.167,358.5 315.833,358.5 306.5,358.5C 306.5,350.833 306.5,343.167 306.5,335.5 Z"/></g>
<g><path style="opacity:1" fill="#eeeeee" d="M 334.5,335.5 C 342.5,335.5 350.5,335.5 358.5,335.5C 358.5,343.167 358.5,350.833 358.5,358.5C 350.5,358.5 342.5,358.5 334.5,358.5C 334.5,350.833 334.5,343.167 334.5,335.5 Z"/></g>
</svg>
