<?xml version="1.0" encoding="UTF-8"?>
<!DOCTYPE svg PUBLIC "-//W3C//DTD SVG 1.1//EN" "http://www.w3.org/Graphics/SVG/1.1/DTD/svg11.dtd">
<svg xmlns="http://www.w3.org/2000/svg" version="1.1" width="600px" height="600px" style="shape-rendering:geometricPrecision; text-rendering:geometricPrecision; image-rendering:optimizeQuality; fill-rule:evenodd; clip-rule:evenodd" xmlns:xlink="http://www.w3.org/1999/xlink">
<g><path style="opacity:1" fill="#fefefe" d="M -0.5,-0.5 C 199.5,-0.5 399.5,-0.5 599.5,-0.5C 599.5,199.5 599.5,399.5 599.5,599.5C 399.5,599.5 199.5,599.5 -0.5,599.5C -0.5,399.5 -0.5,199.5 -0.5,-0.5 Z"/></g>
<g><path style="opacity:1" fill="#da8859" d="M 344.5,207.5 C 344.01,195.968 342.677,195.968 340.5,207.5C 340.263,203.727 340.763,200.06 342,196.5C 343.011,195.663 344.178,195.33 345.5,195.5C 345.817,199.702 345.483,203.702 344.5,207.5 Z"/></g>
<g><path style="opacity:1" fill="#f3d298" d="M 329.5,232.5 C 328.415,234.587 326.749,235.92 324.5,236.5C 325.585,234.413 327.251,233.08 329.5,232.5 Z"/></g>
<g><path style="opacity:1" fill="#e6853a" d="M 344.5,207.5 C 343.895,213.046 341.895,218.046 338.5,222.5C 337.675,223.386 336.675,223.719 335.5,223.5C 335.649,224.552 335.483,225.552 335,226.5C 332.96,228.37 331.127,230.37 329.5,232.5C 327.251,233.08 325.585,234.413 324.5,236.5C 319.051,240.724 315.051,246.058 312.5,252.5C 309.831,257.372 308.831,262.705 309.5,268.5C 308.667,255.22 307.5,255.22 306,268.5C 305.329,269.252 304.496,269.586 303.5,269.5C 303.783,268.711 304.283,268.044 305,267.5C 304.71,258.726 307.044,250.726 312,243.5C 319.558,235.942 327.225,228.275 335,220.5C 337.587,216.483 339.421,212.15 340.5,207.5C 342.677,195.968 344.01,195.968 344.5,207.5 Z"/></g>
<g><path style="opacity:1" fill="#943e4a" d="M 206.5,241.5 C 208.252,241.418 209.252,242.251 209.5,244C 208.831,245.847 207.497,247.014 205.5,247.5C 204.229,245.194 204.562,243.194 206.5,241.5 Z"/></g>
<g><path style="opacity:1" fill="#b43d40" d="M 228.5,252.5 C 228.5,253.833 228.5,255.167 228.5,256.5C 226.585,256.784 224.919,256.451 223.5,255.5C 223.961,252.11 225.627,251.11 228.5,252.5 Z"/></g>
<g><path style="opacity:1" fill="#a6282c" d="M 193.5,255.5 C 197.806,256.658 201.806,258.491 205.5,261C 203.618,263.978 202.118,267.145 201,270.5C 200.311,271.357 199.478,272.023 198.5,272.5C 194.598,271.059 191.264,268.892 188.5,266C 189.704,262.191 191.371,258.691 193.5,255.5 Z"/></g>
<g><path style="opacity:1" fill="#e38460" d="M 265.5,262.5 C 259.824,262.334 254.157,262.501 248.5,263C 246.686,265.481 246.02,268.315 246.5,271.5C 246.802,274.059 246.468,276.393 245.5,278.5C 245.5,278.167 245.5,277.833 245.5,277.5C 242.939,260.459 249.605,255.459 265.5,262.5 Z"/></g>
<g><path style="opacity:1" fill="#ae3a39" d="M 174.5,263.5 C 176.167,263.5 177.833,263.5 179.5,263.5C 179.5,264.833 179.5,266.167 179.5,267.5C 177.833,267.5 176.167,267.5 174.5,267.5C 174.5,266.167 174.5,264.833 174.5,263.5 Z"/></g>
<g><path style="opacity:1" fill="#df884b" d="M 266.5,262.5 C 271.684,263.109 276.351,264.776 280.5,267.5C 278.883,266.962 277.216,266.629 275.5,266.5C 272.186,265.607 269.186,264.274 266.5,262.5 Z"/></g>
<g><path style="opacity:1" fill="#f9d2ad" d="M 312.5,252.5 C 311.034,257.693 310.367,263.027 310.5,268.5C 310.167,268.5 309.833,268.5 309.5,268.5C 308.831,262.705 309.831,257.372 312.5,252.5 Z"/></g>
<g><path style="opacity:1" fill="#fcf1f0" d="M 228.5,252.5 C 229.434,253.568 229.768,254.901 229.5,256.5C 232.833,256.5 236.167,256.5 239.5,256.5C 239.5,257.5 239.5,258.5 239.5,259.5C 236.813,259.336 234.146,259.503 231.5,260C 235.356,260.177 239.023,260.677 242.5,261.5C 242.856,267.077 243.856,272.41 245.5,277.5C 245.5,277.833 245.5,278.167 245.5,278.5C 239.5,278.5 233.5,278.5 227.5,278.5C 226.609,277.89 225.609,277.557 224.5,277.5C 220.818,277.335 217.152,277.501 213.5,278C 213,278.5 212.5,279 212,279.5C 211.501,283.486 211.334,287.486 211.5,291.5C 212.167,292.167 212.833,292.833 213.5,293.5C 208.968,293.182 204.634,293.515 200.5,294.5C 199.883,294.611 199.383,294.944 199,295.5C 198.503,298.146 198.336,300.813 198.5,303.5C 198.167,303.5 197.833,303.5 197.5,303.5C 197.335,300.482 197.502,297.482 198,294.5C 199.103,290.866 200.603,287.366 202.5,284C 201.572,283.612 200.905,282.945 200.5,282C 201.535,280.726 202.702,279.56 204,278.5C 206.152,280.277 205.985,281.777 203.5,283C 205.058,283.21 206.391,283.71 207.5,284.5C 203.686,284.651 202.019,286.651 202.5,290.5C 204.167,290.5 205.833,290.5 207.5,290.5C 207.5,288.833 207.5,287.167 207.5,285.5C 208.496,285.414 209.329,285.748 210,286.5C 210.667,283.167 210.667,279.833 210,276.5C 208.844,277.993 208.01,277.826 207.5,276C 206.14,270.183 207.474,269.35 211.5,273.5C 215.035,272.827 215.368,271.327 212.5,269C 210.22,268.767 208.22,267.934 206.5,266.5C 208.831,263.589 209.165,260.422 207.5,257C 207.833,256.5 208.167,256 208.5,255.5C 210.604,256.519 212.604,257.519 214.5,258.5C 210.5,257.833 208.833,259.5 209.5,263.5C 211.167,263.5 212.833,263.5 214.5,263.5C 214.5,262.167 214.5,260.833 214.5,259.5C 215.991,262.091 218.325,263.091 221.5,262.5C 221.986,260.193 221.986,258.027 221.5,256C 222.094,255.536 222.761,255.369 223.5,255.5C 224.919,256.451 226.585,256.784 228.5,256.5C 228.5,255.167 228.5,253.833 228.5,252.5 Z"/></g>
<g><path style="opacity:1" fill="#c22d2e" d="M 242.5,261.5 C 242.5,266.167 242.5,270.833 242.5,275.5C 237.637,275.819 232.97,275.486 228.5,274.5C 232.833,274.5 237.167,274.5 241.5,274.5C 241.374,272.8 240.707,271.3 239.5,270C 240.022,269.05 240.689,268.216 241.5,267.5C 239.995,266.158 239.328,264.492 239.5,262.5C 236.167,262.5 232.833,262.5 229.5,262.5C 229.768,264.099 229.434,265.432 228.5,266.5C 228.5,264.833 228.5,263.167 228.5,261.5C 233.167,261.5 237.833,261.5 242.5,261.5 Z"/></g>
<g><path style="opacity:1" fill="#c3312d" d="M 223.5,268.5 C 223.5,269.833 223.5,271.167 223.5,272.5C 222.167,272.5 220.833,272.5 219.5,272.5C 219.167,269.5 220.5,268.167 223.5,268.5 Z"/></g>
<g><path style="opacity:1" fill="#d18380" d="M 223.5,268.5 C 220.5,268.167 219.167,269.5 219.5,272.5C 220.833,272.5 222.167,272.5 223.5,272.5C 222.081,273.451 220.415,273.784 218.5,273.5C 217.5,268.491 219.167,266.824 223.5,268.5 Z"/></g>
<g><path style="opacity:1" fill="#b64748" d="M 214.5,258.5 C 214.5,258.833 214.5,259.167 214.5,259.5C 214.5,260.833 214.5,262.167 214.5,263.5C 212.833,263.5 211.167,263.5 209.5,263.5C 208.833,259.5 210.5,257.833 214.5,258.5 Z"/></g>
<g><path style="opacity:1" fill="#d7282a" d="M 228.5,274.5 C 228.167,274.5 227.833,274.5 227.5,274.5C 227.194,271.615 227.527,268.948 228.5,266.5C 229.434,265.432 229.768,264.099 229.5,262.5C 232.833,262.5 236.167,262.5 239.5,262.5C 239.328,264.492 239.995,266.158 241.5,267.5C 240.689,268.216 240.022,269.05 239.5,270C 240.707,271.3 241.374,272.8 241.5,274.5C 237.167,274.5 232.833,274.5 228.5,274.5 Z"/></g>
<g><path style="opacity:1" fill="#f36124" d="M 265.5,262.5 C 265.833,262.5 266.167,262.5 266.5,262.5C 269.186,264.274 272.186,265.607 275.5,266.5C 274.889,268.775 273.555,270.441 271.5,271.5C 270.402,272.397 270.402,273.23 271.5,274C 268.498,278.172 266.164,282.672 264.5,287.5C 259.724,287.671 259.391,288.671 263.5,290.5C 264.167,290.333 264.833,290.167 265.5,290C 264.167,289.333 264.167,288.667 265.5,288C 266.448,287.517 267.448,287.351 268.5,287.5C 268.565,289.696 269.232,291.696 270.5,293.5C 274.144,292.242 277.977,291.575 282,291.5C 285.683,291.501 289.183,291.835 292.5,292.5C 288.673,292.387 285.173,293.387 282,295.5C 280.369,297.955 280.203,300.455 281.5,303C 279.388,306.778 276.888,310.278 274,313.5C 269.555,311.603 267.389,308.27 267.5,303.5C 266.167,303.5 264.833,303.5 263.5,303.5C 263.663,301.143 263.497,298.81 263,296.5C 262.632,295.09 261.799,294.09 260.5,293.5C 259.534,291.604 259.201,289.604 259.5,287.5C 258.5,287.5 257.5,287.5 256.5,287.5C 254.288,282.296 251.288,277.629 247.5,273.5C 247.672,272.508 247.338,271.842 246.5,271.5C 246.02,268.315 246.686,265.481 248.5,263C 254.157,262.501 259.824,262.334 265.5,262.5 Z"/></g>
<g><path style="opacity:1" fill="#f16122" d="M 375.5,296.5 C 373.379,296.325 371.379,296.659 369.5,297.5C 367.716,297.893 366.05,298.559 364.5,299.5C 364.414,298.504 364.748,297.671 365.5,297C 367.619,296.902 369.286,296.069 370.5,294.5C 366.883,291.928 362.883,290.262 358.5,289.5C 357.5,290 356.5,290.5 355.5,291C 344.86,292.099 334.194,292.599 323.5,292.5C 323.719,293.675 323.386,294.675 322.5,295.5C 320.5,294.5 318.5,293.5 316.5,292.5C 315.548,290.955 315.215,289.288 315.5,287.5C 316.978,287.762 318.311,287.429 319.5,286.5C 319.043,285.702 318.376,285.369 317.5,285.5C 320.511,280.722 323.511,276.055 326.5,271.5C 328.401,271.567 330.234,271.233 332,270.5C 332.95,271.022 333.784,271.689 334.5,272.5C 338.619,270.941 342.619,269.107 346.5,267C 343.063,266.351 342.896,265.851 346,265.5C 347.365,265.844 348.532,266.511 349.5,267.5C 355.833,266.833 362.167,266.167 368.5,265.5C 371.824,266.976 371.324,268.309 367,269.5C 361.857,270.203 356.691,270.703 351.5,271C 354.226,271.182 356.893,271.682 359.5,272.5C 363.924,278.681 367.257,285.347 369.5,292.5C 372.535,292.347 374.535,293.68 375.5,296.5 Z"/></g>
<g><path style="opacity:1" fill="#eaa69f" d="M 227.5,274.5 C 227.833,274.5 228.167,274.5 228.5,274.5C 232.97,275.486 237.637,275.819 242.5,275.5C 240.19,276.164 237.69,276.497 235,276.5C 232.071,276.475 229.571,275.809 227.5,274.5 Z"/></g>
<g><path style="opacity:1" fill="#973234" d="M 224.5,277.5 C 225.441,282.07 225.774,286.737 225.5,291.5C 220.833,291.5 216.167,291.5 211.5,291.5C 211.334,287.486 211.501,283.486 212,279.5C 212.5,279 213,278.5 213.5,278C 217.152,277.501 220.818,277.335 224.5,277.5 Z"/></g>
<g><path style="opacity:1" fill="#c75b44" d="M 390.5,278.5 C 393.881,280.88 396.547,283.88 398.5,287.5C 395.149,285.146 392.482,282.146 390.5,278.5 Z"/></g>
<g><path style="opacity:1" fill="#b03a46" d="M 193.5,278.5 C 194.833,278.5 196.167,278.5 197.5,278.5C 197.5,280.167 197.5,281.833 197.5,283.5C 196.167,283.5 194.833,283.5 193.5,283.5C 193.5,281.833 193.5,280.167 193.5,278.5 Z"/></g>
<g><path style="opacity:1" fill="#9a454a" d="M 159.5,281.5 C 160.833,281.5 162.167,281.5 163.5,281.5C 163.5,283.167 163.5,284.833 163.5,286.5C 161.833,286.5 160.167,286.5 158.5,286.5C 158.366,284.708 158.699,283.042 159.5,281.5 Z"/></g>
<g><path style="opacity:1" fill="#fac8c8" d="M 224.5,277.5 C 225.609,277.557 226.609,277.89 227.5,278.5C 227.5,283.5 227.5,288.5 227.5,293.5C 222.833,293.5 218.167,293.5 213.5,293.5C 212.833,292.833 212.167,292.167 211.5,291.5C 216.167,291.5 220.833,291.5 225.5,291.5C 225.774,286.737 225.441,282.07 224.5,277.5 Z"/></g>
<g><path style="opacity:1" fill="#ab1f24" d="M 213.5,279.5 C 217.167,279.5 220.833,279.5 224.5,279.5C 224.5,283.167 224.5,286.833 224.5,290.5C 220.5,290.5 216.5,290.5 212.5,290.5C 212.552,286.802 212.886,283.135 213.5,279.5 Z"/></g>
<g><path style="opacity:1" fill="#ae393d" d="M 175.5,279.5 C 177.838,277.96 180.505,277.294 183.5,277.5C 183.473,280.23 184.14,282.73 185.5,285C 185.167,285.833 184.833,286.667 184.5,287.5C 181.348,289.121 178.015,290.121 174.5,290.5C 174.353,287.557 173.687,284.724 172.5,282C 172.748,280.251 173.748,279.418 175.5,279.5 Z"/></g>
<g><path style="opacity:1" fill="#c42029" d="M 175.5,279.5 C 177.861,279.326 180.194,278.993 182.5,278.5C 182.833,281.167 183.167,283.833 183.5,286.5C 180.975,287.64 178.308,288.307 175.5,288.5C 174.412,285.444 174.412,282.444 175.5,279.5 Z"/></g>
<g><path style="opacity:1" fill="#9a393a" d="M 207.5,284.5 C 207.5,284.833 207.5,285.167 207.5,285.5C 207.5,287.167 207.5,288.833 207.5,290.5C 205.833,290.5 204.167,290.5 202.5,290.5C 202.019,286.651 203.686,284.651 207.5,284.5 Z"/></g>
<g><path style="opacity:1" fill="#f47522" d="M 309.5,268.5 C 309.833,268.5 310.167,268.5 310.5,268.5C 312.92,270.796 315.753,272.463 319,273.5C 321.472,272.678 323.972,272.011 326.5,271.5C 323.511,276.055 320.511,280.722 317.5,285.5C 315.856,285.714 314.356,285.38 313,284.5C 313.319,286.743 313.152,288.91 312.5,291C 307.167,291.667 301.833,291.667 296.5,291C 291.15,290.961 285.983,290.128 281,288.5C 280.667,288.833 280.333,289.167 280,289.5C 280.472,286.88 280.639,284.38 280.5,282C 279.07,280.114 277.403,278.447 275.5,277C 276.138,275.293 276.138,273.46 275.5,271.5C 274.167,271.5 272.833,271.5 271.5,271.5C 273.555,270.441 274.889,268.775 275.5,266.5C 277.216,266.629 278.883,266.962 280.5,267.5C 285.352,270.304 290.518,272.304 296,273.5C 298.919,272.677 301.419,271.344 303.5,269.5C 304.496,269.586 305.329,269.252 306,268.5C 307.5,255.22 308.667,255.22 309.5,268.5 Z"/></g>
<g><path style="opacity:1" fill="#f36c22" d="M 271.5,271.5 C 272.833,271.5 274.167,271.5 275.5,271.5C 276.138,273.46 276.138,275.293 275.5,277C 277.403,278.447 279.07,280.114 280.5,282C 280.639,284.38 280.472,286.88 280,289.5C 280.333,289.167 280.667,288.833 281,288.5C 285.983,290.128 291.15,290.961 296.5,291C 301.833,291.667 307.167,291.667 312.5,291C 313.152,288.91 313.319,286.743 313,284.5C 314.356,285.38 315.856,285.714 317.5,285.5C 318.376,285.369 319.043,285.702 319.5,286.5C 318.311,287.429 316.978,287.762 315.5,287.5C 315.215,289.288 315.548,290.955 316.5,292.5C 318.5,293.5 320.5,294.5 322.5,295.5C 323.386,294.675 323.719,293.675 323.5,292.5C 334.194,292.599 344.86,292.099 355.5,291C 356.5,290.5 357.5,290 358.5,289.5C 362.883,290.262 366.883,291.928 370.5,294.5C 369.286,296.069 367.619,296.902 365.5,297C 364.748,297.671 364.414,298.504 364.5,299.5C 363.305,299.866 362.639,300.699 362.5,302C 363.078,303.811 363.578,305.645 364,307.5C 365.011,308.337 366.178,308.67 367.5,308.5C 368.215,311.96 370.382,313.96 374,314.5C 375,313.833 376,313.167 377,312.5C 378.333,313.167 379.667,313.833 381,314.5C 382.44,313.852 383.94,313.519 385.5,313.5C 385.5,314.5 385.5,315.5 385.5,316.5C 384.833,317.5 384.167,318.5 383.5,319.5C 382.167,319.5 380.833,319.5 379.5,319.5C 379.5,320.5 379.5,321.5 379.5,322.5C 376.87,323.428 374.204,324.428 371.5,325.5C 369.423,324.063 367.09,323.396 364.5,323.5C 364.843,321.517 364.176,320.183 362.5,319.5C 361.833,316.833 360.167,315.167 357.5,314.5C 356.081,313.549 354.415,313.216 352.5,313.5C 351.766,312.292 351.433,310.959 351.5,309.5C 348.715,309.933 346.381,311.266 344.5,313.5C 344.08,311.674 344.08,309.674 344.5,307.5C 346.833,306.833 349.167,306.167 351.5,305.5C 351.5,306.5 351.5,307.5 351.5,308.5C 353.346,308.778 354.68,308.111 355.5,306.5C 354.583,303.242 354.249,299.909 354.5,296.5C 353.5,296.5 352.5,296.5 351.5,296.5C 351.726,305.193 350.06,305.193 346.5,296.5C 344.392,295.056 342.059,294.39 339.5,294.5C 339.613,297.049 338.946,299.382 337.5,301.5C 337.709,302.086 338.043,302.586 338.5,303C 336.5,303.333 334.5,303.667 332.5,304C 333.167,304.667 333.833,305.333 334.5,306C 333.097,309.473 331.43,312.806 329.5,316C 330.423,320.26 332.256,324.093 335,327.5C 335.495,329.473 335.662,331.473 335.5,333.5C 339.074,333.917 341.407,335.917 342.5,339.5C 341.25,339.423 340.417,338.756 340,337.5C 337.695,340.67 334.862,341.337 331.5,339.5C 327.111,339.923 322.778,340.59 318.5,341.5C 316.717,339.977 316.051,337.977 316.5,335.5C 317.5,335.5 318.5,335.5 319.5,335.5C 319.878,330.92 321.878,327.087 325.5,324C 324.729,322.002 325.395,320.335 327.5,319C 326.965,316.891 325.965,316.391 324.5,317.5C 318.533,316.74 312.533,316.073 306.5,315.5C 299.382,314.05 296.382,309.883 297.5,303C 296.257,301.846 295.257,300.512 294.5,299C 296.923,297.429 298.256,295.263 298.5,292.5C 296.5,292.5 294.5,292.5 292.5,292.5C 289.183,291.835 285.683,291.501 282,291.5C 277.977,291.575 274.144,292.242 270.5,293.5C 269.232,291.696 268.565,289.696 268.5,287.5C 267.448,287.351 266.448,287.517 265.5,288C 264.167,288.667 264.167,289.333 265.5,290C 264.833,290.167 264.167,290.333 263.5,290.5C 259.391,288.671 259.724,287.671 264.5,287.5C 266.164,282.672 268.498,278.172 271.5,274C 270.402,273.23 270.402,272.397 271.5,271.5 Z"/></g>
<g><path style="opacity:1" fill="#f15825" d="M 390.5,278.5 C 387.111,277.562 384.611,275.562 383,272.5C 378.986,276.695 375.486,281.361 372.5,286.5C 373.718,287.803 373.385,288.803 371.5,289.5C 378.708,290.221 386.041,291.221 393.5,292.5C 393.709,293.086 394.043,293.586 394.5,294C 393.063,299.043 390.73,303.543 387.5,307.5C 387.977,308.478 388.643,309.311 389.5,310C 387.292,310.191 385.292,310.691 383.5,311.5C 382.791,312.404 381.791,312.737 380.5,312.5C 381.331,308.524 381.497,304.524 381,300.5C 379.512,298.84 377.679,297.84 375.5,297.5C 375.5,297.167 375.5,296.833 375.5,296.5C 374.535,293.68 372.535,292.347 369.5,292.5C 367.257,285.347 363.924,278.681 359.5,272.5C 356.893,271.682 354.226,271.182 351.5,271C 356.691,270.703 361.857,270.203 367,269.5C 371.324,268.309 371.824,266.976 368.5,265.5C 362.167,266.167 355.833,266.833 349.5,267.5C 348.532,266.511 347.365,265.844 346,265.5C 342.896,265.851 343.063,266.351 346.5,267C 342.619,269.107 338.619,270.941 334.5,272.5C 333.784,271.689 332.95,271.022 332,270.5C 330.234,271.233 328.401,271.567 326.5,271.5C 338.908,263.483 352.574,260.317 367.5,262C 377.249,264.581 384.916,270.081 390.5,278.5 Z"/></g>
<g><path style="opacity:1" fill="#ee4c22" d="M 390.5,278.5 C 392.482,282.146 395.149,285.146 398.5,287.5C 400.218,289.223 401.551,291.223 402.5,293.5C 403.872,297.917 405.539,302.251 407.5,306.5C 406.895,310.322 404.562,311.988 400.5,311.5C 400.768,313.099 400.434,314.432 399.5,315.5C 399.631,314.761 399.464,314.094 399,313.5C 398.751,314.624 398.251,315.624 397.5,316.5C 395.925,315.544 394.258,314.877 392.5,314.5C 389.453,313.817 386.453,312.817 383.5,311.5C 385.292,310.691 387.292,310.191 389.5,310C 388.643,309.311 387.977,308.478 387.5,307.5C 390.73,303.543 393.063,299.043 394.5,294C 394.043,293.586 393.709,293.086 393.5,292.5C 386.041,291.221 378.708,290.221 371.5,289.5C 373.385,288.803 373.718,287.803 372.5,286.5C 375.486,281.361 378.986,276.695 383,272.5C 384.611,275.562 387.111,277.562 390.5,278.5 Z"/></g>
<g><path style="opacity:1" fill="#df753e" d="M 369.5,297.5 C 368.046,299.571 366.713,301.738 365.5,304C 366.414,305.406 367.08,306.906 367.5,308.5C 366.178,308.67 365.011,308.337 364,307.5C 363.578,305.645 363.078,303.811 362.5,302C 362.639,300.699 363.305,299.866 364.5,299.5C 366.05,298.559 367.716,297.893 369.5,297.5 Z"/></g>
<g><path style="opacity:1" fill="#c64443" d="M 159.5,296.5 C 161.099,297.799 161.599,299.465 161,301.5C 158.579,302.961 156.079,304.294 153.5,305.5C 147.003,297.956 148.67,294.122 158.5,294C 159.252,294.671 159.586,295.504 159.5,296.5 Z"/></g>
<g><path style="opacity:1" fill="#d92d23" d="M 159.5,296.5 C 159.5,297.833 159.5,299.167 159.5,300.5C 157.488,301.014 155.488,301.18 153.5,301C 151.893,299.951 151.227,298.451 151.5,296.5C 154.229,295.47 156.896,295.47 159.5,296.5 Z"/></g>
<g><path style="opacity:1" fill="#b04f51" d="M 185.5,303.5 C 184.417,303.461 183.417,303.127 182.5,302.5C 180.39,304.289 178.056,305.622 175.5,306.5C 177.479,303.854 179.812,301.521 182.5,299.5C 184.288,300.283 185.288,301.616 185.5,303.5 Z"/></g>
<g><path style="opacity:1" fill="#fcf8f6" d="M 255.5,301.5 C 255.328,302.492 255.662,303.158 256.5,303.5C 256.5,308.5 256.5,313.5 256.5,318.5C 261.5,318.5 266.5,318.5 271.5,318.5C 271.5,319.167 271.833,319.5 272.5,319.5C 274.714,320.392 275.714,322.058 275.5,324.5C 275.472,327.976 274.138,330.643 271.5,332.5C 266.5,332.5 261.5,332.5 256.5,332.5C 257.397,337.14 257.564,341.806 257,346.5C 256.003,348.323 254.836,349.99 253.5,351.5C 251.167,351.5 248.833,351.5 246.5,351.5C 242.813,345.44 241.48,338.773 242.5,331.5C 238.215,332.295 233.881,332.628 229.5,332.5C 225.493,330.503 223.493,327.17 223.5,322.5C 224.5,320.833 225.833,319.5 227.5,318.5C 232.833,318.5 238.167,318.5 243.5,318.5C 243.5,313.5 243.5,308.5 243.5,303.5C 243.574,301.589 244.574,300.422 246.5,300C 249.741,299.207 252.741,299.707 255.5,301.5 Z"/></g>
<g><path style="opacity:1" fill="#fbf6ee" d="M 375.5,296.5 C 375.5,296.833 375.5,297.167 375.5,297.5C 381.691,301.5 382.025,306 376.5,311C 372.9,312.073 369.9,311.24 367.5,308.5C 367.08,306.906 366.414,305.406 365.5,304C 366.713,301.738 368.046,299.571 369.5,297.5C 371.379,296.659 373.379,296.325 375.5,296.5 Z"/></g>
<g><path style="opacity:1" fill="#ab242a" d="M 185.5,303.5 C 185.833,303.5 186.167,303.5 186.5,303.5C 187.983,305.484 189.649,307.317 191.5,309C 188.355,312.145 185.188,315.312 182,318.5C 181.617,317.944 181.117,317.611 180.5,317.5C 178.349,314.849 176.016,312.349 173.5,310C 173.978,308.697 174.645,307.531 175.5,306.5C 178.056,305.622 180.39,304.289 182.5,302.5C 183.417,303.127 184.417,303.461 185.5,303.5 Z"/></g>
<g><path style="opacity:1" fill="#bf3b36" d="M 200.5,294.5 C 204.167,294.5 207.833,294.5 211.5,294.5C 211.5,298.833 211.5,303.167 211.5,307.5C 207.167,307.5 202.833,307.5 198.5,307.5C 198.5,306.167 198.5,304.833 198.5,303.5C 198.336,300.813 198.503,298.146 199,295.5C 199.383,294.944 199.883,294.611 200.5,294.5 Z"/></g>
<g><path style="opacity:1" fill="#de2f26" d="M 202.5,295.5 C 204.766,295.141 206.599,295.808 208,297.5C 208.308,296.692 208.808,296.025 209.5,295.5C 210.489,299.107 210.823,302.774 210.5,306.5C 206.833,306.5 203.167,306.5 199.5,306.5C 199.678,302.498 200.678,298.831 202.5,295.5 Z"/></g>
<g><path style="opacity:1" fill="#f47521" d="M 352.5,313.5 C 350.278,313.178 348.444,313.845 347,315.5C 344.638,325.49 348.472,330.49 358.5,330.5C 360.435,331.15 362.435,331.483 364.5,331.5C 364.374,329.8 363.707,328.3 362.5,327C 362.613,325.72 363.28,324.887 364.5,324.5C 367.859,326.567 371.526,327.9 375.5,328.5C 373.335,329.707 371.335,331.04 369.5,332.5C 363.866,337.459 364.2,341.959 370.5,346C 372.885,346.556 375.218,346.39 377.5,345.5C 378.675,345.719 379.675,345.386 380.5,344.5C 381.374,342.253 381.708,339.92 381.5,337.5C 386.223,339.388 390.89,340.388 395.5,340.5C 395.5,341.833 395.5,343.167 395.5,344.5C 398.155,344.659 400.488,345.659 402.5,347.5C 405.306,352.543 408.306,357.543 411.5,362.5C 402.8,363.84 394.133,363.673 385.5,362C 382.164,357.657 378.83,353.323 375.5,349C 373.833,348.333 372.167,348.333 370.5,349C 370.957,349.414 371.291,349.914 371.5,350.5C 368.554,351.655 365.554,351.821 362.5,351C 365.254,349.42 365.088,348.254 362,347.5C 360.234,348.233 358.401,348.567 356.5,348.5C 356.284,346.319 357.117,344.653 359,343.5C 359.495,341.527 359.662,339.527 359.5,337.5C 358.5,337.5 357.5,337.5 356.5,337.5C 356.5,338.833 356.5,340.167 356.5,341.5C 354.179,341.771 352.179,341.104 350.5,339.5C 349.893,339.624 349.56,339.957 349.5,340.5C 347.194,340.007 344.861,339.674 342.5,339.5C 341.407,335.917 339.074,333.917 335.5,333.5C 335.662,331.473 335.495,329.473 335,327.5C 332.256,324.093 330.423,320.26 329.5,316C 331.43,312.806 333.097,309.473 334.5,306C 333.833,305.333 333.167,304.667 332.5,304C 334.5,303.667 336.5,303.333 338.5,303C 338.043,302.586 337.709,302.086 337.5,301.5C 338.946,299.382 339.613,297.049 339.5,294.5C 342.059,294.39 344.392,295.056 346.5,296.5C 350.06,305.193 351.726,305.193 351.5,296.5C 352.5,296.5 353.5,296.5 354.5,296.5C 354.249,299.909 354.583,303.242 355.5,306.5C 354.68,308.111 353.346,308.778 351.5,308.5C 351.5,307.5 351.5,306.5 351.5,305.5C 349.167,306.167 346.833,306.833 344.5,307.5C 344.08,309.674 344.08,311.674 344.5,313.5C 346.381,311.266 348.715,309.933 351.5,309.5C 351.433,310.959 351.766,312.292 352.5,313.5 Z"/></g>
<g><path style="opacity:1" fill="#e56d36" d="M 375.5,297.5 C 377.679,297.84 379.512,298.84 381,300.5C 381.497,304.524 381.331,308.524 380.5,312.5C 381.791,312.737 382.791,312.404 383.5,311.5C 386.453,312.817 389.453,313.817 392.5,314.5C 389.812,314.166 387.479,314.832 385.5,316.5C 385.5,315.5 385.5,314.5 385.5,313.5C 383.94,313.519 382.44,313.852 381,314.5C 379.667,313.833 378.333,313.167 377,312.5C 376,313.167 375,313.833 374,314.5C 370.382,313.96 368.215,311.96 367.5,308.5C 369.9,311.24 372.9,312.073 376.5,311C 382.025,306 381.691,301.5 375.5,297.5 Z"/></g>
<g><path style="opacity:1" fill="#db2427" d="M 247.5,273.5 C 251.288,277.629 254.288,282.296 256.5,287.5C 256.821,288.817 257.154,290.151 257.5,291.5C 256.533,293.762 255.866,296.095 255.5,298.5C 254.883,298.611 254.383,298.944 254,299.5C 252.647,298.296 250.981,297.629 249,297.5C 246.397,297.965 243.897,298.632 241.5,299.5C 241.828,304.875 241.495,310.208 240.5,315.5C 235.887,316.279 231.22,316.779 226.5,317C 223.965,317.928 222.965,319.762 223.5,322.5C 222.503,322.53 221.836,322.03 221.5,321C 220.5,318.5 219.5,316 218.5,313.5C 218.179,310.488 219.512,309.155 222.5,309.5C 222.18,306.102 222.513,302.768 223.5,299.5C 225.225,298.985 226.892,298.318 228.5,297.5C 228.167,296.833 227.833,296.167 227.5,295.5C 229.053,294.561 230.387,293.394 231.5,292C 228.712,289.926 229.045,288.426 232.5,287.5C 233.474,285.257 233.808,282.924 233.5,280.5C 237.846,280.666 242.179,280.499 246.5,280C 248.558,278.192 248.892,276.025 247.5,273.5 Z"/></g>
<g><path style="opacity:1" fill="#b53740" d="M 159.5,311.5 C 161.167,311.5 162.833,311.5 164.5,311.5C 164.33,312.822 164.663,313.989 165.5,315C 160.842,318.865 158.842,317.699 159.5,311.5 Z"/></g>
<g><path style="opacity:1" fill="#d9885f" d="M 357.5,314.5 C 360.167,315.167 361.833,316.833 362.5,319.5C 360.5,318.167 358.833,316.5 357.5,314.5 Z"/></g>
<g><path style="opacity:1" fill="#c62d32" d="M 255.5,298.5 C 255.5,299.5 255.5,300.5 255.5,301.5C 252.741,299.707 249.741,299.207 246.5,300C 244.574,300.422 243.574,301.589 243.5,303.5C 242.514,307.97 242.181,312.637 242.5,317.5C 237.305,317.179 232.305,317.513 227.5,318.5C 225.833,319.5 224.5,320.833 223.5,322.5C 222.965,319.762 223.965,317.928 226.5,317C 231.22,316.779 235.887,316.279 240.5,315.5C 241.495,310.208 241.828,304.875 241.5,299.5C 243.897,298.632 246.397,297.965 249,297.5C 250.981,297.629 252.647,298.296 254,299.5C 254.383,298.944 254.883,298.611 255.5,298.5 Z"/></g>
<g><path style="opacity:1" fill="#cf787d" d="M 243.5,303.5 C 243.5,308.5 243.5,313.5 243.5,318.5C 238.167,318.5 232.833,318.5 227.5,318.5C 232.305,317.513 237.305,317.179 242.5,317.5C 242.181,312.637 242.514,307.97 243.5,303.5 Z"/></g>
<g><path style="opacity:1" fill="#d0765b" d="M 256.5,303.5 C 257.485,307.634 257.818,311.968 257.5,316.5C 261.514,316.334 265.514,316.501 269.5,317C 270.416,317.278 271.082,317.778 271.5,318.5C 266.5,318.5 261.5,318.5 256.5,318.5C 256.5,313.5 256.5,308.5 256.5,303.5 Z"/></g>
<g><path style="opacity:1" fill="#ef4a23" d="M 315.5,341.5 C 315.787,343.121 316.787,344.121 318.5,344.5C 319.474,346.743 319.808,349.076 319.5,351.5C 324.779,353.412 324.779,355.412 319.5,357.5C 311.684,356.508 303.684,356.174 295.5,356.5C 292.821,350.826 290.154,345.16 287.5,339.5C 277.833,339.5 268.167,339.5 258.5,339.5C 258.5,337.5 258.5,335.5 258.5,333.5C 263.032,333.818 267.366,333.485 271.5,332.5C 274.138,330.643 275.472,327.976 275.5,324.5C 275.714,322.058 274.714,320.392 272.5,319.5C 272.539,318.417 272.873,317.417 273.5,316.5C 275.287,315.684 276.954,314.684 278.5,313.5C 281.484,315.001 284.651,316.001 288,316.5C 289.587,315.273 290.921,315.606 292,317.5C 293.343,316.786 294.676,317.12 296,318.5C 297,317.167 298,317.167 299,318.5C 299.498,321.482 299.665,324.482 299.5,327.5C 300.873,327.343 302.207,327.51 303.5,328C 300.574,329.507 298.574,331.841 297.5,335C 295.167,335.333 292.833,335.667 290.5,336C 293.071,338.457 295.571,338.623 298,336.5C 303.819,338.396 309.652,340.063 315.5,341.5 Z"/></g>
<g><path style="opacity:1" fill="#d5322e" d="M 201.5,311.5 C 205.415,313.743 208.749,316.743 211.5,320.5C 208.516,323.985 205.349,327.318 202,330.5C 200.296,328.627 198.463,326.96 196.5,325.5C 194.752,323.84 194.252,321.84 195,319.5C 197.425,316.947 199.592,314.28 201.5,311.5 Z"/></g>
<g><path style="opacity:1" fill="#ef5121" d="M 256.5,287.5 C 257.5,287.5 258.5,287.5 259.5,287.5C 259.201,289.604 259.534,291.604 260.5,293.5C 261.799,294.09 262.632,295.09 263,296.5C 263.497,298.81 263.663,301.143 263.5,303.5C 264.833,303.5 266.167,303.5 267.5,303.5C 267.389,308.27 269.555,311.603 274,313.5C 276.888,310.278 279.388,306.778 281.5,303C 280.203,300.455 280.369,297.955 282,295.5C 285.173,293.387 288.673,292.387 292.5,292.5C 292.733,299.398 294.566,306.065 298,312.5C 299.378,314.213 301.045,315.547 303,316.5C 303.226,319.095 303.726,321.595 304.5,324C 304.167,324.333 303.833,324.667 303.5,325C 304.931,325.465 306.097,326.299 307,327.5C 308.032,332.249 310.532,335.916 314.5,338.5C 315.127,339.417 315.461,340.417 315.5,341.5C 309.652,340.063 303.819,338.396 298,336.5C 295.571,338.623 293.071,338.457 290.5,336C 292.833,335.667 295.167,335.333 297.5,335C 298.574,331.841 300.574,329.507 303.5,328C 302.207,327.51 300.873,327.343 299.5,327.5C 299.665,324.482 299.498,321.482 299,318.5C 298,317.167 297,317.167 296,318.5C 294.676,317.12 293.343,316.786 292,317.5C 290.921,315.606 289.587,315.273 288,316.5C 284.651,316.001 281.484,315.001 278.5,313.5C 276.954,314.684 275.287,315.684 273.5,316.5C 272.873,317.417 272.539,318.417 272.5,319.5C 271.833,319.5 271.5,319.167 271.5,318.5C 271.082,317.778 270.416,317.278 269.5,317C 265.514,316.501 261.514,316.334 257.5,316.5C 257.818,311.968 257.485,307.634 256.5,303.5C 255.662,303.158 255.328,302.492 255.5,301.5C 255.5,300.5 255.5,299.5 255.5,298.5C 255.866,296.095 256.533,293.762 257.5,291.5C 257.154,290.151 256.821,288.817 256.5,287.5 Z"/></g>
<g><path style="opacity:1" fill="#fdf9f2" d="M 357.5,314.5 C 358.833,316.5 360.5,318.167 362.5,319.5C 362.871,323.003 361.871,326.003 359.5,328.5C 353.822,330.024 350.155,327.857 348.5,322C 349.551,316.992 352.551,314.492 357.5,314.5 Z"/></g>
<g><path style="opacity:1" fill="#e2843f" d="M 352.5,313.5 C 354.415,313.216 356.081,313.549 357.5,314.5C 352.551,314.492 349.551,316.992 348.5,322C 350.155,327.857 353.822,330.024 359.5,328.5C 359.167,329.167 358.833,329.833 358.5,330.5C 348.472,330.49 344.638,325.49 347,315.5C 348.444,313.845 350.278,313.178 352.5,313.5 Z"/></g>
<g><path style="opacity:1" fill="#fcf5ee" d="M 392.5,314.5 C 393.976,316.5 395.809,318.167 398,319.5C 398.288,325.385 395.454,328.719 389.5,329.5C 387.167,327.833 385.167,325.833 383.5,323.5C 383.5,322.167 383.5,320.833 383.5,319.5C 384.167,318.5 384.833,317.5 385.5,316.5C 387.479,314.832 389.812,314.166 392.5,314.5 Z"/></g>
<g><path style="opacity:1" fill="#ef5825" d="M 402.5,293.5 C 409.528,303.205 414.861,313.872 418.5,325.5C 418.959,328.877 419.626,332.211 420.5,335.5C 419.069,335.881 418.236,336.881 418,338.5C 417.086,337.346 416.253,337.513 415.5,339C 409.833,339.667 404.167,339.667 398.5,339C 396.303,336.579 394.97,333.745 394.5,330.5C 395.793,328.704 397.293,327.037 399,325.5C 399.498,322.183 399.665,318.85 399.5,315.5C 400.434,314.432 400.768,313.099 400.5,311.5C 404.562,311.988 406.895,310.322 407.5,306.5C 405.539,302.251 403.872,297.917 402.5,293.5 Z"/></g>
<g><path style="opacity:1" fill="#e06e47" d="M 399.5,315.5 C 399.665,318.85 399.498,322.183 399,325.5C 397.293,327.037 395.793,328.704 394.5,330.5C 392.585,330.784 390.919,330.451 389.5,329.5C 395.454,328.719 398.288,325.385 398,319.5C 395.809,318.167 393.976,316.5 392.5,314.5C 394.258,314.877 395.925,315.544 397.5,316.5C 398.251,315.624 398.751,314.624 399,313.5C 399.464,314.094 399.631,314.761 399.5,315.5 Z"/></g>
<g><path style="opacity:1" fill="#953744" d="M 152.5,326.5 C 154.635,326.147 155.968,326.98 156.5,329C 155.381,330.876 153.714,331.709 151.5,331.5C 151.629,329.784 151.962,328.117 152.5,326.5 Z"/></g>
<g><path style="opacity:1" fill="#aa2c2f" d="M 176.5,327.5 C 176.804,328.15 177.137,328.817 177.5,329.5C 174.736,330.965 171.903,332.299 169,333.5C 167.347,333.18 166.347,332.18 166,330.5C 165.505,328.527 165.338,326.527 165.5,324.5C 167.749,323.769 169.916,322.769 172,321.5C 174.209,322.897 175.709,324.897 176.5,327.5 Z"/></g>
<g><path style="opacity:1" fill="#da7c62" d="M 418.5,325.5 C 420.277,328.505 421.277,331.838 421.5,335.5C 421.167,335.5 420.833,335.5 420.5,335.5C 419.626,332.211 418.959,328.877 418.5,325.5 Z"/></g>
<g><path style="opacity:1" fill="#f3a5a1" d="M 200.5,294.5 C 204.634,293.515 208.968,293.182 213.5,293.5C 213.5,298.833 213.5,304.167 213.5,309.5C 210.15,309.335 206.817,309.502 203.5,310C 207.016,313.349 210.349,316.849 213.5,320.5C 210.478,323.853 207.478,327.187 204.5,330.5C 202.389,331.968 200.556,331.635 199,329.5C 199.079,331.846 199.912,334.013 201.5,336C 198.509,337.965 195.843,340.132 193.5,342.5C 193.167,342.5 192.833,342.5 192.5,342.5C 192.5,341.833 192.5,341.167 192.5,340.5C 194.98,339.088 197.313,337.422 199.5,335.5C 198.153,332.807 196.82,330.14 195.5,327.5C 196.338,327.158 196.672,326.492 196.5,325.5C 198.463,326.96 200.296,328.627 202,330.5C 205.349,327.318 208.516,323.985 211.5,320.5C 208.749,316.743 205.415,313.743 201.5,311.5C 202.494,309.146 201.494,308.146 198.5,308.5C 197.549,307.081 197.216,305.415 197.5,303.5C 197.833,303.5 198.167,303.5 198.5,303.5C 198.5,304.833 198.5,306.167 198.5,307.5C 202.833,307.5 207.167,307.5 211.5,307.5C 211.5,303.167 211.5,298.833 211.5,294.5C 207.833,294.5 204.167,294.5 200.5,294.5 Z"/></g>
<g><path style="opacity:1" fill="#ec792c" d="M 362.5,319.5 C 364.176,320.183 364.843,321.517 364.5,323.5C 367.09,323.396 369.423,324.063 371.5,325.5C 374.204,324.428 376.87,323.428 379.5,322.5C 379.5,321.5 379.5,320.5 379.5,319.5C 380.833,319.5 382.167,319.5 383.5,319.5C 383.5,320.833 383.5,322.167 383.5,323.5C 380.692,323.969 378.358,325.303 376.5,327.5C 380.146,328.157 382.48,330.157 383.5,333.5C 381.8,333.374 380.3,332.707 379,331.5C 378.5,331.833 378,332.167 377.5,332.5C 379.404,333.766 380.737,335.433 381.5,337.5C 381.708,339.92 381.374,342.253 380.5,344.5C 379.675,345.386 378.675,345.719 377.5,345.5C 380.036,342.993 380.869,339.993 380,336.5C 377.876,335.378 376.043,333.878 374.5,332C 372.735,331.36 371.068,331.527 369.5,332.5C 371.335,331.04 373.335,329.707 375.5,328.5C 371.526,327.9 367.859,326.567 364.5,324.5C 363.28,324.887 362.613,325.72 362.5,327C 363.707,328.3 364.374,329.8 364.5,331.5C 362.435,331.483 360.435,331.15 358.5,330.5C 358.833,329.833 359.167,329.167 359.5,328.5C 361.871,326.003 362.871,323.003 362.5,319.5 Z"/></g>
<g><path style="opacity:1" fill="#bb3237" d="M 246.5,351.5 C 244.9,350.748 243.4,349.748 242,348.5C 241.501,343.511 241.334,338.511 241.5,333.5C 237.298,333.817 233.298,333.483 229.5,332.5C 233.881,332.628 238.215,332.295 242.5,331.5C 241.48,338.773 242.813,345.44 246.5,351.5 Z"/></g>
<g><path style="opacity:1" fill="#fbf5f5" d="M 186.5,303.5 C 188.582,303.624 190.082,304.624 191,306.5C 191.333,306.167 191.667,305.833 192,305.5C 193.708,307.543 195.708,309.21 198,310.5C 198.464,309.906 198.631,309.239 198.5,308.5C 201.494,308.146 202.494,309.146 201.5,311.5C 199.592,314.28 197.425,316.947 195,319.5C 194.252,321.84 194.752,323.84 196.5,325.5C 196.672,326.492 196.338,327.158 195.5,327.5C 192.927,328.657 190.427,329.991 188,331.5C 187.125,335.767 188.625,338.767 192.5,340.5C 192.5,341.167 192.5,341.833 192.5,342.5C 192.167,343.167 191.833,343.833 191.5,344.5C 189.535,346.488 187.202,347.988 184.5,349C 182.604,350.808 182.104,352.975 183,355.5C 185.372,357.703 187.539,360.037 189.5,362.5C 190.167,363.167 190.833,363.833 191.5,364.5C 191.5,364.833 191.5,365.167 191.5,365.5C 190.5,365.5 189.5,365.5 188.5,365.5C 186.214,365.595 184.214,366.262 182.5,367.5C 180.978,368.191 179.978,369.358 179.5,371C 180.391,373.279 181.391,375.446 182.5,377.5C 180.787,375.15 178.453,374.15 175.5,374.5C 176.234,373.292 176.567,371.959 176.5,370.5C 174.833,370.5 173.167,370.5 171.5,370.5C 171.5,371.5 171.5,372.5 171.5,373.5C 170.751,372.469 170.085,371.302 169.5,370C 171.044,369.71 172.377,369.044 173.5,368C 170.621,367.454 167.954,366.621 165.5,365.5C 175.307,364.237 176.807,360.237 170,353.5C 167.352,354.214 164.852,355.214 162.5,356.5C 162.143,354.411 161.477,352.411 160.5,350.5C 158.844,352.022 157.677,351.689 157,349.5C 156.503,347.19 156.337,344.857 156.5,342.5C 165.261,340.973 165.595,338.806 157.5,336C 160.553,335.821 163.553,335.321 166.5,334.5C 164.955,333.548 163.288,333.215 161.5,333.5C 161.119,331.058 161.786,330.391 163.5,331.5C 164.168,329.031 164.835,326.698 165.5,324.5C 165.338,326.527 165.505,328.527 166,330.5C 166.347,332.18 167.347,333.18 169,333.5C 171.903,332.299 174.736,330.965 177.5,329.5C 177.137,328.817 176.804,328.15 176.5,327.5C 178.176,326.817 178.843,325.483 178.5,323.5C 179.5,323.5 180.5,323.5 181.5,323.5C 181.483,321.435 181.15,319.435 180.5,317.5C 181.117,317.611 181.617,317.944 182,318.5C 185.188,315.312 188.355,312.145 191.5,309C 189.649,307.317 187.983,305.484 186.5,303.5 Z"/></g>
<g><path style="opacity:1" fill="#943539" d="M 181.5,323.5 C 183.298,322.537 184.632,323.204 185.5,325.5C 184.15,326.95 182.484,327.617 180.5,327.5C 180.433,326.041 180.766,324.708 181.5,323.5 Z"/></g>
<g><path style="opacity:1" fill="#a5292d" d="M 195.5,327.5 C 196.82,330.14 198.153,332.807 199.5,335.5C 197.313,337.422 194.98,339.088 192.5,340.5C 188.625,338.767 187.125,335.767 188,331.5C 190.427,329.991 192.927,328.657 195.5,327.5 Z"/></g>
<g><path style="opacity:1" fill="#c52328" d="M 246.5,271.5 C 247.338,271.842 247.672,272.508 247.5,273.5C 248.892,276.025 248.558,278.192 246.5,280C 242.179,280.499 237.846,280.666 233.5,280.5C 233.808,282.924 233.474,285.257 232.5,287.5C 229.045,288.426 228.712,289.926 231.5,292C 230.387,293.394 229.053,294.561 227.5,295.5C 227.833,296.167 228.167,296.833 228.5,297.5C 226.892,298.318 225.225,298.985 223.5,299.5C 222.513,302.768 222.18,306.102 222.5,309.5C 219.512,309.155 218.179,310.488 218.5,313.5C 219.5,316 220.5,318.5 221.5,321C 221.836,322.03 222.503,322.53 223.5,322.5C 223.493,327.17 225.493,330.503 229.5,332.5C 228.325,332.281 227.325,332.614 226.5,333.5C 227.648,335.149 228.981,336.649 230.5,338C 229.399,340.292 230.232,341.792 233,342.5C 234.549,345.312 235.382,348.312 235.5,351.5C 236.833,351.5 238.167,351.5 239.5,351.5C 238.617,355.954 239.95,359.454 243.5,362C 252.842,362.434 262.175,362.934 271.5,363.5C 273.604,363.799 275.604,363.466 277.5,362.5C 276.833,361.833 276.167,361.167 275.5,360.5C 278.107,359.682 280.774,359.182 283.5,359C 284.833,358.333 284.833,357.667 283.5,357C 282.062,356.781 280.729,356.281 279.5,355.5C 281.867,353.605 284.534,353.105 287.5,354C 290.279,354.561 292.946,355.394 295.5,356.5C 303.684,356.174 311.684,356.508 319.5,357.5C 311.493,357.334 303.493,357.5 295.5,358C 289.381,359.895 283.381,362.062 277.5,364.5C 257.492,364.376 237.492,363.876 217.5,363C 212.231,360.892 210.231,357.059 211.5,351.5C 210.167,351.5 208.833,351.5 207.5,351.5C 207.295,356.359 206.295,356.359 204.5,351.5C 208.832,346.837 208.166,345.837 202.5,348.5C 200.889,347.68 200.222,346.346 200.5,344.5C 201.833,344.5 203.167,344.5 204.5,344.5C 204.548,341.708 203.215,339.875 200.5,339C 202.238,336.358 203.571,333.524 204.5,330.5C 207.478,327.187 210.478,323.853 213.5,320.5C 210.349,316.849 207.016,313.349 203.5,310C 206.817,309.502 210.15,309.335 213.5,309.5C 213.5,304.167 213.5,298.833 213.5,293.5C 218.167,293.5 222.833,293.5 227.5,293.5C 227.5,288.5 227.5,283.5 227.5,278.5C 233.5,278.5 239.5,278.5 245.5,278.5C 246.468,276.393 246.802,274.059 246.5,271.5 Z"/></g>
<g><path style="opacity:1" fill="#fcf6ed" d="M 377.5,345.5 C 375.218,346.39 372.885,346.556 370.5,346C 364.2,341.959 363.866,337.459 369.5,332.5C 371.068,331.527 372.735,331.36 374.5,332C 376.043,333.878 377.876,335.378 380,336.5C 380.869,339.993 380.036,342.993 377.5,345.5 Z"/></g>
<g><path style="opacity:1" fill="#ad272c" d="M 204.5,330.5 C 203.571,333.524 202.238,336.358 200.5,339C 203.215,339.875 204.548,341.708 204.5,344.5C 203.167,344.5 201.833,344.5 200.5,344.5C 200.222,346.346 200.889,347.68 202.5,348.5C 208.166,345.837 208.832,346.837 204.5,351.5C 204.657,352.873 204.49,354.207 204,355.5C 201.931,357.085 199.764,358.419 197.5,359.5C 199.363,357.139 201.363,354.973 203.5,353C 200.031,349.696 196.697,346.196 193.5,342.5C 195.843,340.132 198.509,337.965 201.5,336C 199.912,334.013 199.079,331.846 199,329.5C 200.556,331.635 202.389,331.968 204.5,330.5 Z"/></g>
<g><path style="opacity:1" fill="#f06124" d="M 292.5,292.5 C 294.5,292.5 296.5,292.5 298.5,292.5C 298.256,295.263 296.923,297.429 294.5,299C 295.257,300.512 296.257,301.846 297.5,303C 296.382,309.883 299.382,314.05 306.5,315.5C 312.533,316.073 318.533,316.74 324.5,317.5C 325.965,316.391 326.965,316.891 327.5,319C 325.395,320.335 324.729,322.002 325.5,324C 321.878,327.087 319.878,330.92 319.5,335.5C 318.5,335.5 317.5,335.5 316.5,335.5C 316.051,337.977 316.717,339.977 318.5,341.5C 322.778,340.59 327.111,339.923 331.5,339.5C 334.862,341.337 337.695,340.67 340,337.5C 340.417,338.756 341.25,339.423 342.5,339.5C 344.861,339.674 347.194,340.007 349.5,340.5C 350.467,341.806 351.801,342.473 353.5,342.5C 353.649,343.552 353.483,344.552 353,345.5C 352.667,345.167 352.333,344.833 352,344.5C 351.133,347.12 349.966,348.787 348.5,349.5C 350.481,353.142 352.481,356.809 354.5,360.5C 355.376,361.251 356.376,361.751 357.5,362C 366.327,362.755 374.994,363.588 383.5,364.5C 375.493,364.666 367.493,364.5 359.5,364C 356.737,363.45 354.07,362.617 351.5,361.5C 348.217,362.327 344.884,362.66 341.5,362.5C 341.5,361.5 341.5,360.5 341.5,359.5C 344.226,359.736 346.559,358.903 348.5,357C 347.167,356.333 347.167,355.667 348.5,355C 346.221,354.527 344.221,353.527 342.5,352C 343.833,351.667 345.167,351.333 346.5,351C 346.686,349.133 346.353,347.133 345.5,345C 344.5,343.5 343.5,342 342.5,340.5C 341.481,341.687 340.314,342.687 339,343.5C 338.713,345.891 338.213,348.224 337.5,350.5C 334.553,351.321 331.553,351.821 328.5,352C 330.942,352.94 333.275,354.106 335.5,355.5C 334.675,356.386 333.675,356.719 332.5,356.5C 332.67,357.822 332.337,358.989 331.5,360C 332.793,360.49 334.127,360.657 335.5,360.5C 335.5,361.5 335.5,362.5 335.5,363.5C 329.688,362.456 324.354,360.456 319.5,357.5C 324.779,355.412 324.779,353.412 319.5,351.5C 319.808,349.076 319.474,346.743 318.5,344.5C 316.787,344.121 315.787,343.121 315.5,341.5C 315.461,340.417 315.127,339.417 314.5,338.5C 310.532,335.916 308.032,332.249 307,327.5C 306.097,326.299 304.931,325.465 303.5,325C 303.833,324.667 304.167,324.333 304.5,324C 303.726,321.595 303.226,319.095 303,316.5C 301.045,315.547 299.378,314.213 298,312.5C 294.566,306.065 292.733,299.398 292.5,292.5 Z"/></g>
<g><path style="opacity:1" fill="#d38a64" d="M 421.5,335.5 C 422.924,337.515 423.59,339.848 423.5,342.5C 422.076,340.485 421.41,338.152 421.5,335.5 Z"/></g>
<g><path style="opacity:1" fill="#a63e47" d="M 180.5,339.5 C 182.561,340.751 182.894,342.418 181.5,344.5C 180.264,345.246 178.93,345.579 177.5,345.5C 177.028,342.642 178.028,340.642 180.5,339.5 Z"/></g>
<g><path style="opacity:1" fill="#c73f3d" d="M 271.5,332.5 C 267.366,333.485 263.032,333.818 258.5,333.5C 258.5,335.5 258.5,337.5 258.5,339.5C 258.5,341.167 258.5,342.833 258.5,344.5C 258.501,348.206 256.835,350.539 253.5,351.5C 254.836,349.99 256.003,348.323 257,346.5C 257.564,341.806 257.397,337.14 256.5,332.5C 261.5,332.5 266.5,332.5 271.5,332.5 Z"/></g>
<g><path style="opacity:1" fill="#e51f24" d="M 258.5,339.5 C 268.167,339.5 277.833,339.5 287.5,339.5C 290.154,345.16 292.821,350.826 295.5,356.5C 292.946,355.394 290.279,354.561 287.5,354C 284.534,353.105 281.867,353.605 279.5,355.5C 280.729,356.281 282.062,356.781 283.5,357C 284.833,357.667 284.833,358.333 283.5,359C 280.774,359.182 278.107,359.682 275.5,360.5C 276.167,361.167 276.833,361.833 277.5,362.5C 275.604,363.466 273.604,363.799 271.5,363.5C 271.5,362.167 271.5,360.833 271.5,359.5C 270.5,359.5 269.5,359.5 268.5,359.5C 267.505,355.512 266.505,351.512 265.5,347.5C 264.833,348.833 264.167,350.167 263.5,351.5C 262.833,348.833 262.167,346.167 261.5,343.5C 260.787,345.435 259.787,345.768 258.5,344.5C 258.5,342.833 258.5,341.167 258.5,339.5 Z"/></g>
<g><path style="opacity:1" fill="#93363f" d="M 158.5,343.5 C 163.644,344.812 163.811,346.812 159,349.5C 157.2,347.635 157.034,345.635 158.5,343.5 Z"/></g>
<g><path style="opacity:1" fill="#c42c31" d="M 191.5,344.5 C 194.679,346.846 197.346,349.679 199.5,353C 196.946,357.055 193.613,360.222 189.5,362.5C 187.539,360.037 185.372,357.703 183,355.5C 182.104,352.975 182.604,350.808 184.5,349C 187.202,347.988 189.535,346.488 191.5,344.5 Z"/></g>
<g><path style="opacity:1" fill="#d92028" d="M 229.5,332.5 C 233.298,333.483 237.298,333.817 241.5,333.5C 241.334,338.511 241.501,343.511 242,348.5C 243.4,349.748 244.9,350.748 246.5,351.5C 248.833,351.5 251.167,351.5 253.5,351.5C 256.835,350.539 258.501,348.206 258.5,344.5C 259.787,345.768 260.787,345.435 261.5,343.5C 262.167,346.167 262.833,348.833 263.5,351.5C 264.167,350.167 264.833,348.833 265.5,347.5C 266.505,351.512 267.505,355.512 268.5,359.5C 269.5,359.5 270.5,359.5 271.5,359.5C 271.5,360.833 271.5,362.167 271.5,363.5C 262.175,362.934 252.842,362.434 243.5,362C 239.95,359.454 238.617,355.954 239.5,351.5C 238.167,351.5 236.833,351.5 235.5,351.5C 235.382,348.312 234.549,345.312 233,342.5C 230.232,341.792 229.399,340.292 230.5,338C 228.981,336.649 227.648,335.149 226.5,333.5C 227.325,332.614 228.325,332.281 229.5,332.5 Z"/></g>
<g><path style="opacity:1" fill="#fbd9d6" d="M 192.5,342.5 C 192.833,342.5 193.167,342.5 193.5,342.5C 196.697,346.196 200.031,349.696 203.5,353C 201.363,354.973 199.363,357.139 197.5,359.5C 195.5,361.167 193.5,362.833 191.5,364.5C 190.833,363.833 190.167,363.167 189.5,362.5C 193.613,360.222 196.946,357.055 199.5,353C 197.346,349.679 194.679,346.846 191.5,344.5C 191.833,343.833 192.167,343.167 192.5,342.5 Z"/></g>
<g><path style="opacity:1" fill="#c32d32" d="M 165.5,365.5 C 163.664,362.817 162.664,359.817 162.5,356.5C 164.852,355.214 167.352,354.214 170,353.5C 176.807,360.237 175.307,364.237 165.5,365.5 Z"/></g>
<g><path style="opacity:1" fill="#f26a21" d="M 383.5,323.5 C 385.167,325.833 387.167,327.833 389.5,329.5C 390.919,330.451 392.585,330.784 394.5,330.5C 394.97,333.745 396.303,336.579 398.5,339C 404.167,339.667 409.833,339.667 415.5,339C 416.253,337.513 417.086,337.346 418,338.5C 418.236,336.881 419.069,335.881 420.5,335.5C 420.833,335.5 421.167,335.5 421.5,335.5C 421.41,338.152 422.076,340.485 423.5,342.5C 423.5,342.833 423.5,343.167 423.5,343.5C 423.75,357.835 424.083,372.169 424.5,386.5C 423.596,385.791 423.263,384.791 423.5,383.5C 422.167,383.5 420.833,383.5 419.5,383.5C 419.5,384.833 419.5,386.167 419.5,387.5C 411.368,387.886 403.368,387.219 395.5,385.5C 395.854,381.363 395.354,377.363 394,373.5C 390.06,370.874 386.56,367.874 383.5,364.5C 374.994,363.588 366.327,362.755 357.5,362C 356.376,361.751 355.376,361.251 354.5,360.5C 352.481,356.809 350.481,353.142 348.5,349.5C 349.966,348.787 351.133,347.12 352,344.5C 352.333,344.833 352.667,345.167 353,345.5C 353.483,344.552 353.649,343.552 353.5,342.5C 351.801,342.473 350.467,341.806 349.5,340.5C 349.56,339.957 349.893,339.624 350.5,339.5C 352.179,341.104 354.179,341.771 356.5,341.5C 356.5,340.167 356.5,338.833 356.5,337.5C 357.5,337.5 358.5,337.5 359.5,337.5C 359.662,339.527 359.495,341.527 359,343.5C 357.117,344.653 356.284,346.319 356.5,348.5C 358.401,348.567 360.234,348.233 362,347.5C 365.088,348.254 365.254,349.42 362.5,351C 365.554,351.821 368.554,351.655 371.5,350.5C 371.291,349.914 370.957,349.414 370.5,349C 372.167,348.333 373.833,348.333 375.5,349C 378.83,353.323 382.164,357.657 385.5,362C 394.133,363.673 402.8,363.84 411.5,362.5C 408.306,357.543 405.306,352.543 402.5,347.5C 400.488,345.659 398.155,344.659 395.5,344.5C 395.5,343.167 395.5,341.833 395.5,340.5C 390.89,340.388 386.223,339.388 381.5,337.5C 380.737,335.433 379.404,333.766 377.5,332.5C 378,332.167 378.5,331.833 379,331.5C 380.3,332.707 381.8,333.374 383.5,333.5C 382.48,330.157 380.146,328.157 376.5,327.5C 378.358,325.303 380.692,323.969 383.5,323.5 Z"/></g>
<g><path style="opacity:1" fill="#f05824" d="M 383.5,364.5 C 386.56,367.874 390.06,370.874 394,373.5C 395.354,377.363 395.854,381.363 395.5,385.5C 403.368,387.219 411.368,387.886 419.5,387.5C 419.5,386.167 419.5,384.833 419.5,383.5C 420.833,383.5 422.167,383.5 423.5,383.5C 423.263,384.791 423.596,385.791 424.5,386.5C 424.346,391.289 423.013,395.622 420.5,399.5C 420.104,396.956 420.771,394.789 422.5,393C 421.91,391.491 421.244,389.991 420.5,388.5C 417.582,389.919 416.082,392.252 416,395.5C 415.505,393.527 415.338,391.527 415.5,389.5C 409.824,389.666 404.157,389.499 398.5,389C 397.371,386.832 395.871,386.332 394,387.5C 393.251,382.668 391.917,378.001 390,373.5C 387.315,372.316 385.148,370.483 383.5,368C 381.866,367.506 380.199,367.34 378.5,367.5C 378.36,369.124 379.027,370.29 380.5,371C 378.243,375.837 375.909,380.671 373.5,385.5C 373.709,386.086 374.043,386.586 374.5,387C 377.614,387.123 380.614,387.29 383.5,387.5C 381.299,388.853 380.632,390.52 381.5,392.5C 376.522,390.009 371.855,387.009 367.5,383.5C 363.013,377.938 359.346,371.772 356.5,365C 349.563,363.712 342.563,363.212 335.5,363.5C 335.5,362.5 335.5,361.5 335.5,360.5C 334.127,360.657 332.793,360.49 331.5,360C 332.337,358.989 332.67,357.822 332.5,356.5C 333.675,356.719 334.675,356.386 335.5,355.5C 333.275,354.106 330.942,352.94 328.5,352C 331.553,351.821 334.553,351.321 337.5,350.5C 338.213,348.224 338.713,345.891 339,343.5C 340.314,342.687 341.481,341.687 342.5,340.5C 343.5,342 344.5,343.5 345.5,345C 346.353,347.133 346.686,349.133 346.5,351C 345.167,351.333 343.833,351.667 342.5,352C 344.221,353.527 346.221,354.527 348.5,355C 347.167,355.667 347.167,356.333 348.5,357C 346.559,358.903 344.226,359.736 341.5,359.5C 341.5,360.5 341.5,361.5 341.5,362.5C 344.884,362.66 348.217,362.327 351.5,361.5C 354.07,362.617 356.737,363.45 359.5,364C 367.493,364.5 375.493,364.666 383.5,364.5 Z"/></g>
<g><path style="opacity:1" fill="#e64228" d="M 335.5,363.5 C 342.563,363.212 349.563,363.712 356.5,365C 359.346,371.772 363.013,377.938 367.5,383.5C 357.077,376.403 346.41,369.737 335.5,363.5 Z"/></g>
<g><path style="opacity:1" fill="#f7ba8e" d="M 425.5,352.5 C 426.918,357.766 427.585,363.266 427.5,369C 427.498,372.352 427.165,375.518 426.5,378.5C 426.536,369.815 426.203,361.149 425.5,352.5 Z"/></g>
<g><path style="opacity:1" fill="#b41f26" d="M 204.5,351.5 C 206.295,356.359 207.295,356.359 207.5,351.5C 208.833,351.5 210.167,351.5 211.5,351.5C 210.231,357.059 212.231,360.892 217.5,363C 237.492,363.876 257.492,364.376 277.5,364.5C 268.505,369.825 259.505,375.159 250.5,380.5C 249.07,380.421 247.736,380.754 246.5,381.5C 243.795,382.894 241.462,384.728 239.5,387C 237.793,387.195 236.126,387.195 234.5,387C 235.337,388.011 235.67,389.178 235.5,390.5C 234.5,390.5 233.5,390.5 232.5,390.5C 231.063,389.278 229.563,389.278 228,390.5C 226.527,390.097 225.194,389.43 224,388.5C 217.759,390.224 211.259,391.224 204.5,391.5C 199.988,389.901 197.322,386.735 196.5,382C 194.741,381.202 193.074,381.369 191.5,382.5C 194.106,383.924 194.106,385.257 191.5,386.5C 189.381,381.804 190.547,378.137 195,375.5C 195.711,373.101 195.544,370.768 194.5,368.5C 193.675,367.614 192.675,367.281 191.5,367.5C 191.5,366.833 191.5,366.167 191.5,365.5C 191.5,365.167 191.5,364.833 191.5,364.5C 193.5,362.833 195.5,361.167 197.5,359.5C 199.764,358.419 201.931,357.085 204,355.5C 204.49,354.207 204.657,352.873 204.5,351.5 Z"/></g>
<g><path style="opacity:1" fill="#e37732" d="M 423.5,343.5 C 424.913,346.219 425.58,349.219 425.5,352.5C 426.203,361.149 426.536,369.815 426.5,378.5C 426.706,381.495 426.04,384.162 424.5,386.5C 424.083,372.169 423.75,357.835 423.5,343.5 Z"/></g>
<g><path style="opacity:1" fill="#f6c5c3" d="M 188.5,365.5 C 189.5,365.5 190.5,365.5 191.5,365.5C 191.5,366.167 191.5,366.833 191.5,367.5C 192.487,369.473 193.487,371.473 194.5,373.5C 192.972,374.861 191.305,376.028 189.5,377C 188.748,377.671 188.414,378.504 188.5,379.5C 187.596,378.791 187.263,377.791 187.5,376.5C 189.319,375.416 190.985,374.082 192.5,372.5C 191.139,370.15 189.806,367.816 188.5,365.5 Z"/></g>
<g><path style="opacity:1" fill="#a14149" d="M 175.5,374.5 C 173.901,374.768 172.568,374.434 171.5,373.5C 171.5,372.5 171.5,371.5 171.5,370.5C 173.167,370.5 174.833,370.5 176.5,370.5C 176.567,371.959 176.234,373.292 175.5,374.5 Z"/></g>
<g><path style="opacity:1" fill="#a32f36" d="M 188.5,365.5 C 189.806,367.816 191.139,370.15 192.5,372.5C 190.985,374.082 189.319,375.416 187.5,376.5C 185.883,377.038 184.216,377.371 182.5,377.5C 181.391,375.446 180.391,373.279 179.5,371C 179.978,369.358 180.978,368.191 182.5,367.5C 184.214,366.262 186.214,365.595 188.5,365.5 Z"/></g>
<g><path style="opacity:1" fill="#b11e24" d="M 182.5,367.5 C 184.541,367.146 186.374,367.146 188,367.5C 188.393,369.199 187.893,370.699 186.5,372C 186.905,372.945 187.572,373.612 188.5,374C 183.628,374.625 181.628,372.459 182.5,367.5 Z"/></g>
<g><path style="opacity:1" fill="#9a3037" d="M 191.5,367.5 C 192.675,367.281 193.675,367.614 194.5,368.5C 195.544,370.768 195.711,373.101 195,375.5C 190.547,378.137 189.381,381.804 191.5,386.5C 191.5,388.5 191.5,390.5 191.5,392.5C 189.763,388.458 188.763,384.124 188.5,379.5C 188.414,378.504 188.748,377.671 189.5,377C 191.305,376.028 192.972,374.861 194.5,373.5C 193.487,371.473 192.487,369.473 191.5,367.5 Z"/></g>
<g><path style="opacity:1" fill="#a51e22" d="M 232.5,390.5 C 230.631,391.165 228.631,391.831 226.5,392.5C 227.921,395.428 226.921,396.762 223.5,396.5C 223.5,397.5 223.5,398.5 223.5,399.5C 222.205,400.488 220.872,401.488 219.5,402.5C 212.336,405.968 205.002,406.302 197.5,403.5C 194.722,400.279 192.722,396.612 191.5,392.5C 191.5,390.5 191.5,388.5 191.5,386.5C 194.106,385.257 194.106,383.924 191.5,382.5C 193.074,381.369 194.741,381.202 196.5,382C 197.322,386.735 199.988,389.901 204.5,391.5C 211.259,391.224 217.759,390.224 224,388.5C 225.194,389.43 226.527,390.097 228,390.5C 229.563,389.278 231.063,389.278 232.5,390.5 Z"/></g>
<g><path style="opacity:1" fill="#ed4d23" d="M 420.5,399.5 C 419.483,401.911 417.816,403.578 415.5,404.5C 411.723,405.994 407.723,406.661 403.5,406.5C 400.327,405.83 397.327,404.664 394.5,403C 390.097,399.481 385.763,395.981 381.5,392.5C 380.632,390.52 381.299,388.853 383.5,387.5C 380.614,387.29 377.614,387.123 374.5,387C 374.043,386.586 373.709,386.086 373.5,385.5C 375.909,380.671 378.243,375.837 380.5,371C 379.027,370.29 378.36,369.124 378.5,367.5C 380.199,367.34 381.866,367.506 383.5,368C 385.148,370.483 387.315,372.316 390,373.5C 391.917,378.001 393.251,382.668 394,387.5C 395.871,386.332 397.371,386.832 398.5,389C 404.157,389.499 409.824,389.666 415.5,389.5C 415.338,391.527 415.505,393.527 416,395.5C 416.082,392.252 417.582,389.919 420.5,388.5C 421.244,389.991 421.91,391.491 422.5,393C 420.771,394.789 420.104,396.956 420.5,399.5 Z"/></g>
<g><path style="opacity:1" fill="#9d2d30" d="M 250.5,380.5 C 241.8,387.19 232.8,393.523 223.5,399.5C 223.5,398.5 223.5,397.5 223.5,396.5C 226.921,396.762 227.921,395.428 226.5,392.5C 228.631,391.831 230.631,391.165 232.5,390.5C 233.5,390.5 234.5,390.5 235.5,390.5C 235.67,389.178 235.337,388.011 234.5,387C 236.126,387.195 237.793,387.195 239.5,387C 241.462,384.728 243.795,382.894 246.5,381.5C 247.736,380.754 249.07,380.421 250.5,380.5 Z"/></g>
<g><path style="opacity:1" fill="#933435" d="M 219.5,402.5 C 214.704,406.877 209.037,408.377 202.5,407C 200.416,406.303 198.749,405.136 197.5,403.5C 205.002,406.302 212.336,405.968 219.5,402.5 Z"/></g>
<g><path style="opacity:1" fill="#d66f55" d="M 415.5,404.5 C 411.833,407.457 407.833,408.123 403.5,406.5C 407.723,406.661 411.723,405.994 415.5,404.5 Z"/></g>
</svg>
