<?xml version="1.0" encoding="UTF-8"?>
<svg version="1.1" xmlns="http://www.w3.org/2000/svg" width="1800" height="1200">
<path d="M0 0 C198 0 396 0 600 0 C600 39.47839506 600 39.47839506 598.8125 51.4375 C598.67867539 52.87393117 598.54497213 54.31037365 598.41137695 55.74682617 C589.78555 145.6144843 561.81471343 232.70940487 515 310 C514.4548877 310.90830566 513.90977539 311.81661133 513.34814453 312.75244141 C498.49134662 337.47211807 481.57984409 360.93643515 463 383 C462.14555958 384.02841846 461.29140922 385.05707794 460.4375 386.0859375 C454.32716643 393.41373118 447.96421225 400.46515386 441.45117188 407.43554688 C439.19181861 409.87126957 436.97612969 412.34642819 434.75 414.8125 C430.21653932 419.76048611 425.54857748 424.55832496 420.8125 429.3125 C420.15926758 429.97032471 419.50603516 430.62814941 418.83300781 431.3059082 C414.98144676 435.14534217 411.01599271 438.79205914 406.8996582 442.34545898 C404.09707276 444.7864205 401.39803178 447.33296767 398.6875 449.875 C392.98541755 455.17297189 387.08614272 460.14577089 381 465 C379.88208806 465.9092663 378.7649394 466.8194716 377.6484375 467.73046875 C346.16188489 493.32482609 311.9215008 515.17493004 276 534 C275.06397949 534.49064941 274.12795898 534.98129883 273.16357422 535.48681641 C206.93091746 569.9421403 134.11399828 590.31195068 60 598 C58.89366211 598.11714355 57.78732422 598.23428711 56.64746094 598.35498047 C37.67119403 600.29292093 19.19358277 600 0 600 C0 402 0 204 0 0 Z " fill="#DE9E36" transform="translate(0,0)"/>
<path d="M0 0 C0.99 0 1.98 0 3 0 C3.35078613 0.63164062 3.70157227 1.26328125 4.06298828 1.9140625 C11.70985139 15.66702135 19.48090039 29.33369051 27.4375 42.91015625 C31.1321331 49.21570419 34.78852681 55.54294436 38.4375 61.875 C39.06003662 62.95515381 39.68257324 64.03530762 40.32397461 65.14819336 C41.58576826 67.33796334 42.84740534 69.52782355 44.10888672 71.71777344 C47.23680148 77.14659942 50.36858448 82.57319281 53.5 88 C54.75001879 90.16665583 56.00001878 92.3333225 57.25 94.5 C57.86875 95.5725 58.4875 96.645 59.125 97.75 C169.75 289.5 169.75 289.5 171.62524414 292.75048828 C172.87435518 294.91557071 174.12354129 297.08060982 175.37280273 299.24560547 C178.51202309 304.68615706 181.64990563 310.12747216 184.78515625 315.5703125 C190.83056845 326.06235021 196.89259486 336.54390256 203 347 C260.72763257 445.96165584 225 575.43172826 225 690 C19.74 690 -185.52 690 -397 690 C-395.54877547 686.37193866 -394.12455815 683.25771216 -392.234375 679.88671875 C-391.68144775 678.89873291 -391.12852051 677.91074707 -390.55883789 676.89282227 C-389.96192139 675.83506592 -389.36500488 674.77730957 -388.75 673.6875 C-387.81498657 672.02448853 -387.81498657 672.02448853 -386.86108398 670.32788086 C-381.52126695 660.86059123 -376.05876975 651.46700035 -370.5625 642.08984375 C-366.8678669 635.78429581 -363.21147319 629.45705564 -359.5625 623.125 C-358.93996338 622.04484619 -358.31742676 620.96469238 -357.67602539 619.85180664 C-356.41423174 617.66203666 -355.15259466 615.47217645 -353.89111328 613.28222656 C-350.76319852 607.85340058 -347.63141552 602.42680719 -344.5 597 C-343.24998121 594.83334417 -341.99998122 592.6666775 -340.75 590.5 C-328.25 568.83333333 -315.75 547.16666667 -303.25 525.5 C-302.63116943 524.42733887 -302.01233887 523.35467773 -301.37475586 522.24951172 C-300.12564482 520.08442929 -298.87645871 517.91939018 -297.62719727 515.75439453 C-294.48797691 510.31384294 -291.35009437 504.87252784 -288.21484375 499.4296875 C-282.19252671 488.97793801 -276.15330663 478.53700452 -270.0625 468.125 C-264.98724877 459.44737759 -259.97741233 450.73394432 -255 442 C-249.4599827 432.27884383 -243.86625191 422.59105342 -238.21655273 412.93310547 C-232.06233258 402.40915375 -225.97630004 391.84619863 -219.89111328 381.28222656 C-216.76319852 375.85340058 -213.63141552 370.42680719 -210.5 365 C-209.24998121 362.83334417 -207.99998122 360.6666775 -206.75 358.5 C-164.25 284.83333333 -121.75 211.16666667 -79.25 137.5 C-78.63116943 136.42733887 -78.01233887 135.35467773 -77.37475586 134.24951172 C-76.12564482 132.08442929 -74.87645871 129.91939018 -73.62719727 127.75439453 C-70.48797691 122.31384294 -67.35009437 116.87252784 -64.21484375 111.4296875 C-58.19252671 100.97793801 -52.15330663 90.53700452 -46.0625 80.125 C-40.64277153 70.85839326 -35.30085219 61.54903194 -29.98681641 52.22161865 C-24.66056825 42.87461949 -19.26353412 33.57082044 -13.82763672 24.28710938 C-9.12443023 16.2432692 -4.52713822 8.14405817 0 0 Z " fill="#DE9E36" transform="translate(1575,510)"/>
<path d="M0 0 C0.33 22.77 0.66 45.54 1 69 C4.63 65.7 8.26 62.4 12 59 C15.685817 55.73714561 19.39623831 52.5101528 23.1484375 49.32421875 C29.6646905 43.78293195 36.05200464 38.150677 42.29760742 32.30566406 C46.56419022 28.33864008 50.99215366 24.65102477 55.5625 21.03515625 C58.20319224 18.83034751 60.60089661 16.46336508 63 14 C70.83403051 16.23053796 78.47425051 18.89853492 86.125 21.6875 C87.27226563 22.10322266 88.41953125 22.51894531 89.6015625 22.94726562 C92.40193865 23.96240198 95.20138366 24.98002429 98 26 C93.36719546 31.53539051 88.45597558 36.61918445 83.29882812 41.66210938 C80.29171151 44.6292643 77.42241771 47.63433453 74.6875 50.85546875 C71.99387224 53.9857787 69.13468222 56.79622211 66.08984375 59.5859375 C65.24615234 60.37226562 64.40246094 61.15859375 63.53320312 61.96875 C61.78758639 63.58695904 60.02134764 65.18317489 58.23632812 66.7578125 C56.98819336 67.94117188 56.98819336 67.94117188 55.71484375 69.1484375 C54.95292725 69.84114746 54.19101074 70.53385742 53.40600586 71.24755859 C50.19372979 77.53601152 54.81353103 87.16998467 56.79736328 93.640625 C57.07075531 94.54595474 57.34414734 95.45128448 57.62582397 96.38404846 C58.51972875 99.34067411 59.42007324 102.29529764 60.3203125 105.25 C60.9457079 107.315852 61.5706086 109.38185381 62.19503784 111.44799805 C63.83178863 116.86030593 65.47363512 122.2710525 67.11706543 127.68133545 C69.75542588 136.36824188 72.38830824 145.05680107 75.01678085 153.7467041 C75.93610439 156.78209697 76.8590332 159.81637745 77.78225708 162.85058594 C78.34211696 164.69852621 78.90184707 166.54650581 79.46142578 168.39453125 C79.84944366 169.66460777 79.84944366 169.66460777 80.24530029 170.96034241 C82 176.77260009 82 176.77260009 82 179 C70.45 179 58.9 179 47 179 C41.45486753 162.65645166 36.1360226 146.25611944 30.96975708 129.78930664 C30.28083057 127.59402933 29.59045846 125.39920516 28.89865112 123.20483398 C27.916172 120.08587504 26.93960716 116.96512771 25.96484375 113.84375 C25.66525757 112.89483887 25.36567139 111.94592773 25.05700684 110.96826172 C24.78545776 110.09379395 24.51390869 109.21932617 24.23413086 108.31835938 C23.99480331 107.5537439 23.75547577 106.78912842 23.50889587 106.00134277 C23 104 23 104 23 101 C18.0561311 103.58646423 14.36238391 107.2347672 10.375 111.0625 C9.05130953 112.32613888 7.72585698 113.58793516 6.3984375 114.84765625 C5.81755371 115.40461182 5.23666992 115.96156738 4.63818359 116.53540039 C3 118 3 118 0 120 C-0.43930051 122.58427663 -0.43930051 122.58427663 -0.34057617 125.64306641 C-0.34034958 126.82413971 -0.34012299 128.00521301 -0.33988953 129.22207642 C-0.32440567 130.50230682 -0.30892181 131.78253723 -0.29296875 133.1015625 C-0.28660149 135.06166763 -0.28660149 135.06166763 -0.28010559 137.06137085 C-0.26864632 140.53691786 -0.23917049 144.01208927 -0.20599365 147.48748779 C-0.17531569 151.0332735 -0.16160516 154.57911985 -0.14648438 158.125 C-0.11430135 165.08348771 -0.06309229 172.04172583 0 179 C-13.05089063 179.17047607 -25.92769447 178.56836111 -39 178 C-39 122.23 -39 66.46 -39 9 C-30.06566651 6.61751107 -21.19847426 4.26937267 -12.1875 2.25 C-11.22263672 2.02957031 -10.25777344 1.80914063 -9.26367188 1.58203125 C-2.26244662 0 -2.26244662 0 0 0 Z " fill="#DE9E36" transform="translate(576,517)"/>
<path d="M0 0 C0.83038862 4.33474019 1.12184768 8.4207319 1.11352539 12.83154297 C1.11367142 13.48590836 1.11381744 14.14027374 1.1139679 14.81446838 C1.11327647 16.95707626 1.10552052 19.09959499 1.09765625 21.2421875 C1.09578933 22.73576815 1.09436672 24.22934942 1.09336853 25.72293091 C1.08956494 29.63885207 1.07975324 33.55473568 1.06866455 37.47064209 C1.05840388 41.47261039 1.05386096 45.47458481 1.04882812 49.4765625 C1.0381289 57.3177255 1.0210786 65.15885807 1 73 C2.62808594 72.58427734 2.62808594 72.58427734 4.2890625 72.16015625 C5.73434281 71.7941437 7.17965712 71.4282654 8.625 71.0625 C9.69427734 70.78889648 9.69427734 70.78889648 10.78515625 70.50976562 C21.79299351 67.73255898 33.41352008 65.79111446 44 71 C53.30616524 77.08480035 56.50729609 87.63890486 59 98 C60.41139521 104.97745453 61.40387316 112.03146476 62.453125 119.0703125 C62.76049842 121.08490917 63.06867905 123.09938283 63.37762451 125.11373901 C64.01873111 129.30672437 64.65357554 133.50058829 65.28320312 137.6953125 C66.09080896 143.07563052 66.90898191 148.45427072 67.73112869 153.83238411 C68.51676624 158.97369215 69.29785123 164.11568807 70.078125 169.2578125 C70.22708473 170.23775303 70.37604446 171.21769356 70.52951813 172.22732925 C70.94827496 174.988587 71.36385889 177.75030169 71.77832031 180.51220703 C71.90294647 181.33191483 72.02757263 182.15162262 72.15597534 182.99617004 C72.60811695 186.02756752 73 188.93022403 73 192 C61.45 192 49.9 192 38 192 C37.90203125 189.46699219 37.8040625 186.93398438 37.703125 184.32421875 C36.91367079 164.92759362 35.79867892 145.58632841 34.0625 126.25 C33.98318237 125.32158295 33.90386475 124.39316589 33.82214355 123.43661499 C33.59400057 120.79485894 33.34877961 118.15528425 33.09765625 115.515625 C33.03197952 114.73925186 32.9663028 113.96287872 32.89863586 113.16297913 C32.42668597 108.49656602 31.29995078 105.16603741 29 101 C29 100.34 29 99.68 29 99 C23.08650512 96.58858776 23.08650512 96.58858776 16.8125 95.8125 C16.09707031 95.79832031 15.38164063 95.78414062 14.64453125 95.76953125 C12.24252693 95.97886398 10.16209558 96.41622335 7.8347168 97.0144043 C6.56926025 97.33965088 5.30380371 97.66489746 4 98 C4.01252808 98.7646759 4.02505615 99.52935181 4.03796387 100.31719971 C4.15796048 107.66651619 4.27570107 115.01586426 4.39115143 122.36525345 C4.45052146 126.14000659 4.51064584 129.91474397 4.57275391 133.68945312 C4.89194275 153.12859356 5.07641283 172.55763758 5 192 C0.46102295 192.02465392 -4.07791543 192.04283789 -8.61694336 192.05493164 C-10.16219766 192.0599714 -11.70744716 192.0668032 -13.25268555 192.07543945 C-15.46925029 192.08752076 -17.68575218 192.09323173 -19.90234375 192.09765625 C-20.94454323 192.10539818 -20.94454323 192.10539818 -22.00779724 192.11329651 C-23.6722933 192.11349277 -25.33665499 192.06189129 -27 192 C-28.9847604 190.0152396 -28.37706556 186.14899677 -28.50170898 183.4284668 C-28.54245009 182.59487735 -28.5831912 181.7612879 -28.62516689 180.90243816 C-29.21954241 168.07206551 -29.54713726 155.23047276 -29.90911031 142.39187074 C-29.9952316 139.34614075 -30.08274688 136.30045137 -30.17022032 133.25475997 C-30.37706666 126.05100255 -30.58151252 118.8471798 -30.78442383 111.64331055 C-30.99171515 104.28550302 -31.20318235 96.92782392 -31.41671187 89.57019502 C-31.60181688 83.18654492 -31.78420311 76.8028208 -31.96453851 70.41903418 C-32.0714395 66.6357793 -32.17927222 62.85255786 -32.28978157 59.06940651 C-32.79564099 41.71021996 -33.13720333 24.36782063 -33 7 C-29.10553318 5.99666679 -25.20976894 4.99880329 -21.31176758 4.00927734 C-19.98732714 3.67190004 -18.6634234 3.33240824 -17.34008789 2.99072266 C-15.43259508 2.49860529 -13.52295462 2.01483654 -11.61328125 1.53125 C-10.46641846 1.23798828 -9.31955566 0.94472656 -8.13793945 0.64257812 C-5.31013042 0.06350761 -2.87218714 -0.13173012 0 0 Z " fill="#DE9E36" transform="translate(780,486)"/>
<path d="M0 0 C0.91523437 0.40089844 1.83046875 0.80179688 2.7734375 1.21484375 C17.98221093 8.56362083 26.25199152 21.69542084 32.01953125 37.01953125 C36.71486501 51.29259762 35.18752155 68.61119689 28.52734375 81.94921875 C20.43372002 95.66819798 8.60506357 105.29475422 -6.828125 109.3046875 C-25.0741212 112.82600266 -43.15768425 109.63006439 -59 100 C-71.7386554 91.24538045 -80.68139966 79.06509915 -84.4609375 64.05078125 C-87.03820574 49.46493708 -83.76984314 35.48242192 -76 23 C-73.22764814 19.41134454 -70.22376855 16.18492796 -67 13 C-66.38511719 12.36320313 -65.77023437 11.72640625 -65.13671875 11.0703125 C-48.91721306 -4.55876151 -20.38205091 -9.8215623 0 0 Z M-43.4375 28.3125 C-50.35109439 37.43297622 -51.31915666 48.91127511 -50 60 C-48.12404198 66.16497407 -44.9155569 70.82177663 -40 75 C-39.195625 75.721875 -38.39125 76.44375 -37.5625 77.1875 C-31.3045662 81.61384342 -24.44689321 81.81033686 -17 81 C-10.84410746 78.15004975 -5.96453815 72.56267239 -3.1875 66.375 C0.35570471 56.30483925 -0.09832195 45.91554271 -4 36 C-7.63436092 28.9074896 -12.25321956 23.58226015 -20 21 C-28.74973023 20.0206724 -37.30766648 21.59238622 -43.4375 28.3125 Z " fill="#DE9E36" transform="translate(937,568)"/>
<path d="M0 0 C4.04652081 0.67442013 7.17175707 1.27222462 10.92578125 2.59375 C11.80427734 2.90183594 12.68277344 3.20992188 13.58789062 3.52734375 C14.48701172 3.84832031 15.38613281 4.16929687 16.3125 4.5 C17.23095703 4.82097656 18.14941406 5.14195312 19.09570312 5.47265625 C25.86372321 7.86372321 25.86372321 7.86372321 27 9 C27.09268999 10.35094982 27.11747326 11.70667091 27.11352539 13.06079102 C27.11344986 13.92160782 27.11337433 14.78242462 27.11329651 15.66932678 C27.10813522 16.60473801 27.10297394 17.54014923 27.09765625 18.50390625 C27.0962413 19.45692123 27.09482635 20.40993622 27.09336853 21.39183044 C27.08775152 24.44875165 27.07519616 27.50560077 27.0625 30.5625 C27.05748719 32.62955624 27.05292391 34.69661362 27.04882812 36.76367188 C27.03777656 41.84247588 27.02050055 46.9212257 27 52 C27.97694824 51.99492432 28.95389648 51.98984863 29.96044922 51.98461914 C37.02825554 51.96331747 44.06937198 51.97764876 51.125 52.4375 C51.82625 52.47681641 52.5275 52.51613281 53.25 52.55664062 C56.95789968 52.78401183 60.33545542 53.26709108 64 54 C64 60.93 64 67.86 64 75 C61.77370593 76.11314703 60.39407428 76.19365956 57.921875 76.31640625 C57.08914063 76.35830078 56.25640625 76.40019531 55.3984375 76.44335938 C54.52445313 76.48267578 53.65046875 76.52199219 52.75 76.5625 C51.92242188 76.60568359 51.09484375 76.64886719 50.2421875 76.69335938 C45.04024426 76.94238857 39.85353779 77.02046717 34.64550781 77.01147461 C32.77321503 77.00898964 32.77321503 77.00898964 30.86309814 77.00645447 C29.91827576 77.00432449 28.97345337 77.00219452 28 77 C28.34625926 84.73717426 28.70202308 92.47384826 29.06982994 100.21002483 C29.24033245 103.80250129 29.40759302 107.39506696 29.56738281 110.98803711 C29.72179223 114.4573146 29.8847982 117.92609228 30.05369949 121.39469337 C30.14707381 123.35804494 30.23160748 125.32181051 30.31600952 127.28556824 C30.37592072 128.4864357 30.43583191 129.68730316 30.49755859 130.92456055 C30.54641205 131.97935104 30.5952655 133.03414154 30.64559937 134.12089539 C31.01307984 137.10625893 31.59222079 139.34202381 33 142 C41.57650306 144.85883435 50.00970243 142.7638857 58.28515625 139.875 C61 139 61 139 64 139 C64.14903087 143.99864833 64.25753175 148.99598642 64.32958984 153.99633789 C64.35964557 155.6948094 64.40050347 157.39312719 64.45263672 159.09106445 C64.52595765 161.54156495 64.55956538 163.99000383 64.5859375 166.44140625 C64.61690521 167.19273331 64.64787292 167.94406036 64.67977905 168.71815491 C64.68312077 174.02892163 63.25739247 176.77967671 59.56637573 180.58872986 C52.83861642 186.65029328 44.76730538 186.61989325 36.125 186.5 C34.46404297 186.52320313 34.46404297 186.52320313 32.76953125 186.546875 C22.79674255 186.49999938 14.06502804 184.43189953 6.4375 177.7578125 C2.60821164 173.07525879 1.59352584 168.65168633 1.34765625 162.70703125 C1.31535416 161.98224075 1.28305206 161.25745026 1.24977112 160.51069641 C1.14676809 158.00741326 1.07022366 155.50441365 1 153 C0.97282898 152.0597699 0.94565796 151.11953979 0.91766357 150.15081787 C0.74234975 143.77665705 0.6110045 137.40214335 0.49731445 131.02661133 C0.43778121 127.70319828 0.37262079 124.37993129 0.30664062 121.05664062 C0.05695829 108.0351088 -0.04242324 95.02393485 0 82 C-7.59 82 -15.18 82 -23 82 C-24.28879466 77.48921869 -25.34833083 73.5101252 -26.0703125 68.953125 C-26.24433594 67.86128906 -26.41835937 66.76945313 -26.59765625 65.64453125 C-26.77167969 64.52433594 -26.94570312 63.40414062 -27.125 62.25 C-27.30675781 61.11433594 -27.48851562 59.97867188 -27.67578125 58.80859375 C-29 50.41523731 -29 50.41523731 -29 47 C-19.43 47 -9.86 47 0 47 C0 31.49 0 15.98 0 0 Z " fill="#DE9E36" transform="translate(1111,504)"/>
<path d="M0 0 C11.3363219 10.20763544 19.43663328 22.92381428 20.55517578 38.47338867 C20.88384495 54.8030566 15.91516471 67.86911349 4.69580078 79.80932617 C-8.17351975 92.53072348 -24.57523475 99.13828209 -42.68310547 99.16088867 C-56.42755235 98.29497277 -68.38965064 94.43920988 -78.68310547 85.16088867 C-79.28509766 84.68522461 -79.88708984 84.20956055 -80.50732422 83.71948242 C-88.99800987 76.41176871 -94.92689428 62.94128928 -95.88208008 51.85058594 C-95.98641603 49.36628946 -96.01230225 46.89727846 -95.99560547 44.41088867 C-95.98996582 43.52981445 -95.98432617 42.64874023 -95.97851562 41.7409668 C-95.67875651 25.58365392 -89.8628593 12.31191259 -78.54638672 0.86010742 C-56.60772684 -19.82149418 -22.81656166 -19.6493602 0 0 Z M-53.33935547 16.52416992 C-60.16212734 24.83446473 -62.52329761 35.64022181 -61.68310547 46.16088867 C-60.78633514 54.49217434 -57.17530643 60.83903898 -51.12060547 66.59838867 C-45.59690622 70.13922153 -41.08621501 70.97538329 -34.55029297 69.76635742 C-27.26904566 67.80016695 -21.3652462 63.31340407 -17.26513672 56.96557617 C-12.91040902 48.44477323 -12.41589315 39.32137264 -14.33154297 30.00854492 C-16.82289103 22.4173861 -20.91873336 16.69774814 -27.55810547 12.22338867 C-36.74848434 9.09865985 -45.87300865 9.61779912 -53.33935547 16.52416992 Z " fill="#DE9E36" transform="translate(1068.68310546875,584.839111328125)"/>
<path d="M0 0 C7.0233508 5.33931315 11.52179701 13.91109961 12.7890625 22.59765625 C12.90384277 25.97052294 12.8565535 29.33812263 12.81079102 32.7121582 C12.80118347 33.72725967 12.79157593 34.74236115 12.78167725 35.78822327 C12.74874322 39.13753314 12.70838943 42.4867103 12.66796875 45.8359375 C12.64366218 48.1604923 12.61981888 50.48505198 12.59642029 52.80961609 C12.53363291 58.92361015 12.46455103 65.03751754 12.39416504 71.15142822 C12.32343337 77.39192767 12.25864532 83.6324885 12.19335938 89.87304688 C12.06441591 102.1146508 11.92882367 114.35617139 11.7890625 126.59765625 C4.53007398 126.71414366 -2.72870898 126.80266866 -9.98844719 126.85671711 C-13.36047547 126.88267439 -16.73185856 126.91781131 -20.10351562 126.97485352 C-23.99105509 127.03586549 -27.8776922 127.06395065 -31.765625 127.0859375 C-32.96081757 127.11174393 -34.15601013 127.13755035 -35.38742065 127.16413879 C-44.36963988 127.16711328 -50.68533348 125.09782129 -57.796875 119.59765625 C-66.78588519 109.54880643 -67.98929881 98.10932131 -67.52734375 85.12890625 C-66.93759852 74.94893117 -64.13161275 66.89503962 -58.2109375 58.59765625 C-57.71980469 57.89898438 -57.22867188 57.2003125 -56.72265625 56.48046875 C-48.2392132 45.66039499 -35.21974568 40.59083335 -22.2109375 37.59765625 C-20.5609375 37.59765625 -18.9109375 37.59765625 -17.2109375 37.59765625 C-17.5409375 32.97765625 -17.8709375 28.35765625 -18.2109375 23.59765625 C-29.9650178 18.37362056 -36.34850703 19.22173745 -48.2109375 23.59765625 C-49.2009375 23.92765625 -50.1909375 24.25765625 -51.2109375 24.59765625 C-54.1809375 17.33765625 -57.1509375 10.07765625 -60.2109375 2.59765625 C-56.33135827 -0.31202817 -53.33863877 -1.41170317 -48.7734375 -2.52734375 C-48.11794922 -2.69621094 -47.46246094 -2.86507812 -46.78710938 -3.0390625 C-31.81617494 -6.85312202 -13.50556611 -8.56625129 0 0 Z M-32.98046875 65.0390625 C-39.66335326 72.33102003 -42.63482782 81.4841347 -42.48828125 91.25390625 C-41.82702567 96.84198156 -39.50127215 100.5706552 -35.1484375 104.03515625 C-28.39978187 107.62486669 -26.52738701 106.59765625 -17.2109375 106.59765625 C-16.8809375 91.41765625 -16.5509375 76.23765625 -16.2109375 60.59765625 C-22.51767588 60.59765625 -27.9394416 60.93279536 -32.98046875 65.0390625 Z " fill="#DE9E36" transform="translate(722.2109375,557.40234375)"/>
<path d="M0 0 C8.10206324 0.54157337 15.98687155 1.55450311 23.96875 3.03125 C25.59375427 3.32521667 25.59375427 3.32521667 27.25158691 3.62512207 C30.66871165 4.24479128 34.08431981 4.87242312 37.5 5.5 C39.82022358 5.92106321 42.14053542 6.34164032 44.4609375 6.76171875 C46.67195417 7.16362722 48.88289451 7.56595586 51.09375 7.96875 C52.12914917 8.15731567 53.16454834 8.34588135 54.23132324 8.54016113 C55.674328 8.80548645 55.674328 8.80548645 57.14648438 9.07617188 C57.9896521 9.23081909 58.83281982 9.38546631 59.70153809 9.5447998 C61.82292201 9.96493049 63.90457228 10.46771838 66 11 C65.45311144 20.08883509 64.33672574 28.95619519 62.80688477 37.9284668 C62.58291419 39.26694516 62.35942824 40.60550469 62.13638306 41.94413757 C61.5364254 45.5352325 60.92920677 49.12506157 60.32010007 52.71461463 C59.81087757 55.71944502 59.3052144 58.72487017 58.79949421 61.73029166 C57.60756137 68.81320472 56.4095992 75.89507941 55.20776367 82.97631836 C53.9683635 90.27952887 52.7392267 97.58441533 51.51501042 104.89018506 C50.4609303 111.17846619 49.40062588 117.46567576 48.33526462 123.75205547 C47.70006727 127.5005284 47.06724492 131.24936303 46.44040108 134.99924278 C45.85251134 138.51441029 45.25687718 142.02817697 44.65515518 145.54100227 C44.33048411 147.44803388 44.0138113 149.35642174 43.69734192 151.26483154 C43.50251221 152.39311874 43.3076825 153.52140594 43.10694885 154.68388367 C42.94048135 155.66806621 42.77401384 156.65224874 42.60250187 157.666255 C42 160 42 160 40 162 C35.39007209 146.04171284 31.42297951 129.92132711 27.42551208 113.80170178 C26.65582022 110.69914024 25.88459637 107.59696029 25.1134041 104.49477142 C23.2963854 97.18547443 21.48194871 89.87553998 19.66918945 82.56518555 C17.80107136 75.03178095 15.92850666 67.4994913 14.05382842 59.96771675 C12.4376197 53.47372124 10.82411571 46.97905788 9.21280175 40.48384613 C8.25309777 36.61538923 7.29236981 32.74719408 6.32903099 28.87964058 C5.42708903 25.25807906 4.52852144 21.63569711 3.63258362 18.01264572 C3.14593406 16.0482994 2.6558139 14.08481391 2.16560364 12.12135315 C1.87833405 10.95684631 1.59106445 9.79233948 1.29508972 8.59254456 C1.04348178 7.57890618 0.79187384 6.56526781 0.53264141 5.52091312 C0 3 0 3 0 0 Z " fill="#DE9E36" transform="translate(1194,504)"/>
<path d="M0 0 C0.9583374 0.00523682 1.9166748 0.01047363 2.90405273 0.01586914 C4.45576172 0.02070312 4.45576172 0.02070312 6.03881836 0.02563477 C7.12743164 0.03401367 8.21604492 0.04239258 9.33764648 0.05102539 C10.97636719 0.05779297 10.97636719 0.05779297 12.64819336 0.06469727 C15.35723144 0.07652713 18.06616248 0.09300996 20.77514648 0.11352539 C22.14410194 3.87915523 23.49273717 7.65174734 24.83764648 11.42602539 C25.22758789 12.49788086 25.6175293 13.56973633 26.01928711 14.67407227 C26.38344727 15.70209961 26.74760742 16.73012695 27.12280273 17.78930664 C27.4631958 18.73717041 27.80358887 19.68503418 28.15429688 20.66162109 C28.77514648 23.11352539 28.77514648 23.11352539 27.77514648 26.11352539 C25.21971991 28.15567584 22.34548986 29.71327489 19.52514648 31.36352539 C18.76073242 31.83532227 17.99631836 32.30711914 17.20874023 32.79321289 C11.66162242 36.0697488 11.66162242 36.0697488 8.24389648 36.23852539 C4.4038862 34.48864728 0.99482275 32.25360814 -2.47485352 29.86352539 C-3.20704102 29.3852832 -3.93922852 28.90704102 -4.69360352 28.41430664 C-7.5759215 26.44472268 -9.78372504 24.93396815 -11.45141602 21.83227539 C-11.08575667 17.44436323 -9.22177617 13.80771025 -7.34985352 9.86352539 C-6.9721582 9.03594727 -6.59446289 8.20836914 -6.20532227 7.35571289 C-2.88467646 0.14719352 -2.88467646 0.14719352 0 0 Z " fill="#DE9E36" transform="translate(1225.224853515625,677.886474609375)"/>
</svg>
