<svg xmlns="http://www.w3.org/2000/svg" viewBox="0 0 448 512" width="34" height="34" fill="#DE9E36">
  <path d="M400 32H48C21.49 32 0 53.49 0 80v352c0 26.51 21.49 48 48 48h352c26.51 0 48-21.49 48-48V80c0-26.51-21.49-48-48-48zM224 368c-17.67 0-32-14.33-32-32s14.33-32 32-32 32 14.33 32 32-14.33 32-32 32zm56.1-132.7c-3.5 3.7-10.4 10.2-15.8 14.3-5.2 3.9-7.2 8.8-7.2 15.4v8c0 8.8-7.2 16-16 16s-16-7.2-16-16v-8c0-14.2 6.6-27.5 17.8-36.2 4.5-3.3 8.4-6.6 11.7-10 8.6-9 12.7-18 12.7-28.8 0-21.4-19-40-40-40-13.4 0-25.7 6.2-33.6 17-5.1 6.8-14.8 8.4-21.8 3.3s-8.4-14.8-3.3-21.8C199.8 129.7 214.2 120 232 120c39.8 0 72 32.2 72 72 0 19.8-7.4 36.9-23.9 53.3z"/>
</svg>
