<svg xmlns="http://www.w3.org/2000/svg" viewBox="0 0 640 512" width="34" height="34" fill="#DE9E36">
  <path d="M480.1 96c-5.5 0-11 .2-16.5.7L392 103.2c-17.1 1.5-32.5 11.4-41.4 26.6l-49.3 82.2H212.8l-49.3-82.2c-8.9-15.2-24.3-25.1-41.4-26.6l-71.6-6.5C40 96.2 34.5 96 29 96 13 96 0 109 0 125v40c0 35.1 8.6 69.8 25 101.2 8.3 16.2 19.8 30.6 34 42.7v97.1c0 23.2 18.8 42 42 42H200c6.6 0 12-5.4 12-12v-52c0-19.9 16.1-36 36-36h144c19.9 0 36 16.1 36 36v52c0 6.6 5.4 12 12 12H537c23.2 0 42-18.8 42-42v-97.1c14.2-12.1 25.7-26.5 34-42.7C631.4 234.8 640 200.1 640 165v-40c0-16-13-29-29-29-5.5 0-11 .2-16.5.7L480.1 96zM304 216a24 24 0 1 1-48 0 24 24 0 1 1 48 0zM88 312a24 24 0 1 1 48 0 24 24 0 1 1-48 0zm136 48h-32v32c0 8.8-7.2 16-16 16s-16-7.2-16-16v-32H128c-8.8 0-16-7.2-16-16s7.2-16 16-16h32v-32c0-8.8 7.2-16 16-16s16 7.2 16 16v32h32c8.8 0 16 7.2 16 16s-7.2 16-16 16zm232-48a24 24 0 1 1 0-48 24 24 0 1 1 0 48zm128-96a24 24 0 1 1 0-48 24 24 0 1 1 0 48z"/>
</svg>
